G04 (created by PCBNEW (2013-mar-13)-stable) date Tue 21 Jul 2015 10:15:33 AM CEST*
%MOIN*%
G04 Gerber Fmt 3.4, Leading zero omitted, Abs format*
%FSLAX34Y34*%
G01*
G70*
G90*
G04 APERTURE LIST*
%ADD10C,0.005906*%
%ADD11C,0.007874*%
%ADD12C,0.003000*%
%ADD13C,0.010000*%
%ADD14C,0.005000*%
%ADD15C,0.004000*%
%ADD16C,0.002000*%
%ADD17C,0.006300*%
%ADD18C,0.001100*%
%ADD19C,0.006000*%
G04 APERTURE END LIST*
G54D10*
G54D11*
X64315Y-31375D02*
X64255Y-31315D01*
X64315Y-31575D02*
X64315Y-31375D01*
X63595Y-32675D02*
X63695Y-32775D01*
X63595Y-32375D02*
X63595Y-32675D01*
X66610Y-32923D02*
X66910Y-32923D01*
G54D12*
X68681Y-33604D02*
X68681Y-31324D01*
X68681Y-47415D02*
X72303Y-47415D01*
X72303Y-47415D02*
X72303Y-31324D01*
X68681Y-31324D02*
X72303Y-31324D01*
X68681Y-47415D02*
X68681Y-45136D01*
X41555Y-45136D02*
X41555Y-47415D01*
X41555Y-31324D02*
X37933Y-31324D01*
X37933Y-31324D02*
X37933Y-47415D01*
X41555Y-47415D02*
X37933Y-47415D01*
X41555Y-31324D02*
X41555Y-33604D01*
G54D13*
X44250Y-35050D02*
X44250Y-34550D01*
X44250Y-34550D02*
X45250Y-34550D01*
X45250Y-34550D02*
X45250Y-35050D01*
X43750Y-35050D02*
X43750Y-31050D01*
X43750Y-31050D02*
X45750Y-31050D01*
X45750Y-31050D02*
X45750Y-35050D01*
X45750Y-35050D02*
X43750Y-35050D01*
X44250Y-39250D02*
X44250Y-38750D01*
X44250Y-38750D02*
X45250Y-38750D01*
X45250Y-38750D02*
X45250Y-39250D01*
X43750Y-39250D02*
X43750Y-35250D01*
X43750Y-35250D02*
X45750Y-35250D01*
X45750Y-35250D02*
X45750Y-39250D01*
X45750Y-39250D02*
X43750Y-39250D01*
X44250Y-43450D02*
X44250Y-42950D01*
X44250Y-42950D02*
X45250Y-42950D01*
X45250Y-42950D02*
X45250Y-43450D01*
X43750Y-43450D02*
X43750Y-39450D01*
X43750Y-39450D02*
X45750Y-39450D01*
X45750Y-39450D02*
X45750Y-43450D01*
X45750Y-43450D02*
X43750Y-43450D01*
X44250Y-47650D02*
X44250Y-47150D01*
X44250Y-47150D02*
X45250Y-47150D01*
X45250Y-47150D02*
X45250Y-47650D01*
X43750Y-47650D02*
X43750Y-43650D01*
X43750Y-43650D02*
X45750Y-43650D01*
X45750Y-43650D02*
X45750Y-47650D01*
X45750Y-47650D02*
X43750Y-47650D01*
G54D14*
X48100Y-32200D02*
X46900Y-32200D01*
X46900Y-32200D02*
X46900Y-31900D01*
X46900Y-31900D02*
X48100Y-31900D01*
X48100Y-31900D02*
X48100Y-32200D01*
X48100Y-36400D02*
X46900Y-36400D01*
X46900Y-36400D02*
X46900Y-36100D01*
X46900Y-36100D02*
X48100Y-36100D01*
X48100Y-36100D02*
X48100Y-36400D01*
X48100Y-40600D02*
X46900Y-40600D01*
X46900Y-40600D02*
X46900Y-40300D01*
X46900Y-40300D02*
X48100Y-40300D01*
X48100Y-40300D02*
X48100Y-40600D01*
X48100Y-44800D02*
X46900Y-44800D01*
X46900Y-44800D02*
X46900Y-44500D01*
X46900Y-44500D02*
X48100Y-44500D01*
X48100Y-44500D02*
X48100Y-44800D01*
X47700Y-34350D02*
X48100Y-34350D01*
X48100Y-34350D02*
X48100Y-34950D01*
X48100Y-34950D02*
X47700Y-34950D01*
X47300Y-34950D02*
X46900Y-34950D01*
X46900Y-34950D02*
X46900Y-34350D01*
X46900Y-34350D02*
X47300Y-34350D01*
X47950Y-33750D02*
X47050Y-33750D01*
X47050Y-33750D02*
X47050Y-33250D01*
X47050Y-33250D02*
X47950Y-33250D01*
X47950Y-33250D02*
X47950Y-33750D01*
X47700Y-38550D02*
X48100Y-38550D01*
X48100Y-38550D02*
X48100Y-39150D01*
X48100Y-39150D02*
X47700Y-39150D01*
X47300Y-39150D02*
X46900Y-39150D01*
X46900Y-39150D02*
X46900Y-38550D01*
X46900Y-38550D02*
X47300Y-38550D01*
X47950Y-37950D02*
X47050Y-37950D01*
X47050Y-37950D02*
X47050Y-37450D01*
X47050Y-37450D02*
X47950Y-37450D01*
X47950Y-37450D02*
X47950Y-37950D01*
X47700Y-42750D02*
X48100Y-42750D01*
X48100Y-42750D02*
X48100Y-43350D01*
X48100Y-43350D02*
X47700Y-43350D01*
X47300Y-43350D02*
X46900Y-43350D01*
X46900Y-43350D02*
X46900Y-42750D01*
X46900Y-42750D02*
X47300Y-42750D01*
X47950Y-42150D02*
X47050Y-42150D01*
X47050Y-42150D02*
X47050Y-41650D01*
X47050Y-41650D02*
X47950Y-41650D01*
X47950Y-41650D02*
X47950Y-42150D01*
X47700Y-46950D02*
X48100Y-46950D01*
X48100Y-46950D02*
X48100Y-47550D01*
X48100Y-47550D02*
X47700Y-47550D01*
X47300Y-47550D02*
X46900Y-47550D01*
X46900Y-47550D02*
X46900Y-46950D01*
X46900Y-46950D02*
X47300Y-46950D01*
X47950Y-46350D02*
X47050Y-46350D01*
X47050Y-46350D02*
X47050Y-45850D01*
X47050Y-45850D02*
X47950Y-45850D01*
X47950Y-45850D02*
X47950Y-46350D01*
G54D15*
X59224Y-31168D02*
X59224Y-32318D01*
X59224Y-31168D02*
X63164Y-31168D01*
X63164Y-31168D02*
X63164Y-32318D01*
X59224Y-35108D02*
X59224Y-33958D01*
X59224Y-35108D02*
X63164Y-35108D01*
X63164Y-35108D02*
X63164Y-33958D01*
G54D16*
X64565Y-32922D02*
X64481Y-32922D01*
X64565Y-34694D02*
X64481Y-34694D01*
X64215Y-34008D02*
X64015Y-33608D01*
X63815Y-34008D02*
X64015Y-33608D01*
X64215Y-34008D02*
X63815Y-34008D01*
X64215Y-33608D02*
X63815Y-33608D01*
X63465Y-32922D02*
X63549Y-32922D01*
X63465Y-34694D02*
X63549Y-34694D01*
X63465Y-32922D02*
X63465Y-34694D01*
X64565Y-32922D02*
X64565Y-34694D01*
G54D14*
X67690Y-33940D02*
X68590Y-33940D01*
X68590Y-33940D02*
X68590Y-33290D01*
X67690Y-32590D02*
X67690Y-31940D01*
X67690Y-31940D02*
X68590Y-31940D01*
X68590Y-31940D02*
X68590Y-32590D01*
X67690Y-33290D02*
X67690Y-33940D01*
X65760Y-32073D02*
X64860Y-32073D01*
X64860Y-32073D02*
X64860Y-31573D01*
X64860Y-31573D02*
X65760Y-31573D01*
X65760Y-31573D02*
X65760Y-32073D01*
X65760Y-32673D02*
X64860Y-32673D01*
X64860Y-32673D02*
X64860Y-32173D01*
X64860Y-32173D02*
X65760Y-32173D01*
X65760Y-32173D02*
X65760Y-32673D01*
X64870Y-35213D02*
X65770Y-35213D01*
X65770Y-35213D02*
X65770Y-35713D01*
X65770Y-35713D02*
X64870Y-35713D01*
X64870Y-35713D02*
X64870Y-35213D01*
X65910Y-35213D02*
X66810Y-35213D01*
X66810Y-35213D02*
X66810Y-35713D01*
X66810Y-35713D02*
X65910Y-35713D01*
X65910Y-35713D02*
X65910Y-35213D01*
X66110Y-34373D02*
X66110Y-33473D01*
X66110Y-33473D02*
X66610Y-33473D01*
X66610Y-33473D02*
X66610Y-34373D01*
X66610Y-34373D02*
X66110Y-34373D01*
X64460Y-35673D02*
X63560Y-35673D01*
X63560Y-35673D02*
X63560Y-35173D01*
X63560Y-35173D02*
X64460Y-35173D01*
X64460Y-35173D02*
X64460Y-35673D01*
X65905Y-30865D02*
X66805Y-30865D01*
X66805Y-30865D02*
X66805Y-31365D01*
X66805Y-31365D02*
X65905Y-31365D01*
X65905Y-31365D02*
X65905Y-30865D01*
G54D12*
X65820Y-34423D02*
X65775Y-34423D01*
X65820Y-34423D02*
X65820Y-33203D01*
X65820Y-33203D02*
X65775Y-33203D01*
X64600Y-33203D02*
X64645Y-33203D01*
X64600Y-34423D02*
X64645Y-34423D01*
X64600Y-34423D02*
X64600Y-33203D01*
G54D14*
X66610Y-31473D02*
X66610Y-32373D01*
X66610Y-32373D02*
X66110Y-32373D01*
X66110Y-32373D02*
X66110Y-31473D01*
X66110Y-31473D02*
X66610Y-31473D01*
X65910Y-34473D02*
X66810Y-34473D01*
X66810Y-34473D02*
X66810Y-34973D01*
X66810Y-34973D02*
X65910Y-34973D01*
X65910Y-34973D02*
X65910Y-34473D01*
X66610Y-32473D02*
X66610Y-33373D01*
X66610Y-33373D02*
X66110Y-33373D01*
X66110Y-33373D02*
X66110Y-32473D01*
X66110Y-32473D02*
X66610Y-32473D01*
X64770Y-32073D02*
X63870Y-32073D01*
X63870Y-32073D02*
X63870Y-31573D01*
X63870Y-31573D02*
X64770Y-31573D01*
X64770Y-31573D02*
X64770Y-32073D01*
X68590Y-34290D02*
X67690Y-34290D01*
X67690Y-34290D02*
X67690Y-34940D01*
X68590Y-35640D02*
X68590Y-36290D01*
X68590Y-36290D02*
X67690Y-36290D01*
X67690Y-36290D02*
X67690Y-35640D01*
X68590Y-34940D02*
X68590Y-34290D01*
X67450Y-46440D02*
X68350Y-46440D01*
X68350Y-46440D02*
X68350Y-46940D01*
X68350Y-46940D02*
X67450Y-46940D01*
X67450Y-46940D02*
X67450Y-46440D01*
X68350Y-40110D02*
X67450Y-40110D01*
X67450Y-40110D02*
X67450Y-39610D01*
X67450Y-39610D02*
X68350Y-39610D01*
X68350Y-39610D02*
X68350Y-40110D01*
X68350Y-42180D02*
X67450Y-42180D01*
X67450Y-42180D02*
X67450Y-41680D01*
X67450Y-41680D02*
X68350Y-41680D01*
X68350Y-41680D02*
X68350Y-42180D01*
X68350Y-44240D02*
X67450Y-44240D01*
X67450Y-44240D02*
X67450Y-43740D01*
X67450Y-43740D02*
X68350Y-43740D01*
X68350Y-43740D02*
X68350Y-44240D01*
X68350Y-46320D02*
X67450Y-46320D01*
X67450Y-46320D02*
X67450Y-45820D01*
X67450Y-45820D02*
X68350Y-45820D01*
X68350Y-45820D02*
X68350Y-46320D01*
G54D15*
X63470Y-43450D02*
X63470Y-41650D01*
X63470Y-41650D02*
X66030Y-41650D01*
X66030Y-41650D02*
X66030Y-43450D01*
X66030Y-43450D02*
X63470Y-43450D01*
X63470Y-45510D02*
X63470Y-43710D01*
X63470Y-43710D02*
X66030Y-43710D01*
X66030Y-43710D02*
X66030Y-45510D01*
X66030Y-45510D02*
X63470Y-45510D01*
X63470Y-47590D02*
X63470Y-45790D01*
X63470Y-45790D02*
X66030Y-45790D01*
X66030Y-45790D02*
X66030Y-47590D01*
X66030Y-47590D02*
X63470Y-47590D01*
G54D14*
X67450Y-42300D02*
X68350Y-42300D01*
X68350Y-42300D02*
X68350Y-42800D01*
X68350Y-42800D02*
X67450Y-42800D01*
X67450Y-42800D02*
X67450Y-42300D01*
X67450Y-44360D02*
X68350Y-44360D01*
X68350Y-44360D02*
X68350Y-44860D01*
X68350Y-44860D02*
X67450Y-44860D01*
X67450Y-44860D02*
X67450Y-44360D01*
G54D15*
X63470Y-41380D02*
X63470Y-39580D01*
X63470Y-39580D02*
X66030Y-39580D01*
X66030Y-39580D02*
X66030Y-41380D01*
X66030Y-41380D02*
X63470Y-41380D01*
G54D14*
X67450Y-40230D02*
X68350Y-40230D01*
X68350Y-40230D02*
X68350Y-40730D01*
X68350Y-40730D02*
X67450Y-40730D01*
X67450Y-40730D02*
X67450Y-40230D01*
X67450Y-40850D02*
X68350Y-40850D01*
X68350Y-40850D02*
X68350Y-41350D01*
X68350Y-41350D02*
X67450Y-41350D01*
X67450Y-41350D02*
X67450Y-40850D01*
X67450Y-42920D02*
X68350Y-42920D01*
X68350Y-42920D02*
X68350Y-43420D01*
X68350Y-43420D02*
X67450Y-43420D01*
X67450Y-43420D02*
X67450Y-42920D01*
X67450Y-44980D02*
X68350Y-44980D01*
X68350Y-44980D02*
X68350Y-45480D01*
X68350Y-45480D02*
X67450Y-45480D01*
X67450Y-45480D02*
X67450Y-44980D01*
X67450Y-47060D02*
X68350Y-47060D01*
X68350Y-47060D02*
X68350Y-47560D01*
X68350Y-47560D02*
X67450Y-47560D01*
X67450Y-47560D02*
X67450Y-47060D01*
X62055Y-40030D02*
X62055Y-40930D01*
X62055Y-40930D02*
X61555Y-40930D01*
X61555Y-40930D02*
X61555Y-40030D01*
X61555Y-40030D02*
X62055Y-40030D01*
X62055Y-42100D02*
X62055Y-43000D01*
X62055Y-43000D02*
X61555Y-43000D01*
X61555Y-43000D02*
X61555Y-42100D01*
X61555Y-42100D02*
X62055Y-42100D01*
X62055Y-44160D02*
X62055Y-45060D01*
X62055Y-45060D02*
X61555Y-45060D01*
X61555Y-45060D02*
X61555Y-44160D01*
X61555Y-44160D02*
X62055Y-44160D01*
X62055Y-46240D02*
X62055Y-47140D01*
X62055Y-47140D02*
X61555Y-47140D01*
X61555Y-47140D02*
X61555Y-46240D01*
X61555Y-46240D02*
X62055Y-46240D01*
X65750Y-40930D02*
X65750Y-40030D01*
X65750Y-40030D02*
X65100Y-40030D01*
X64400Y-40930D02*
X63750Y-40930D01*
X63750Y-40930D02*
X63750Y-40030D01*
X63750Y-40030D02*
X64400Y-40030D01*
X65100Y-40930D02*
X65750Y-40930D01*
X65750Y-43000D02*
X65750Y-42100D01*
X65750Y-42100D02*
X65100Y-42100D01*
X64400Y-43000D02*
X63750Y-43000D01*
X63750Y-43000D02*
X63750Y-42100D01*
X63750Y-42100D02*
X64400Y-42100D01*
X65100Y-43000D02*
X65750Y-43000D01*
X65750Y-45060D02*
X65750Y-44160D01*
X65750Y-44160D02*
X65100Y-44160D01*
X64400Y-45060D02*
X63750Y-45060D01*
X63750Y-45060D02*
X63750Y-44160D01*
X63750Y-44160D02*
X64400Y-44160D01*
X65100Y-45060D02*
X65750Y-45060D01*
X65750Y-47140D02*
X65750Y-46240D01*
X65750Y-46240D02*
X65100Y-46240D01*
X64400Y-47140D02*
X63750Y-47140D01*
X63750Y-47140D02*
X63750Y-46240D01*
X63750Y-46240D02*
X64400Y-46240D01*
X65100Y-47140D02*
X65750Y-47140D01*
G54D15*
X53740Y-37990D02*
X53740Y-38105D01*
X53740Y-37990D02*
X53855Y-37990D01*
X56500Y-37990D02*
X56385Y-37990D01*
X56500Y-37990D02*
X56500Y-38105D01*
X56500Y-40750D02*
X56385Y-40750D01*
X56500Y-40750D02*
X56500Y-40635D01*
X54130Y-40455D02*
G75*
G03X54130Y-40455I-95J0D01*
G74*
G01*
X53740Y-40750D02*
X53855Y-40750D01*
X53740Y-40750D02*
X53740Y-40635D01*
X54736Y-42829D02*
X54860Y-42829D01*
X53732Y-42829D02*
X54007Y-42829D01*
X53732Y-41570D02*
X54007Y-41570D01*
X54860Y-41570D02*
X54736Y-41570D01*
X52880Y-41570D02*
X53003Y-41570D01*
X54860Y-41570D02*
X54860Y-42830D01*
X52880Y-42830D02*
X53003Y-42830D01*
X52880Y-42830D02*
X52880Y-41570D01*
X55030Y-31700D02*
X57790Y-31700D01*
X57790Y-31700D02*
X57790Y-33240D01*
X57790Y-33240D02*
X55030Y-33240D01*
X55030Y-33240D02*
X55030Y-31700D01*
G54D14*
X56530Y-42180D02*
X56530Y-43080D01*
X56530Y-43080D02*
X56030Y-43080D01*
X56030Y-43080D02*
X56030Y-42180D01*
X56030Y-42180D02*
X56530Y-42180D01*
X57130Y-42180D02*
X57130Y-43080D01*
X57130Y-43080D02*
X56630Y-43080D01*
X56630Y-43080D02*
X56630Y-42180D01*
X56630Y-42180D02*
X57130Y-42180D01*
X51760Y-39020D02*
X52660Y-39020D01*
X52660Y-39020D02*
X52660Y-39520D01*
X52660Y-39520D02*
X51760Y-39520D01*
X51760Y-39520D02*
X51760Y-39020D01*
G54D12*
X61420Y-38180D02*
X61420Y-38440D01*
X61420Y-38180D02*
X59050Y-38180D01*
X59050Y-38180D02*
X59050Y-38440D01*
X61420Y-39560D02*
X61420Y-39300D01*
X61420Y-39560D02*
X59050Y-39560D01*
X59050Y-39560D02*
X59050Y-39300D01*
X48460Y-37125D02*
X48720Y-37125D01*
X48460Y-37125D02*
X48460Y-39495D01*
X48460Y-39495D02*
X48720Y-39495D01*
X49840Y-37125D02*
X49580Y-37125D01*
X49840Y-37125D02*
X49840Y-39495D01*
X49840Y-39495D02*
X49580Y-39495D01*
G54D14*
X55865Y-41390D02*
X55865Y-42290D01*
X55865Y-42290D02*
X55365Y-42290D01*
X55365Y-42290D02*
X55365Y-41390D01*
X55365Y-41390D02*
X55865Y-41390D01*
X57145Y-38435D02*
X57145Y-37535D01*
X57145Y-37535D02*
X57645Y-37535D01*
X57645Y-37535D02*
X57645Y-38435D01*
X57645Y-38435D02*
X57145Y-38435D01*
X54460Y-46230D02*
X54460Y-45330D01*
X54460Y-45330D02*
X54960Y-45330D01*
X54960Y-45330D02*
X54960Y-46230D01*
X54960Y-46230D02*
X54460Y-46230D01*
X55280Y-46230D02*
X55280Y-45330D01*
X55280Y-45330D02*
X55780Y-45330D01*
X55780Y-45330D02*
X55780Y-46230D01*
X55780Y-46230D02*
X55280Y-46230D01*
G54D17*
X53789Y-45185D02*
X53789Y-47545D01*
X53789Y-47545D02*
X51429Y-47545D01*
X51429Y-47545D02*
X51429Y-45185D01*
X51429Y-45185D02*
X53789Y-45185D01*
X58807Y-45185D02*
X58807Y-47545D01*
X58807Y-47545D02*
X56447Y-47545D01*
X56447Y-47545D02*
X56447Y-45185D01*
X56447Y-45185D02*
X58807Y-45185D01*
G54D12*
X48820Y-39715D02*
X48820Y-45974D01*
X48820Y-45974D02*
X50100Y-45974D01*
X50100Y-45974D02*
X50100Y-44793D01*
X50100Y-44793D02*
X60139Y-44793D01*
X60139Y-44793D02*
X60139Y-45974D01*
X60139Y-45974D02*
X61419Y-45974D01*
X61419Y-39715D02*
X61419Y-45974D01*
X48820Y-39715D02*
X61419Y-39715D01*
G54D14*
X53700Y-37485D02*
X52800Y-37485D01*
X52800Y-37485D02*
X52800Y-36985D01*
X52800Y-36985D02*
X53700Y-36985D01*
X53700Y-36985D02*
X53700Y-37485D01*
X53095Y-40705D02*
X52195Y-40705D01*
X52195Y-40705D02*
X52195Y-40205D01*
X52195Y-40205D02*
X53095Y-40205D01*
X53095Y-40205D02*
X53095Y-40705D01*
X48650Y-46405D02*
X48650Y-47305D01*
X48650Y-47305D02*
X49300Y-47305D01*
X50000Y-46405D02*
X50650Y-46405D01*
X50650Y-46405D02*
X50650Y-47305D01*
X50650Y-47305D02*
X50000Y-47305D01*
X49300Y-46405D02*
X48650Y-46405D01*
X50260Y-43375D02*
X51160Y-43375D01*
X51160Y-43375D02*
X51160Y-42725D01*
X50260Y-42025D02*
X50260Y-41375D01*
X50260Y-41375D02*
X51160Y-41375D01*
X51160Y-41375D02*
X51160Y-42025D01*
X50260Y-42725D02*
X50260Y-43375D01*
X52715Y-41975D02*
X51815Y-41975D01*
X51815Y-41975D02*
X51815Y-41475D01*
X51815Y-41475D02*
X52715Y-41475D01*
X52715Y-41475D02*
X52715Y-41975D01*
G54D12*
X52703Y-30622D02*
X51916Y-30622D01*
G54D10*
X54662Y-36763D02*
X54662Y-36380D01*
X54662Y-35021D02*
X54662Y-32935D01*
X50794Y-32256D02*
X50498Y-32256D01*
X49957Y-32935D02*
X49957Y-35317D01*
X50479Y-36763D02*
X54662Y-36763D01*
G54D14*
X51060Y-38320D02*
X51060Y-37420D01*
X51060Y-37420D02*
X51560Y-37420D01*
X51560Y-37420D02*
X51560Y-38320D01*
X51560Y-38320D02*
X51060Y-38320D01*
X49510Y-31965D02*
X49510Y-32865D01*
X49510Y-32865D02*
X49010Y-32865D01*
X49010Y-32865D02*
X49010Y-31965D01*
X49010Y-31965D02*
X49510Y-31965D01*
G54D13*
X55020Y-35265D02*
X59020Y-35265D01*
X55020Y-36265D02*
X59020Y-36265D01*
X59020Y-36265D02*
X59020Y-35265D01*
X55020Y-35265D02*
X55020Y-36265D01*
G54D18*
X59060Y-41980D02*
X59160Y-41980D01*
X59000Y-41990D02*
X59250Y-41990D01*
X59000Y-42000D02*
X59250Y-42000D01*
X58990Y-42010D02*
X59260Y-42010D01*
X58990Y-42020D02*
X59260Y-42020D01*
X58990Y-42030D02*
X59260Y-42030D01*
X58990Y-42040D02*
X59260Y-42040D01*
X58990Y-42050D02*
X59260Y-42050D01*
X58990Y-42060D02*
X59260Y-42060D01*
X58980Y-42070D02*
X59270Y-42070D01*
X58980Y-42080D02*
X59270Y-42080D01*
X58980Y-42090D02*
X59270Y-42090D01*
X58980Y-42100D02*
X59270Y-42100D01*
X58980Y-42110D02*
X59270Y-42110D01*
X58970Y-42120D02*
X59270Y-42120D01*
X58970Y-42130D02*
X59280Y-42130D01*
X58970Y-42140D02*
X59280Y-42140D01*
X58970Y-42150D02*
X59280Y-42150D01*
X58970Y-42160D02*
X59280Y-42160D01*
X58560Y-42170D02*
X58590Y-42170D01*
X58970Y-42170D02*
X59280Y-42170D01*
X59650Y-42170D02*
X59690Y-42170D01*
X58550Y-42180D02*
X58600Y-42180D01*
X58960Y-42180D02*
X59280Y-42180D01*
X59630Y-42180D02*
X59700Y-42180D01*
X58540Y-42190D02*
X58620Y-42190D01*
X58960Y-42190D02*
X59280Y-42190D01*
X59620Y-42190D02*
X59710Y-42190D01*
X58520Y-42200D02*
X58630Y-42200D01*
X58960Y-42200D02*
X59290Y-42200D01*
X59600Y-42200D02*
X59730Y-42200D01*
X58510Y-42210D02*
X58650Y-42210D01*
X58960Y-42210D02*
X59290Y-42210D01*
X59590Y-42210D02*
X59740Y-42210D01*
X58500Y-42220D02*
X58660Y-42220D01*
X58960Y-42220D02*
X59290Y-42220D01*
X59570Y-42220D02*
X59750Y-42220D01*
X58490Y-42230D02*
X58670Y-42230D01*
X58950Y-42230D02*
X59290Y-42230D01*
X59560Y-42230D02*
X59760Y-42230D01*
X58480Y-42240D02*
X58690Y-42240D01*
X58920Y-42240D02*
X59330Y-42240D01*
X59540Y-42240D02*
X59770Y-42240D01*
X58470Y-42250D02*
X58700Y-42250D01*
X58890Y-42250D02*
X59360Y-42250D01*
X59530Y-42250D02*
X59780Y-42250D01*
X58460Y-42260D02*
X58720Y-42260D01*
X58860Y-42260D02*
X59380Y-42260D01*
X59510Y-42260D02*
X59790Y-42260D01*
X58450Y-42270D02*
X58730Y-42270D01*
X58840Y-42270D02*
X59410Y-42270D01*
X59500Y-42270D02*
X59800Y-42270D01*
X58440Y-42280D02*
X58740Y-42280D01*
X58820Y-42280D02*
X59430Y-42280D01*
X59490Y-42280D02*
X59810Y-42280D01*
X58430Y-42290D02*
X58760Y-42290D01*
X58800Y-42290D02*
X59450Y-42290D01*
X59470Y-42290D02*
X59820Y-42290D01*
X58420Y-42300D02*
X58770Y-42300D01*
X58780Y-42300D02*
X59830Y-42300D01*
X58410Y-42310D02*
X59830Y-42310D01*
X58410Y-42320D02*
X59840Y-42320D01*
X58400Y-42330D02*
X59840Y-42330D01*
X58400Y-42340D02*
X59840Y-42340D01*
X58410Y-42350D02*
X59840Y-42350D01*
X58410Y-42360D02*
X59830Y-42360D01*
X58420Y-42370D02*
X59830Y-42370D01*
X58430Y-42380D02*
X59820Y-42380D01*
X58430Y-42390D02*
X59810Y-42390D01*
X58440Y-42400D02*
X59800Y-42400D01*
X58450Y-42410D02*
X59800Y-42410D01*
X58460Y-42420D02*
X59790Y-42420D01*
X58460Y-42430D02*
X59780Y-42430D01*
X58470Y-42440D02*
X59780Y-42440D01*
X58480Y-42450D02*
X59770Y-42450D01*
X58480Y-42460D02*
X59760Y-42460D01*
X58490Y-42470D02*
X59750Y-42470D01*
X58500Y-42480D02*
X59750Y-42480D01*
X58500Y-42490D02*
X59740Y-42490D01*
X58510Y-42500D02*
X59730Y-42500D01*
X58520Y-42510D02*
X59720Y-42510D01*
X58520Y-42520D02*
X59720Y-42520D01*
X58530Y-42530D02*
X59710Y-42530D01*
X58530Y-42540D02*
X59710Y-42540D01*
X58530Y-42550D02*
X59720Y-42550D01*
X58520Y-42560D02*
X59730Y-42560D01*
X58520Y-42570D02*
X59730Y-42570D01*
X58510Y-42580D02*
X59740Y-42580D01*
X58510Y-42590D02*
X59740Y-42590D01*
X58500Y-42600D02*
X59750Y-42600D01*
X58500Y-42610D02*
X59750Y-42610D01*
X58490Y-42620D02*
X59760Y-42620D01*
X58490Y-42630D02*
X59760Y-42630D01*
X58480Y-42640D02*
X59760Y-42640D01*
X58480Y-42650D02*
X59080Y-42650D01*
X59170Y-42650D02*
X59770Y-42650D01*
X58480Y-42660D02*
X59050Y-42660D01*
X59200Y-42660D02*
X59770Y-42660D01*
X58470Y-42670D02*
X59020Y-42670D01*
X59230Y-42670D02*
X59780Y-42670D01*
X58470Y-42680D02*
X59000Y-42680D01*
X59250Y-42680D02*
X59780Y-42680D01*
X58470Y-42690D02*
X58990Y-42690D01*
X59260Y-42690D02*
X59780Y-42690D01*
X58460Y-42700D02*
X58970Y-42700D01*
X59280Y-42700D02*
X59790Y-42700D01*
X58460Y-42710D02*
X58960Y-42710D01*
X59290Y-42710D02*
X59820Y-42710D01*
X58460Y-42720D02*
X58950Y-42720D01*
X59300Y-42720D02*
X59880Y-42720D01*
X58450Y-42730D02*
X58940Y-42730D01*
X59310Y-42730D02*
X59930Y-42730D01*
X58390Y-42740D02*
X58930Y-42740D01*
X59320Y-42740D02*
X59990Y-42740D01*
X58330Y-42750D02*
X58930Y-42750D01*
X59320Y-42750D02*
X60030Y-42750D01*
X58270Y-42760D02*
X58920Y-42760D01*
X59330Y-42760D02*
X60030Y-42760D01*
X58220Y-42770D02*
X58910Y-42770D01*
X59340Y-42770D02*
X60040Y-42770D01*
X58210Y-42780D02*
X58910Y-42780D01*
X59340Y-42780D02*
X60040Y-42780D01*
X58210Y-42790D02*
X58900Y-42790D01*
X59350Y-42790D02*
X60040Y-42790D01*
X58210Y-42800D02*
X58900Y-42800D01*
X59350Y-42800D02*
X60040Y-42800D01*
X58210Y-42810D02*
X58890Y-42810D01*
X59360Y-42810D02*
X60040Y-42810D01*
X58210Y-42820D02*
X58890Y-42820D01*
X59360Y-42820D02*
X60040Y-42820D01*
X58210Y-42830D02*
X58890Y-42830D01*
X59360Y-42830D02*
X60040Y-42830D01*
X58210Y-42840D02*
X58890Y-42840D01*
X59370Y-42840D02*
X60040Y-42840D01*
X58210Y-42850D02*
X58880Y-42850D01*
X59370Y-42850D02*
X60040Y-42850D01*
X58210Y-42860D02*
X58880Y-42860D01*
X59370Y-42860D02*
X60050Y-42860D01*
X58200Y-42870D02*
X58880Y-42870D01*
X59370Y-42870D02*
X60050Y-42870D01*
X58200Y-42880D02*
X58880Y-42880D01*
X59370Y-42880D02*
X60050Y-42880D01*
X58200Y-42890D02*
X58880Y-42890D01*
X59370Y-42890D02*
X60050Y-42890D01*
X58200Y-42900D02*
X58880Y-42900D01*
X59370Y-42900D02*
X60050Y-42900D01*
X58200Y-42910D02*
X58880Y-42910D01*
X59370Y-42910D02*
X60050Y-42910D01*
X58200Y-42920D02*
X58880Y-42920D01*
X59370Y-42920D02*
X60050Y-42920D01*
X58200Y-42930D02*
X58880Y-42930D01*
X59370Y-42930D02*
X60050Y-42930D01*
X58200Y-42940D02*
X58880Y-42940D01*
X59370Y-42940D02*
X60050Y-42940D01*
X58200Y-42950D02*
X58890Y-42950D01*
X59370Y-42950D02*
X60050Y-42950D01*
X58210Y-42960D02*
X58890Y-42960D01*
X59360Y-42960D02*
X60050Y-42960D01*
X58210Y-42970D02*
X58890Y-42970D01*
X59360Y-42970D02*
X60040Y-42970D01*
X58210Y-42980D02*
X58900Y-42980D01*
X59360Y-42980D02*
X60040Y-42980D01*
X58210Y-42990D02*
X58900Y-42990D01*
X59350Y-42990D02*
X60040Y-42990D01*
X58210Y-43000D02*
X58900Y-43000D01*
X59350Y-43000D02*
X60030Y-43000D01*
X58210Y-43010D02*
X58910Y-43010D01*
X59340Y-43010D02*
X59970Y-43010D01*
X58250Y-43020D02*
X58920Y-43020D01*
X59340Y-43020D02*
X59910Y-43020D01*
X58300Y-43030D02*
X58920Y-43030D01*
X59330Y-43030D02*
X59840Y-43030D01*
X58360Y-43040D02*
X58930Y-43040D01*
X59320Y-43040D02*
X59800Y-43040D01*
X58410Y-43050D02*
X58940Y-43050D01*
X59310Y-43050D02*
X59800Y-43050D01*
X58450Y-43060D02*
X58950Y-43060D01*
X59310Y-43060D02*
X59800Y-43060D01*
X58460Y-43070D02*
X58950Y-43070D01*
X59300Y-43070D02*
X59790Y-43070D01*
X58460Y-43080D02*
X58970Y-43080D01*
X59280Y-43080D02*
X59790Y-43080D01*
X58460Y-43090D02*
X58980Y-43090D01*
X59270Y-43090D02*
X59790Y-43090D01*
X58460Y-43100D02*
X58990Y-43100D01*
X59260Y-43100D02*
X59790Y-43100D01*
X58470Y-43110D02*
X59010Y-43110D01*
X59240Y-43110D02*
X59780Y-43110D01*
X58470Y-43120D02*
X59030Y-43120D01*
X59220Y-43120D02*
X59780Y-43120D01*
X58470Y-43130D02*
X59040Y-43130D01*
X59220Y-43130D02*
X59780Y-43130D01*
X58480Y-43140D02*
X59040Y-43140D01*
X59220Y-43140D02*
X59770Y-43140D01*
X58480Y-43150D02*
X59040Y-43150D01*
X59220Y-43150D02*
X59770Y-43150D01*
X58480Y-43160D02*
X59030Y-43160D01*
X59230Y-43160D02*
X59760Y-43160D01*
X58490Y-43170D02*
X59030Y-43170D01*
X59230Y-43170D02*
X59760Y-43170D01*
X58490Y-43180D02*
X59030Y-43180D01*
X59230Y-43180D02*
X59760Y-43180D01*
X58500Y-43190D02*
X59020Y-43190D01*
X59240Y-43190D02*
X59750Y-43190D01*
X58500Y-43200D02*
X59020Y-43200D01*
X59240Y-43200D02*
X59750Y-43200D01*
X58510Y-43210D02*
X59010Y-43210D01*
X59250Y-43210D02*
X59740Y-43210D01*
X58510Y-43220D02*
X59010Y-43220D01*
X59250Y-43220D02*
X59740Y-43220D01*
X58520Y-43230D02*
X59010Y-43230D01*
X59250Y-43230D02*
X59730Y-43230D01*
X58520Y-43240D02*
X59000Y-43240D01*
X59260Y-43240D02*
X59740Y-43240D01*
X58530Y-43250D02*
X59000Y-43250D01*
X59260Y-43250D02*
X59740Y-43250D01*
X58530Y-43260D02*
X59000Y-43260D01*
X59270Y-43260D02*
X59750Y-43260D01*
X58530Y-43270D02*
X58990Y-43270D01*
X59270Y-43270D02*
X59760Y-43270D01*
X58530Y-43280D02*
X58990Y-43280D01*
X59270Y-43280D02*
X59770Y-43280D01*
X58520Y-43290D02*
X58990Y-43290D01*
X59280Y-43290D02*
X59770Y-43290D01*
X58510Y-43300D02*
X58980Y-43300D01*
X59280Y-43300D02*
X59780Y-43300D01*
X58500Y-43310D02*
X58980Y-43310D01*
X59280Y-43310D02*
X59790Y-43310D01*
X58500Y-43320D02*
X58980Y-43320D01*
X59290Y-43320D02*
X59790Y-43320D01*
X58490Y-43330D02*
X58970Y-43330D01*
X59290Y-43330D02*
X59800Y-43330D01*
X58480Y-43340D02*
X58970Y-43340D01*
X59300Y-43340D02*
X59810Y-43340D01*
X58470Y-43350D02*
X58970Y-43350D01*
X59300Y-43350D02*
X59810Y-43350D01*
X58470Y-43360D02*
X58960Y-43360D01*
X59300Y-43360D02*
X59820Y-43360D01*
X58460Y-43370D02*
X58960Y-43370D01*
X59310Y-43370D02*
X59830Y-43370D01*
X58450Y-43380D02*
X58950Y-43380D01*
X59310Y-43380D02*
X59830Y-43380D01*
X58450Y-43390D02*
X58950Y-43390D01*
X59320Y-43390D02*
X59840Y-43390D01*
X58440Y-43400D02*
X58950Y-43400D01*
X59320Y-43400D02*
X59850Y-43400D01*
X58430Y-43410D02*
X58940Y-43410D01*
X59320Y-43410D02*
X59860Y-43410D01*
X58420Y-43420D02*
X58940Y-43420D01*
X59330Y-43420D02*
X59860Y-43420D01*
X58420Y-43430D02*
X58940Y-43430D01*
X59330Y-43430D02*
X59870Y-43430D01*
X58410Y-43440D02*
X58930Y-43440D01*
X59340Y-43440D02*
X59870Y-43440D01*
X58400Y-43450D02*
X58930Y-43450D01*
X59340Y-43450D02*
X59870Y-43450D01*
X58400Y-43460D02*
X58930Y-43460D01*
X59340Y-43460D02*
X59860Y-43460D01*
X58400Y-43470D02*
X58920Y-43470D01*
X59350Y-43470D02*
X59850Y-43470D01*
X58400Y-43480D02*
X58920Y-43480D01*
X59350Y-43480D02*
X59840Y-43480D01*
X58410Y-43490D02*
X58920Y-43490D01*
X59350Y-43490D02*
X59830Y-43490D01*
X58420Y-43500D02*
X58910Y-43500D01*
X59360Y-43500D02*
X59830Y-43500D01*
X58430Y-43510D02*
X58910Y-43510D01*
X59360Y-43510D02*
X59500Y-43510D01*
X59520Y-43510D02*
X59820Y-43510D01*
X58440Y-43520D02*
X58910Y-43520D01*
X59370Y-43520D02*
X59470Y-43520D01*
X59550Y-43520D02*
X59810Y-43520D01*
X58450Y-43530D02*
X58750Y-43530D01*
X58800Y-43530D02*
X58900Y-43530D01*
X59370Y-43530D02*
X59450Y-43530D01*
X59560Y-43530D02*
X59800Y-43530D01*
X58460Y-43540D02*
X58730Y-43540D01*
X58830Y-43540D02*
X58900Y-43540D01*
X59370Y-43540D02*
X59430Y-43540D01*
X59570Y-43540D02*
X59790Y-43540D01*
X58470Y-43550D02*
X58710Y-43550D01*
X58850Y-43550D02*
X58890Y-43550D01*
X59380Y-43550D02*
X59410Y-43550D01*
X59580Y-43550D02*
X59800Y-43550D01*
X58480Y-43560D02*
X58700Y-43560D01*
X58870Y-43560D02*
X58890Y-43560D01*
X59380Y-43560D02*
X59390Y-43560D01*
X59580Y-43560D02*
X59800Y-43560D01*
X58490Y-43570D02*
X58680Y-43570D01*
X59600Y-43570D02*
X59800Y-43570D01*
X58500Y-43580D02*
X58670Y-43580D01*
X59610Y-43580D02*
X59800Y-43580D01*
X58500Y-43590D02*
X58650Y-43590D01*
X59620Y-43590D02*
X59800Y-43590D01*
X58500Y-43600D02*
X58640Y-43600D01*
X59640Y-43600D02*
X59800Y-43600D01*
X58500Y-43610D02*
X58630Y-43610D01*
X59660Y-43610D02*
X59790Y-43610D01*
X58510Y-43620D02*
X58620Y-43620D01*
X59680Y-43620D02*
X59790Y-43620D01*
X58510Y-43630D02*
X58610Y-43630D01*
X59690Y-43630D02*
X59780Y-43630D01*
X58520Y-43640D02*
X58610Y-43640D01*
X59700Y-43640D02*
X59780Y-43640D01*
X58530Y-43650D02*
X58600Y-43650D01*
X59710Y-43650D02*
X59770Y-43650D01*
X58540Y-43660D02*
X58600Y-43660D01*
X59720Y-43660D02*
X59760Y-43660D01*
X58550Y-43670D02*
X58590Y-43670D01*
X59730Y-43670D02*
X59750Y-43670D01*
X58560Y-43680D02*
X58590Y-43680D01*
G54D19*
X67450Y-38620D02*
X66450Y-38620D01*
X66450Y-38620D02*
X66450Y-36620D01*
X66450Y-36620D02*
X67450Y-36620D01*
X67450Y-36620D02*
X67450Y-38620D01*
G54D14*
X61850Y-36050D02*
X62750Y-36050D01*
X62750Y-36050D02*
X62750Y-36550D01*
X62750Y-36550D02*
X61850Y-36550D01*
X61850Y-36550D02*
X61850Y-36050D01*
X61850Y-36640D02*
X62750Y-36640D01*
X62750Y-36640D02*
X62750Y-37140D01*
X62750Y-37140D02*
X61850Y-37140D01*
X61850Y-37140D02*
X61850Y-36640D01*
X67690Y-39275D02*
X68590Y-39275D01*
X68590Y-39275D02*
X68590Y-38625D01*
X67690Y-37925D02*
X67690Y-37275D01*
X67690Y-37275D02*
X68590Y-37275D01*
X68590Y-37275D02*
X68590Y-37925D01*
X67690Y-38625D02*
X67690Y-39275D01*
X63935Y-36820D02*
X63885Y-36820D01*
X63885Y-36820D02*
X63885Y-38920D01*
X65385Y-38920D02*
X65385Y-36820D01*
X65385Y-36820D02*
X63935Y-36820D01*
X64835Y-36820D02*
X64835Y-37020D01*
X64835Y-37020D02*
X64435Y-37020D01*
X64435Y-37020D02*
X64435Y-36820D01*
X65385Y-38920D02*
X63885Y-38920D01*
X60505Y-37230D02*
X60705Y-36930D01*
X60505Y-37930D02*
X60505Y-36905D01*
X60505Y-36905D02*
X61105Y-36905D01*
X61105Y-36905D02*
X61105Y-37930D01*
X61105Y-37930D02*
X60505Y-37930D01*
G54D18*
X50676Y-43568D02*
X51326Y-43568D01*
X50666Y-43578D02*
X51326Y-43578D01*
X50656Y-43588D02*
X51326Y-43588D01*
X50646Y-43598D02*
X51326Y-43598D01*
X50636Y-43608D02*
X51326Y-43608D01*
X50626Y-43618D02*
X51326Y-43618D01*
X50616Y-43628D02*
X51326Y-43628D01*
X52006Y-43628D02*
X52016Y-43628D01*
X50606Y-43638D02*
X50726Y-43638D01*
X51996Y-43638D02*
X52026Y-43638D01*
X50596Y-43648D02*
X50716Y-43648D01*
X51996Y-43648D02*
X52026Y-43648D01*
X50586Y-43658D02*
X50706Y-43658D01*
X51986Y-43658D02*
X52036Y-43658D01*
X50576Y-43668D02*
X50696Y-43668D01*
X50726Y-43668D02*
X51386Y-43668D01*
X51986Y-43668D02*
X52036Y-43668D01*
X50566Y-43678D02*
X50686Y-43678D01*
X50716Y-43678D02*
X51386Y-43678D01*
X51976Y-43678D02*
X52046Y-43678D01*
X50556Y-43688D02*
X50676Y-43688D01*
X50706Y-43688D02*
X51366Y-43688D01*
X51376Y-43688D02*
X51386Y-43688D01*
X51976Y-43688D02*
X52046Y-43688D01*
X50546Y-43698D02*
X50666Y-43698D01*
X50696Y-43698D02*
X51356Y-43698D01*
X51376Y-43698D02*
X51386Y-43698D01*
X51966Y-43698D02*
X52056Y-43698D01*
X50536Y-43708D02*
X50656Y-43708D01*
X50686Y-43708D02*
X51346Y-43708D01*
X51376Y-43708D02*
X51386Y-43708D01*
X51966Y-43708D02*
X52056Y-43708D01*
X50526Y-43718D02*
X50646Y-43718D01*
X50676Y-43718D02*
X51336Y-43718D01*
X51376Y-43718D02*
X51386Y-43718D01*
X51956Y-43718D02*
X52066Y-43718D01*
X50516Y-43728D02*
X50636Y-43728D01*
X50666Y-43728D02*
X51326Y-43728D01*
X51376Y-43728D02*
X51386Y-43728D01*
X51956Y-43728D02*
X52066Y-43728D01*
X50506Y-43738D02*
X50626Y-43738D01*
X50656Y-43738D02*
X51316Y-43738D01*
X51376Y-43738D02*
X51386Y-43738D01*
X51946Y-43738D02*
X52076Y-43738D01*
X50496Y-43748D02*
X50616Y-43748D01*
X50646Y-43748D02*
X51306Y-43748D01*
X51376Y-43748D02*
X51386Y-43748D01*
X51946Y-43748D02*
X52076Y-43748D01*
X50486Y-43758D02*
X50606Y-43758D01*
X50636Y-43758D02*
X51296Y-43758D01*
X51356Y-43758D02*
X51386Y-43758D01*
X51936Y-43758D02*
X52086Y-43758D01*
X50476Y-43768D02*
X50596Y-43768D01*
X50626Y-43768D02*
X51286Y-43768D01*
X51356Y-43768D02*
X51386Y-43768D01*
X51936Y-43768D02*
X52086Y-43768D01*
X50476Y-43778D02*
X50596Y-43778D01*
X50616Y-43778D02*
X51276Y-43778D01*
X51336Y-43778D02*
X51386Y-43778D01*
X51926Y-43778D02*
X52096Y-43778D01*
X50476Y-43788D02*
X50586Y-43788D01*
X50606Y-43788D02*
X51266Y-43788D01*
X51326Y-43788D02*
X51386Y-43788D01*
X51926Y-43788D02*
X52096Y-43788D01*
X52946Y-43788D02*
X53046Y-43788D01*
X53116Y-43788D02*
X53216Y-43788D01*
X53616Y-43788D02*
X53726Y-43788D01*
X54126Y-43788D02*
X54306Y-43788D01*
X54526Y-43788D02*
X54626Y-43788D01*
X54836Y-43788D02*
X54976Y-43788D01*
X50476Y-43798D02*
X50566Y-43798D01*
X50596Y-43798D02*
X51256Y-43798D01*
X51316Y-43798D02*
X51386Y-43798D01*
X51916Y-43798D02*
X52106Y-43798D01*
X52526Y-43798D02*
X52696Y-43798D01*
X52946Y-43798D02*
X53046Y-43798D01*
X53116Y-43798D02*
X53216Y-43798D01*
X53606Y-43798D02*
X53726Y-43798D01*
X54096Y-43798D02*
X54346Y-43798D01*
X54526Y-43798D02*
X54626Y-43798D01*
X54826Y-43798D02*
X54966Y-43798D01*
X50476Y-43808D02*
X50566Y-43808D01*
X50586Y-43808D02*
X51246Y-43808D01*
X51306Y-43808D02*
X51386Y-43808D01*
X51916Y-43808D02*
X52106Y-43808D01*
X52486Y-43808D02*
X52726Y-43808D01*
X52946Y-43808D02*
X53046Y-43808D01*
X53116Y-43808D02*
X53216Y-43808D01*
X53606Y-43808D02*
X53736Y-43808D01*
X54076Y-43808D02*
X54366Y-43808D01*
X54526Y-43808D02*
X54626Y-43808D01*
X54816Y-43808D02*
X54956Y-43808D01*
X50476Y-43818D02*
X50556Y-43818D01*
X50576Y-43818D02*
X51236Y-43818D01*
X51296Y-43818D02*
X51386Y-43818D01*
X51906Y-43818D02*
X52116Y-43818D01*
X52466Y-43818D02*
X52756Y-43818D01*
X52946Y-43818D02*
X53046Y-43818D01*
X53116Y-43818D02*
X53216Y-43818D01*
X53606Y-43818D02*
X53736Y-43818D01*
X54056Y-43818D02*
X54386Y-43818D01*
X54526Y-43818D02*
X54626Y-43818D01*
X54806Y-43818D02*
X54946Y-43818D01*
X50476Y-43828D02*
X50546Y-43828D01*
X50576Y-43828D02*
X51226Y-43828D01*
X51286Y-43828D02*
X51366Y-43828D01*
X51376Y-43828D02*
X51386Y-43828D01*
X51906Y-43828D02*
X52116Y-43828D01*
X52446Y-43828D02*
X52776Y-43828D01*
X52946Y-43828D02*
X53046Y-43828D01*
X53116Y-43828D02*
X53216Y-43828D01*
X53596Y-43828D02*
X53736Y-43828D01*
X54036Y-43828D02*
X54386Y-43828D01*
X54526Y-43828D02*
X54626Y-43828D01*
X54796Y-43828D02*
X54936Y-43828D01*
X50476Y-43838D02*
X50546Y-43838D01*
X50576Y-43838D02*
X51216Y-43838D01*
X51276Y-43838D02*
X51356Y-43838D01*
X51376Y-43838D02*
X51386Y-43838D01*
X51896Y-43838D02*
X52126Y-43838D01*
X52436Y-43838D02*
X52796Y-43838D01*
X52946Y-43838D02*
X53046Y-43838D01*
X53116Y-43838D02*
X53216Y-43838D01*
X53596Y-43838D02*
X53746Y-43838D01*
X54026Y-43838D02*
X54386Y-43838D01*
X54526Y-43838D02*
X54626Y-43838D01*
X54786Y-43838D02*
X54926Y-43838D01*
X50476Y-43848D02*
X50546Y-43848D01*
X50576Y-43848D02*
X51206Y-43848D01*
X51266Y-43848D02*
X51346Y-43848D01*
X51376Y-43848D02*
X51386Y-43848D01*
X51896Y-43848D02*
X52126Y-43848D01*
X52416Y-43848D02*
X52806Y-43848D01*
X52946Y-43848D02*
X53046Y-43848D01*
X53116Y-43848D02*
X53216Y-43848D01*
X53596Y-43848D02*
X53746Y-43848D01*
X54006Y-43848D02*
X54376Y-43848D01*
X54526Y-43848D02*
X54626Y-43848D01*
X54776Y-43848D02*
X54916Y-43848D01*
X50476Y-43858D02*
X50546Y-43858D01*
X50576Y-43858D02*
X51196Y-43858D01*
X51256Y-43858D02*
X51336Y-43858D01*
X51376Y-43858D02*
X51386Y-43858D01*
X51886Y-43858D02*
X52136Y-43858D01*
X52406Y-43858D02*
X52806Y-43858D01*
X52946Y-43858D02*
X53046Y-43858D01*
X53116Y-43858D02*
X53216Y-43858D01*
X53586Y-43858D02*
X53756Y-43858D01*
X53996Y-43858D02*
X54376Y-43858D01*
X54526Y-43858D02*
X54626Y-43858D01*
X54776Y-43858D02*
X54906Y-43858D01*
X50476Y-43868D02*
X50546Y-43868D01*
X50576Y-43868D02*
X51186Y-43868D01*
X51246Y-43868D02*
X51326Y-43868D01*
X51376Y-43868D02*
X51386Y-43868D01*
X51886Y-43868D02*
X52136Y-43868D01*
X52396Y-43868D02*
X52806Y-43868D01*
X52946Y-43868D02*
X53046Y-43868D01*
X53116Y-43868D02*
X53216Y-43868D01*
X53586Y-43868D02*
X53756Y-43868D01*
X53986Y-43868D02*
X54366Y-43868D01*
X54526Y-43868D02*
X54626Y-43868D01*
X54766Y-43868D02*
X54896Y-43868D01*
X50476Y-43878D02*
X50546Y-43878D01*
X50576Y-43878D02*
X51176Y-43878D01*
X51236Y-43878D02*
X51316Y-43878D01*
X51366Y-43878D02*
X51386Y-43878D01*
X51876Y-43878D02*
X52146Y-43878D01*
X52386Y-43878D02*
X52796Y-43878D01*
X52946Y-43878D02*
X53046Y-43878D01*
X53116Y-43878D02*
X53216Y-43878D01*
X53586Y-43878D02*
X53756Y-43878D01*
X53986Y-43878D02*
X54366Y-43878D01*
X54526Y-43878D02*
X54626Y-43878D01*
X54756Y-43878D02*
X54886Y-43878D01*
X50476Y-43888D02*
X50546Y-43888D01*
X50576Y-43888D02*
X51166Y-43888D01*
X51226Y-43888D02*
X51306Y-43888D01*
X51356Y-43888D02*
X51386Y-43888D01*
X51876Y-43888D02*
X52146Y-43888D01*
X52376Y-43888D02*
X52786Y-43888D01*
X52946Y-43888D02*
X53046Y-43888D01*
X53116Y-43888D02*
X53216Y-43888D01*
X53576Y-43888D02*
X53766Y-43888D01*
X53976Y-43888D02*
X54156Y-43888D01*
X54296Y-43888D02*
X54366Y-43888D01*
X54526Y-43888D02*
X54626Y-43888D01*
X54746Y-43888D02*
X54876Y-43888D01*
X50476Y-43898D02*
X50546Y-43898D01*
X50576Y-43898D02*
X51156Y-43898D01*
X51216Y-43898D02*
X51296Y-43898D01*
X51346Y-43898D02*
X51386Y-43898D01*
X51866Y-43898D02*
X52006Y-43898D01*
X52016Y-43898D02*
X52156Y-43898D01*
X52376Y-43898D02*
X52556Y-43898D01*
X52676Y-43898D02*
X52786Y-43898D01*
X52946Y-43898D02*
X53046Y-43898D01*
X53116Y-43898D02*
X53216Y-43898D01*
X53576Y-43898D02*
X53766Y-43898D01*
X53966Y-43898D02*
X54136Y-43898D01*
X54326Y-43898D02*
X54356Y-43898D01*
X54526Y-43898D02*
X54626Y-43898D01*
X54736Y-43898D02*
X54866Y-43898D01*
X50476Y-43908D02*
X50546Y-43908D01*
X50576Y-43908D02*
X50936Y-43908D01*
X51016Y-43908D02*
X51146Y-43908D01*
X51206Y-43908D02*
X51286Y-43908D01*
X51336Y-43908D02*
X51386Y-43908D01*
X51866Y-43908D02*
X52006Y-43908D01*
X52016Y-43908D02*
X52156Y-43908D01*
X52366Y-43908D02*
X52526Y-43908D01*
X52716Y-43908D02*
X52776Y-43908D01*
X52946Y-43908D02*
X53046Y-43908D01*
X53116Y-43908D02*
X53216Y-43908D01*
X53566Y-43908D02*
X53766Y-43908D01*
X53956Y-43908D02*
X54116Y-43908D01*
X54526Y-43908D02*
X54626Y-43908D01*
X54726Y-43908D02*
X54866Y-43908D01*
X50476Y-43918D02*
X50546Y-43918D01*
X50576Y-43918D02*
X50906Y-43918D01*
X51046Y-43918D02*
X51136Y-43918D01*
X51196Y-43918D02*
X51276Y-43918D01*
X51326Y-43918D02*
X51386Y-43918D01*
X51856Y-43918D02*
X51996Y-43918D01*
X52026Y-43918D02*
X52166Y-43918D01*
X52356Y-43918D02*
X52516Y-43918D01*
X52736Y-43918D02*
X52776Y-43918D01*
X52946Y-43918D02*
X53046Y-43918D01*
X53116Y-43918D02*
X53216Y-43918D01*
X53566Y-43918D02*
X53776Y-43918D01*
X53956Y-43918D02*
X54096Y-43918D01*
X54526Y-43918D02*
X54626Y-43918D01*
X54716Y-43918D02*
X54856Y-43918D01*
X50476Y-43928D02*
X50546Y-43928D01*
X50576Y-43928D02*
X50896Y-43928D01*
X51066Y-43928D02*
X51126Y-43928D01*
X51186Y-43928D02*
X51266Y-43928D01*
X51316Y-43928D02*
X51386Y-43928D01*
X51856Y-43928D02*
X51996Y-43928D01*
X52026Y-43928D02*
X52166Y-43928D01*
X52356Y-43928D02*
X52496Y-43928D01*
X52756Y-43928D02*
X52766Y-43928D01*
X52946Y-43928D02*
X53046Y-43928D01*
X53116Y-43928D02*
X53216Y-43928D01*
X53566Y-43928D02*
X53666Y-43928D01*
X53676Y-43928D02*
X53776Y-43928D01*
X53946Y-43928D02*
X54086Y-43928D01*
X54526Y-43928D02*
X54626Y-43928D01*
X54706Y-43928D02*
X54846Y-43928D01*
X50476Y-43938D02*
X50546Y-43938D01*
X50576Y-43938D02*
X50876Y-43938D01*
X51076Y-43938D02*
X51116Y-43938D01*
X51176Y-43938D02*
X51256Y-43938D01*
X51306Y-43938D02*
X51386Y-43938D01*
X51846Y-43938D02*
X51986Y-43938D01*
X52036Y-43938D02*
X52176Y-43938D01*
X52346Y-43938D02*
X52486Y-43938D01*
X52946Y-43938D02*
X53046Y-43938D01*
X53116Y-43938D02*
X53216Y-43938D01*
X53556Y-43938D02*
X53656Y-43938D01*
X53676Y-43938D02*
X53786Y-43938D01*
X53946Y-43938D02*
X54076Y-43938D01*
X54526Y-43938D02*
X54626Y-43938D01*
X54706Y-43938D02*
X54836Y-43938D01*
X50476Y-43948D02*
X50546Y-43948D01*
X50576Y-43948D02*
X50866Y-43948D01*
X51086Y-43948D02*
X51106Y-43948D01*
X51166Y-43948D02*
X51246Y-43948D01*
X51296Y-43948D02*
X51386Y-43948D01*
X51846Y-43948D02*
X51986Y-43948D01*
X52036Y-43948D02*
X52176Y-43948D01*
X52346Y-43948D02*
X52476Y-43948D01*
X52946Y-43948D02*
X53046Y-43948D01*
X53116Y-43948D02*
X53216Y-43948D01*
X53556Y-43948D02*
X53656Y-43948D01*
X53676Y-43948D02*
X53786Y-43948D01*
X53936Y-43948D02*
X54066Y-43948D01*
X54526Y-43948D02*
X54626Y-43948D01*
X54696Y-43948D02*
X54826Y-43948D01*
X50476Y-43958D02*
X50546Y-43958D01*
X50576Y-43958D02*
X50856Y-43958D01*
X50946Y-43958D02*
X51016Y-43958D01*
X51096Y-43958D02*
X51106Y-43958D01*
X51156Y-43958D02*
X51236Y-43958D01*
X51286Y-43958D02*
X51386Y-43958D01*
X51836Y-43958D02*
X51986Y-43958D01*
X52046Y-43958D02*
X52186Y-43958D01*
X52336Y-43958D02*
X52466Y-43958D01*
X52946Y-43958D02*
X53046Y-43958D01*
X53116Y-43958D02*
X53216Y-43958D01*
X53556Y-43958D02*
X53656Y-43958D01*
X53686Y-43958D02*
X53786Y-43958D01*
X53936Y-43958D02*
X54066Y-43958D01*
X54526Y-43958D02*
X54626Y-43958D01*
X54686Y-43958D02*
X54816Y-43958D01*
X50476Y-43968D02*
X50546Y-43968D01*
X50576Y-43968D02*
X50846Y-43968D01*
X50926Y-43968D02*
X51036Y-43968D01*
X51146Y-43968D02*
X51226Y-43968D01*
X51276Y-43968D02*
X51386Y-43968D01*
X51836Y-43968D02*
X51976Y-43968D01*
X52046Y-43968D02*
X52186Y-43968D01*
X52336Y-43968D02*
X52456Y-43968D01*
X52946Y-43968D02*
X53046Y-43968D01*
X53116Y-43968D02*
X53216Y-43968D01*
X53546Y-43968D02*
X53646Y-43968D01*
X53686Y-43968D02*
X53796Y-43968D01*
X53936Y-43968D02*
X54056Y-43968D01*
X54526Y-43968D02*
X54626Y-43968D01*
X54676Y-43968D02*
X54806Y-43968D01*
X50476Y-43978D02*
X50546Y-43978D01*
X50576Y-43978D02*
X50836Y-43978D01*
X50916Y-43978D02*
X51046Y-43978D01*
X51136Y-43978D02*
X51216Y-43978D01*
X51266Y-43978D02*
X51386Y-43978D01*
X51826Y-43978D02*
X51976Y-43978D01*
X52056Y-43978D02*
X52196Y-43978D01*
X52336Y-43978D02*
X52456Y-43978D01*
X52946Y-43978D02*
X53046Y-43978D01*
X53116Y-43978D02*
X53216Y-43978D01*
X53546Y-43978D02*
X53646Y-43978D01*
X53686Y-43978D02*
X53796Y-43978D01*
X53936Y-43978D02*
X54056Y-43978D01*
X54526Y-43978D02*
X54626Y-43978D01*
X54666Y-43978D02*
X54796Y-43978D01*
X50476Y-43988D02*
X50546Y-43988D01*
X50576Y-43988D02*
X50826Y-43988D01*
X50906Y-43988D02*
X51056Y-43988D01*
X51136Y-43988D02*
X51206Y-43988D01*
X51256Y-43988D02*
X51386Y-43988D01*
X51826Y-43988D02*
X51966Y-43988D01*
X52056Y-43988D02*
X52206Y-43988D01*
X52336Y-43988D02*
X52446Y-43988D01*
X52946Y-43988D02*
X53046Y-43988D01*
X53116Y-43988D02*
X53216Y-43988D01*
X53536Y-43988D02*
X53646Y-43988D01*
X53696Y-43988D02*
X53796Y-43988D01*
X53926Y-43988D02*
X54046Y-43988D01*
X54526Y-43988D02*
X54626Y-43988D01*
X54656Y-43988D02*
X54786Y-43988D01*
X50476Y-43998D02*
X50546Y-43998D01*
X50576Y-43998D02*
X50816Y-43998D01*
X50896Y-43998D02*
X51066Y-43998D01*
X51136Y-43998D02*
X51196Y-43998D01*
X51246Y-43998D02*
X51386Y-43998D01*
X51816Y-43998D02*
X51966Y-43998D01*
X52066Y-43998D02*
X52206Y-43998D01*
X52326Y-43998D02*
X52446Y-43998D01*
X52946Y-43998D02*
X53046Y-43998D01*
X53116Y-43998D02*
X53216Y-43998D01*
X53536Y-43998D02*
X53636Y-43998D01*
X53696Y-43998D02*
X53806Y-43998D01*
X53926Y-43998D02*
X54046Y-43998D01*
X54526Y-43998D02*
X54626Y-43998D01*
X54646Y-43998D02*
X54776Y-43998D01*
X50476Y-44008D02*
X50546Y-44008D01*
X50576Y-44008D02*
X50806Y-44008D01*
X50896Y-44008D02*
X51066Y-44008D01*
X51136Y-44008D02*
X51176Y-44008D01*
X51236Y-44008D02*
X51386Y-44008D01*
X51816Y-44008D02*
X51956Y-44008D01*
X52066Y-44008D02*
X52216Y-44008D01*
X52326Y-44008D02*
X52446Y-44008D01*
X52946Y-44008D02*
X53046Y-44008D01*
X53116Y-44008D02*
X53216Y-44008D01*
X53536Y-44008D02*
X53636Y-44008D01*
X53696Y-44008D02*
X53806Y-44008D01*
X53926Y-44008D02*
X54036Y-44008D01*
X54526Y-44008D02*
X54626Y-44008D01*
X54636Y-44008D02*
X54766Y-44008D01*
X50476Y-44018D02*
X50546Y-44018D01*
X50576Y-44018D02*
X50796Y-44018D01*
X50886Y-44018D02*
X51066Y-44018D01*
X51136Y-44018D02*
X51166Y-44018D01*
X51226Y-44018D02*
X51386Y-44018D01*
X51806Y-44018D02*
X51956Y-44018D01*
X52076Y-44018D02*
X52216Y-44018D01*
X52326Y-44018D02*
X52436Y-44018D01*
X52946Y-44018D02*
X53046Y-44018D01*
X53116Y-44018D02*
X53216Y-44018D01*
X53526Y-44018D02*
X53636Y-44018D01*
X53706Y-44018D02*
X53806Y-44018D01*
X53926Y-44018D02*
X54036Y-44018D01*
X54526Y-44018D02*
X54626Y-44018D01*
X54636Y-44018D02*
X54756Y-44018D01*
X50476Y-44028D02*
X50546Y-44028D01*
X50576Y-44028D02*
X50786Y-44028D01*
X50886Y-44028D02*
X51076Y-44028D01*
X51136Y-44028D02*
X51156Y-44028D01*
X51216Y-44028D02*
X51386Y-44028D01*
X51806Y-44028D02*
X51946Y-44028D01*
X52076Y-44028D02*
X52226Y-44028D01*
X52326Y-44028D02*
X52436Y-44028D01*
X52946Y-44028D02*
X53046Y-44028D01*
X53116Y-44028D02*
X53216Y-44028D01*
X53526Y-44028D02*
X53626Y-44028D01*
X53706Y-44028D02*
X53816Y-44028D01*
X53926Y-44028D02*
X54036Y-44028D01*
X54526Y-44028D02*
X54746Y-44028D01*
X50476Y-44038D02*
X50546Y-44038D01*
X50576Y-44038D02*
X50776Y-44038D01*
X50886Y-44038D02*
X51076Y-44038D01*
X51136Y-44038D02*
X51146Y-44038D01*
X51206Y-44038D02*
X51386Y-44038D01*
X51796Y-44038D02*
X51946Y-44038D01*
X52086Y-44038D02*
X52226Y-44038D01*
X52326Y-44038D02*
X52436Y-44038D01*
X52576Y-44038D02*
X52826Y-44038D01*
X52946Y-44038D02*
X53046Y-44038D01*
X53116Y-44038D02*
X53216Y-44038D01*
X53526Y-44038D02*
X53626Y-44038D01*
X53706Y-44038D02*
X53816Y-44038D01*
X53926Y-44038D02*
X54036Y-44038D01*
X54526Y-44038D02*
X54736Y-44038D01*
X50476Y-44048D02*
X50546Y-44048D01*
X50576Y-44048D02*
X50766Y-44048D01*
X50886Y-44048D02*
X51076Y-44048D01*
X51196Y-44048D02*
X51386Y-44048D01*
X51796Y-44048D02*
X51936Y-44048D01*
X52086Y-44048D02*
X52236Y-44048D01*
X52326Y-44048D02*
X52436Y-44048D01*
X52576Y-44048D02*
X52826Y-44048D01*
X52946Y-44048D02*
X53046Y-44048D01*
X53116Y-44048D02*
X53216Y-44048D01*
X53516Y-44048D02*
X53626Y-44048D01*
X53716Y-44048D02*
X53826Y-44048D01*
X53926Y-44048D02*
X54036Y-44048D01*
X54526Y-44048D02*
X54736Y-44048D01*
X50476Y-44058D02*
X50546Y-44058D01*
X50576Y-44058D02*
X50756Y-44058D01*
X50886Y-44058D02*
X51076Y-44058D01*
X51186Y-44058D02*
X51386Y-44058D01*
X51786Y-44058D02*
X51936Y-44058D01*
X52096Y-44058D02*
X52236Y-44058D01*
X52326Y-44058D02*
X52436Y-44058D01*
X52576Y-44058D02*
X52826Y-44058D01*
X52946Y-44058D02*
X53046Y-44058D01*
X53116Y-44058D02*
X53216Y-44058D01*
X53516Y-44058D02*
X53616Y-44058D01*
X53716Y-44058D02*
X53826Y-44058D01*
X53926Y-44058D02*
X54036Y-44058D01*
X54526Y-44058D02*
X54746Y-44058D01*
X50476Y-44068D02*
X50546Y-44068D01*
X50576Y-44068D02*
X50746Y-44068D01*
X50816Y-44068D02*
X50826Y-44068D01*
X50886Y-44068D02*
X51076Y-44068D01*
X51176Y-44068D02*
X51386Y-44068D01*
X51786Y-44068D02*
X51926Y-44068D01*
X52096Y-44068D02*
X52246Y-44068D01*
X52326Y-44068D02*
X52436Y-44068D01*
X52576Y-44068D02*
X52826Y-44068D01*
X52946Y-44068D02*
X53046Y-44068D01*
X53116Y-44068D02*
X53216Y-44068D01*
X53516Y-44068D02*
X53616Y-44068D01*
X53716Y-44068D02*
X53826Y-44068D01*
X53926Y-44068D02*
X54036Y-44068D01*
X54526Y-44068D02*
X54756Y-44068D01*
X50476Y-44078D02*
X50546Y-44078D01*
X50576Y-44078D02*
X50736Y-44078D01*
X50806Y-44078D02*
X50826Y-44078D01*
X50886Y-44078D02*
X51076Y-44078D01*
X51166Y-44078D02*
X51386Y-44078D01*
X51776Y-44078D02*
X51926Y-44078D01*
X52106Y-44078D02*
X52246Y-44078D01*
X52326Y-44078D02*
X52436Y-44078D01*
X52576Y-44078D02*
X52826Y-44078D01*
X52946Y-44078D02*
X53046Y-44078D01*
X53116Y-44078D02*
X53216Y-44078D01*
X53506Y-44078D02*
X53616Y-44078D01*
X53726Y-44078D02*
X53836Y-44078D01*
X53926Y-44078D02*
X54036Y-44078D01*
X54526Y-44078D02*
X54766Y-44078D01*
X50476Y-44088D02*
X50546Y-44088D01*
X50576Y-44088D02*
X50726Y-44088D01*
X50796Y-44088D02*
X50826Y-44088D01*
X50886Y-44088D02*
X51076Y-44088D01*
X51156Y-44088D02*
X51386Y-44088D01*
X51776Y-44088D02*
X51926Y-44088D01*
X52106Y-44088D02*
X52256Y-44088D01*
X52326Y-44088D02*
X52436Y-44088D01*
X52576Y-44088D02*
X52826Y-44088D01*
X52946Y-44088D02*
X53046Y-44088D01*
X53116Y-44088D02*
X53216Y-44088D01*
X53506Y-44088D02*
X53606Y-44088D01*
X53726Y-44088D02*
X53836Y-44088D01*
X53926Y-44088D02*
X54036Y-44088D01*
X54526Y-44088D02*
X54626Y-44088D01*
X54636Y-44088D02*
X54766Y-44088D01*
X50476Y-44098D02*
X50546Y-44098D01*
X50576Y-44098D02*
X50716Y-44098D01*
X50786Y-44098D02*
X50826Y-44098D01*
X50886Y-44098D02*
X51066Y-44098D01*
X51146Y-44098D02*
X51386Y-44098D01*
X51766Y-44098D02*
X51916Y-44098D01*
X52116Y-44098D02*
X52256Y-44098D01*
X52326Y-44098D02*
X52436Y-44098D01*
X52576Y-44098D02*
X52826Y-44098D01*
X52946Y-44098D02*
X53046Y-44098D01*
X53116Y-44098D02*
X53216Y-44098D01*
X53496Y-44098D02*
X53606Y-44098D01*
X53726Y-44098D02*
X53836Y-44098D01*
X53926Y-44098D02*
X54036Y-44098D01*
X54526Y-44098D02*
X54626Y-44098D01*
X54646Y-44098D02*
X54776Y-44098D01*
X50476Y-44108D02*
X50546Y-44108D01*
X50576Y-44108D02*
X50706Y-44108D01*
X50776Y-44108D02*
X50826Y-44108D01*
X50896Y-44108D02*
X51066Y-44108D01*
X51136Y-44108D02*
X51386Y-44108D01*
X51766Y-44108D02*
X51916Y-44108D01*
X52116Y-44108D02*
X52266Y-44108D01*
X52326Y-44108D02*
X52436Y-44108D01*
X52576Y-44108D02*
X52826Y-44108D01*
X52946Y-44108D02*
X53046Y-44108D01*
X53116Y-44108D02*
X53216Y-44108D01*
X53496Y-44108D02*
X53846Y-44108D01*
X53926Y-44108D02*
X54036Y-44108D01*
X54526Y-44108D02*
X54626Y-44108D01*
X54656Y-44108D02*
X54786Y-44108D01*
X50476Y-44118D02*
X50546Y-44118D01*
X50576Y-44118D02*
X50696Y-44118D01*
X50766Y-44118D02*
X50826Y-44118D01*
X50896Y-44118D02*
X51056Y-44118D01*
X51126Y-44118D02*
X51386Y-44118D01*
X51756Y-44118D02*
X51906Y-44118D01*
X52126Y-44118D02*
X52266Y-44118D01*
X52326Y-44118D02*
X52436Y-44118D01*
X52576Y-44118D02*
X52826Y-44118D01*
X52946Y-44118D02*
X53046Y-44118D01*
X53116Y-44118D02*
X53216Y-44118D01*
X53496Y-44118D02*
X53846Y-44118D01*
X53926Y-44118D02*
X54046Y-44118D01*
X54526Y-44118D02*
X54626Y-44118D01*
X54666Y-44118D02*
X54796Y-44118D01*
X50476Y-44128D02*
X50546Y-44128D01*
X50576Y-44128D02*
X50686Y-44128D01*
X50756Y-44128D02*
X50826Y-44128D01*
X50906Y-44128D02*
X51056Y-44128D01*
X51116Y-44128D02*
X51386Y-44128D01*
X51756Y-44128D02*
X51906Y-44128D01*
X52126Y-44128D02*
X52276Y-44128D01*
X52326Y-44128D02*
X52446Y-44128D01*
X52726Y-44128D02*
X52826Y-44128D01*
X52946Y-44128D02*
X53046Y-44128D01*
X53116Y-44128D02*
X53216Y-44128D01*
X53486Y-44128D02*
X53846Y-44128D01*
X53926Y-44128D02*
X54046Y-44128D01*
X54526Y-44128D02*
X54626Y-44128D01*
X54666Y-44128D02*
X54806Y-44128D01*
X50476Y-44138D02*
X50546Y-44138D01*
X50576Y-44138D02*
X50676Y-44138D01*
X50746Y-44138D02*
X50816Y-44138D01*
X50916Y-44138D02*
X51036Y-44138D01*
X51106Y-44138D02*
X51386Y-44138D01*
X51746Y-44138D02*
X51896Y-44138D01*
X52136Y-44138D02*
X52276Y-44138D01*
X52326Y-44138D02*
X52446Y-44138D01*
X52726Y-44138D02*
X52826Y-44138D01*
X52946Y-44138D02*
X53046Y-44138D01*
X53116Y-44138D02*
X53216Y-44138D01*
X53486Y-44138D02*
X53856Y-44138D01*
X53926Y-44138D02*
X54046Y-44138D01*
X54526Y-44138D02*
X54626Y-44138D01*
X54676Y-44138D02*
X54816Y-44138D01*
X50476Y-44148D02*
X50546Y-44148D01*
X50576Y-44148D02*
X50666Y-44148D01*
X50736Y-44148D02*
X50806Y-44148D01*
X50936Y-44148D02*
X51026Y-44148D01*
X51096Y-44148D02*
X51386Y-44148D01*
X51746Y-44148D02*
X51896Y-44148D01*
X52136Y-44148D02*
X52286Y-44148D01*
X52336Y-44148D02*
X52446Y-44148D01*
X52726Y-44148D02*
X52826Y-44148D01*
X52946Y-44148D02*
X53046Y-44148D01*
X53116Y-44148D02*
X53216Y-44148D01*
X53486Y-44148D02*
X53856Y-44148D01*
X53936Y-44148D02*
X54056Y-44148D01*
X54526Y-44148D02*
X54626Y-44148D01*
X54686Y-44148D02*
X54826Y-44148D01*
X50476Y-44158D02*
X50546Y-44158D01*
X50576Y-44158D02*
X50666Y-44158D01*
X50726Y-44158D02*
X50796Y-44158D01*
X50856Y-44158D02*
X50866Y-44158D01*
X50966Y-44158D02*
X50986Y-44158D01*
X51096Y-44158D02*
X51386Y-44158D01*
X51736Y-44158D02*
X51886Y-44158D01*
X52146Y-44158D02*
X52286Y-44158D01*
X52336Y-44158D02*
X52456Y-44158D01*
X52726Y-44158D02*
X52826Y-44158D01*
X52946Y-44158D02*
X53046Y-44158D01*
X53116Y-44158D02*
X53216Y-44158D01*
X53476Y-44158D02*
X53866Y-44158D01*
X53936Y-44158D02*
X54056Y-44158D01*
X54526Y-44158D02*
X54626Y-44158D01*
X54696Y-44158D02*
X54836Y-44158D01*
X50476Y-44168D02*
X50546Y-44168D01*
X50576Y-44168D02*
X50656Y-44168D01*
X50716Y-44168D02*
X50786Y-44168D01*
X50846Y-44168D02*
X50876Y-44168D01*
X51086Y-44168D02*
X51386Y-44168D01*
X51736Y-44168D02*
X51886Y-44168D01*
X52146Y-44168D02*
X52296Y-44168D01*
X52336Y-44168D02*
X52466Y-44168D01*
X52726Y-44168D02*
X52826Y-44168D01*
X52946Y-44168D02*
X53046Y-44168D01*
X53116Y-44168D02*
X53216Y-44168D01*
X53476Y-44168D02*
X53866Y-44168D01*
X53936Y-44168D02*
X54066Y-44168D01*
X54526Y-44168D02*
X54626Y-44168D01*
X54706Y-44168D02*
X54846Y-44168D01*
X50476Y-44178D02*
X50546Y-44178D01*
X50576Y-44178D02*
X50646Y-44178D01*
X50706Y-44178D02*
X50776Y-44178D01*
X50836Y-44178D02*
X50886Y-44178D01*
X51066Y-44178D02*
X51386Y-44178D01*
X51726Y-44178D02*
X52096Y-44178D01*
X52156Y-44178D02*
X52296Y-44178D01*
X52336Y-44178D02*
X52466Y-44178D01*
X52726Y-44178D02*
X52826Y-44178D01*
X52946Y-44178D02*
X53046Y-44178D01*
X53116Y-44178D02*
X53216Y-44178D01*
X53476Y-44178D02*
X53866Y-44178D01*
X53946Y-44178D02*
X54076Y-44178D01*
X54526Y-44178D02*
X54626Y-44178D01*
X54716Y-44178D02*
X54856Y-44178D01*
X50476Y-44188D02*
X50546Y-44188D01*
X50576Y-44188D02*
X50636Y-44188D01*
X50696Y-44188D02*
X50766Y-44188D01*
X50826Y-44188D02*
X50896Y-44188D01*
X51056Y-44188D02*
X51386Y-44188D01*
X51726Y-44188D02*
X52096Y-44188D01*
X52156Y-44188D02*
X52306Y-44188D01*
X52346Y-44188D02*
X52476Y-44188D01*
X52726Y-44188D02*
X52826Y-44188D01*
X52946Y-44188D02*
X53046Y-44188D01*
X53116Y-44188D02*
X53216Y-44188D01*
X53466Y-44188D02*
X53876Y-44188D01*
X53946Y-44188D02*
X54086Y-44188D01*
X54526Y-44188D02*
X54626Y-44188D01*
X54726Y-44188D02*
X54856Y-44188D01*
X50476Y-44198D02*
X50546Y-44198D01*
X50576Y-44198D02*
X50626Y-44198D01*
X50686Y-44198D02*
X50756Y-44198D01*
X50816Y-44198D02*
X50926Y-44198D01*
X51036Y-44198D02*
X51386Y-44198D01*
X51716Y-44198D02*
X52106Y-44198D01*
X52166Y-44198D02*
X52306Y-44198D01*
X52346Y-44198D02*
X52486Y-44198D01*
X52726Y-44198D02*
X52826Y-44198D01*
X52946Y-44198D02*
X53046Y-44198D01*
X53116Y-44198D02*
X53216Y-44198D01*
X53466Y-44198D02*
X53576Y-44198D01*
X53766Y-44198D02*
X53876Y-44198D01*
X53946Y-44198D02*
X54096Y-44198D01*
X54526Y-44198D02*
X54626Y-44198D01*
X54726Y-44198D02*
X54866Y-44198D01*
X50476Y-44208D02*
X50546Y-44208D01*
X50576Y-44208D02*
X50616Y-44208D01*
X50676Y-44208D02*
X50746Y-44208D01*
X50806Y-44208D02*
X50956Y-44208D01*
X50996Y-44208D02*
X51386Y-44208D01*
X51716Y-44208D02*
X52106Y-44208D01*
X52166Y-44208D02*
X52316Y-44208D01*
X52356Y-44208D02*
X52496Y-44208D01*
X52726Y-44208D02*
X52826Y-44208D01*
X52946Y-44208D02*
X53046Y-44208D01*
X53116Y-44208D02*
X53216Y-44208D01*
X53456Y-44208D02*
X53566Y-44208D01*
X53766Y-44208D02*
X53876Y-44208D01*
X53956Y-44208D02*
X54106Y-44208D01*
X54526Y-44208D02*
X54626Y-44208D01*
X54736Y-44208D02*
X54876Y-44208D01*
X50476Y-44218D02*
X50546Y-44218D01*
X50576Y-44218D02*
X50606Y-44218D01*
X50666Y-44218D02*
X50736Y-44218D01*
X50796Y-44218D02*
X51386Y-44218D01*
X51706Y-44218D02*
X52116Y-44218D01*
X52176Y-44218D02*
X52316Y-44218D01*
X52356Y-44218D02*
X52506Y-44218D01*
X52726Y-44218D02*
X52826Y-44218D01*
X52946Y-44218D02*
X53046Y-44218D01*
X53116Y-44218D02*
X53216Y-44218D01*
X53456Y-44218D02*
X53566Y-44218D01*
X53766Y-44218D02*
X53886Y-44218D01*
X53966Y-44218D02*
X54116Y-44218D01*
X54526Y-44218D02*
X54626Y-44218D01*
X54746Y-44218D02*
X54886Y-44218D01*
X50476Y-44228D02*
X50546Y-44228D01*
X50576Y-44228D02*
X50596Y-44228D01*
X50656Y-44228D02*
X50726Y-44228D01*
X50786Y-44228D02*
X51386Y-44228D01*
X51706Y-44228D02*
X52116Y-44228D01*
X52176Y-44228D02*
X52326Y-44228D01*
X52366Y-44228D02*
X52516Y-44228D01*
X52716Y-44228D02*
X52826Y-44228D01*
X52946Y-44228D02*
X53046Y-44228D01*
X53116Y-44228D02*
X53216Y-44228D01*
X53456Y-44228D02*
X53566Y-44228D01*
X53776Y-44228D02*
X53886Y-44228D01*
X53966Y-44228D02*
X54136Y-44228D01*
X54326Y-44228D02*
X54366Y-44228D01*
X54526Y-44228D02*
X54626Y-44228D01*
X54756Y-44228D02*
X54896Y-44228D01*
X50476Y-44238D02*
X50546Y-44238D01*
X50576Y-44238D02*
X50586Y-44238D01*
X50646Y-44238D02*
X50716Y-44238D01*
X50776Y-44238D02*
X51386Y-44238D01*
X51696Y-44238D02*
X52126Y-44238D01*
X52186Y-44238D02*
X52326Y-44238D01*
X52366Y-44238D02*
X52536Y-44238D01*
X52706Y-44238D02*
X52826Y-44238D01*
X52946Y-44238D02*
X53046Y-44238D01*
X53116Y-44238D02*
X53216Y-44238D01*
X53446Y-44238D02*
X53556Y-44238D01*
X53776Y-44238D02*
X53896Y-44238D01*
X53976Y-44238D02*
X54166Y-44238D01*
X54296Y-44238D02*
X54366Y-44238D01*
X54526Y-44238D02*
X54626Y-44238D01*
X54766Y-44238D02*
X54906Y-44238D01*
X50476Y-44248D02*
X50546Y-44248D01*
X50576Y-44248D02*
X50586Y-44248D01*
X50636Y-44248D02*
X50706Y-44248D01*
X50766Y-44248D02*
X51386Y-44248D01*
X51696Y-44248D02*
X52126Y-44248D01*
X52186Y-44248D02*
X52336Y-44248D01*
X52376Y-44248D02*
X52566Y-44248D01*
X52676Y-44248D02*
X52826Y-44248D01*
X52946Y-44248D02*
X53046Y-44248D01*
X53116Y-44248D02*
X53556Y-44248D01*
X53776Y-44248D02*
X53896Y-44248D01*
X53986Y-44248D02*
X54376Y-44248D01*
X54526Y-44248D02*
X54626Y-44248D01*
X54776Y-44248D02*
X54916Y-44248D01*
X50476Y-44258D02*
X50546Y-44258D01*
X50576Y-44258D02*
X50586Y-44258D01*
X50626Y-44258D02*
X50696Y-44258D01*
X50756Y-44258D02*
X51386Y-44258D01*
X51686Y-44258D02*
X52136Y-44258D01*
X52196Y-44258D02*
X52336Y-44258D01*
X52386Y-44258D02*
X52826Y-44258D01*
X52946Y-44258D02*
X53046Y-44258D01*
X53116Y-44258D02*
X53546Y-44258D01*
X53786Y-44258D02*
X53896Y-44258D01*
X53986Y-44258D02*
X54376Y-44258D01*
X54526Y-44258D02*
X54626Y-44258D01*
X54786Y-44258D02*
X54926Y-44258D01*
X50476Y-44268D02*
X50546Y-44268D01*
X50576Y-44268D02*
X50586Y-44268D01*
X50616Y-44268D02*
X50686Y-44268D01*
X50746Y-44268D02*
X51386Y-44268D01*
X51686Y-44268D02*
X52136Y-44268D01*
X52196Y-44268D02*
X52346Y-44268D01*
X52396Y-44268D02*
X52826Y-44268D01*
X52946Y-44268D02*
X53046Y-44268D01*
X53116Y-44268D02*
X53546Y-44268D01*
X53786Y-44268D02*
X53906Y-44268D01*
X53996Y-44268D02*
X54386Y-44268D01*
X54526Y-44268D02*
X54626Y-44268D01*
X54796Y-44268D02*
X54936Y-44268D01*
X50476Y-44278D02*
X50546Y-44278D01*
X50576Y-44278D02*
X50586Y-44278D01*
X50606Y-44278D02*
X50676Y-44278D01*
X50736Y-44278D02*
X51386Y-44278D01*
X51676Y-44278D02*
X52146Y-44278D01*
X52206Y-44278D02*
X52346Y-44278D01*
X52406Y-44278D02*
X52826Y-44278D01*
X52946Y-44278D02*
X53046Y-44278D01*
X53116Y-44278D02*
X53546Y-44278D01*
X53796Y-44278D02*
X53906Y-44278D01*
X54006Y-44278D02*
X54386Y-44278D01*
X54526Y-44278D02*
X54626Y-44278D01*
X54796Y-44278D02*
X54946Y-44278D01*
X50476Y-44288D02*
X50536Y-44288D01*
X50576Y-44288D02*
X50586Y-44288D01*
X50596Y-44288D02*
X50666Y-44288D01*
X50726Y-44288D02*
X51386Y-44288D01*
X51676Y-44288D02*
X52146Y-44288D01*
X52206Y-44288D02*
X52356Y-44288D01*
X52406Y-44288D02*
X52816Y-44288D01*
X52946Y-44288D02*
X53046Y-44288D01*
X53116Y-44288D02*
X53536Y-44288D01*
X53796Y-44288D02*
X53906Y-44288D01*
X54026Y-44288D02*
X54386Y-44288D01*
X54526Y-44288D02*
X54626Y-44288D01*
X54806Y-44288D02*
X54946Y-44288D01*
X50476Y-44298D02*
X50526Y-44298D01*
X50576Y-44298D02*
X50656Y-44298D01*
X50716Y-44298D02*
X51376Y-44298D01*
X51676Y-44298D02*
X52146Y-44298D01*
X52216Y-44298D02*
X52356Y-44298D01*
X52426Y-44298D02*
X52806Y-44298D01*
X52946Y-44298D02*
X53046Y-44298D01*
X53116Y-44298D02*
X53536Y-44298D01*
X53796Y-44298D02*
X53916Y-44298D01*
X54036Y-44298D02*
X54396Y-44298D01*
X54526Y-44298D02*
X54626Y-44298D01*
X54816Y-44298D02*
X54956Y-44298D01*
X50476Y-44308D02*
X50516Y-44308D01*
X50576Y-44308D02*
X50646Y-44308D01*
X50706Y-44308D02*
X51366Y-44308D01*
X52216Y-44308D02*
X52366Y-44308D01*
X52436Y-44308D02*
X52786Y-44308D01*
X52946Y-44308D02*
X53046Y-44308D01*
X53116Y-44308D02*
X53536Y-44308D01*
X53806Y-44308D02*
X53916Y-44308D01*
X54056Y-44308D02*
X54396Y-44308D01*
X54526Y-44308D02*
X54626Y-44308D01*
X54826Y-44308D02*
X54966Y-44308D01*
X50476Y-44318D02*
X50506Y-44318D01*
X50576Y-44318D02*
X50636Y-44318D01*
X50696Y-44318D02*
X51356Y-44318D01*
X52226Y-44318D02*
X52366Y-44318D01*
X52446Y-44318D02*
X52776Y-44318D01*
X52946Y-44318D02*
X53046Y-44318D01*
X53116Y-44318D02*
X53526Y-44318D01*
X53806Y-44318D02*
X53916Y-44318D01*
X54066Y-44318D02*
X54366Y-44318D01*
X54526Y-44318D02*
X54626Y-44318D01*
X54836Y-44318D02*
X54976Y-44318D01*
X50576Y-44328D02*
X50626Y-44328D01*
X50686Y-44328D02*
X51346Y-44328D01*
X52226Y-44328D02*
X52376Y-44328D01*
X52466Y-44328D02*
X52756Y-44328D01*
X52946Y-44328D02*
X53046Y-44328D01*
X53116Y-44328D02*
X53526Y-44328D01*
X53816Y-44328D02*
X53926Y-44328D01*
X54096Y-44328D02*
X54336Y-44328D01*
X54526Y-44328D02*
X54626Y-44328D01*
X54846Y-44328D02*
X54986Y-44328D01*
X50576Y-44338D02*
X50616Y-44338D01*
X50676Y-44338D02*
X51336Y-44338D01*
X52236Y-44338D02*
X52376Y-44338D01*
X52496Y-44338D02*
X52726Y-44338D01*
X54126Y-44338D02*
X54296Y-44338D01*
X50576Y-44348D02*
X50606Y-44348D01*
X50666Y-44348D02*
X51326Y-44348D01*
X52236Y-44348D02*
X52386Y-44348D01*
X52526Y-44348D02*
X52696Y-44348D01*
X50576Y-44358D02*
X50596Y-44358D01*
X50656Y-44358D02*
X51316Y-44358D01*
X52246Y-44358D02*
X52386Y-44358D01*
X50576Y-44368D02*
X50586Y-44368D01*
X50646Y-44368D02*
X51306Y-44368D01*
X51566Y-44368D02*
X52146Y-44368D01*
X52246Y-44368D02*
X52396Y-44368D01*
X50576Y-44378D02*
X50586Y-44378D01*
X50636Y-44378D02*
X51296Y-44378D01*
X51566Y-44378D02*
X52146Y-44378D01*
X52256Y-44378D02*
X52396Y-44378D01*
X50576Y-44388D02*
X50586Y-44388D01*
X50626Y-44388D02*
X51286Y-44388D01*
X51566Y-44388D02*
X52146Y-44388D01*
X52256Y-44388D02*
X52406Y-44388D01*
X50576Y-44398D02*
X50586Y-44398D01*
X50616Y-44398D02*
X51276Y-44398D01*
X51566Y-44398D02*
X52146Y-44398D01*
X52266Y-44398D02*
X52406Y-44398D01*
X50576Y-44408D02*
X50586Y-44408D01*
X50606Y-44408D02*
X51266Y-44408D01*
X51566Y-44408D02*
X52146Y-44408D01*
X52266Y-44408D02*
X52416Y-44408D01*
X50576Y-44418D02*
X50586Y-44418D01*
X50596Y-44418D02*
X51256Y-44418D01*
X51566Y-44418D02*
X52146Y-44418D01*
X52276Y-44418D02*
X52426Y-44418D01*
X50576Y-44428D02*
X51246Y-44428D01*
X51566Y-44428D02*
X52146Y-44428D01*
X52276Y-44428D02*
X52426Y-44428D01*
X50576Y-44438D02*
X51236Y-44438D01*
X51566Y-44438D02*
X52146Y-44438D01*
X52286Y-44438D02*
X52436Y-44438D01*
X50576Y-44448D02*
X51226Y-44448D01*
X51566Y-44448D02*
X52146Y-44448D01*
X52286Y-44448D02*
X52436Y-44448D01*
X51566Y-44458D02*
X52146Y-44458D01*
X52296Y-44458D02*
X52446Y-44458D01*
X52296Y-44468D02*
X52446Y-44468D01*
X52306Y-44478D02*
X52456Y-44478D01*
X52306Y-44488D02*
X52456Y-44488D01*
X52316Y-44498D02*
X52466Y-44498D01*
X52316Y-44508D02*
X52466Y-44508D01*
X52326Y-44518D02*
X52476Y-44518D01*
X52326Y-44528D02*
X52476Y-44528D01*
X52336Y-44538D02*
X52486Y-44538D01*
G54D14*
X65280Y-39495D02*
X64380Y-39495D01*
X64380Y-39495D02*
X64380Y-38995D01*
X64380Y-38995D02*
X65280Y-38995D01*
X65280Y-38995D02*
X65280Y-39495D01*
X60505Y-40545D02*
X59605Y-40545D01*
X59605Y-40545D02*
X59605Y-40045D01*
X59605Y-40045D02*
X60505Y-40045D01*
X60505Y-40045D02*
X60505Y-40545D01*
X65485Y-36480D02*
X66385Y-36480D01*
X66385Y-36480D02*
X66385Y-36980D01*
X66385Y-36980D02*
X65485Y-36980D01*
X65485Y-36980D02*
X65485Y-36480D01*
X50800Y-45330D02*
X50800Y-46230D01*
X50800Y-46230D02*
X50300Y-46230D01*
X50300Y-46230D02*
X50300Y-45330D01*
X50300Y-45330D02*
X50800Y-45330D01*
X59960Y-45325D02*
X59960Y-46225D01*
X59960Y-46225D02*
X59460Y-46225D01*
X59460Y-46225D02*
X59460Y-45325D01*
X59460Y-45325D02*
X59960Y-45325D01*
G54D10*
X69529Y-31128D02*
X69529Y-30734D01*
X69679Y-30734D01*
X69716Y-30753D01*
X69735Y-30771D01*
X69754Y-30809D01*
X69754Y-30865D01*
X69735Y-30903D01*
X69716Y-30921D01*
X69679Y-30940D01*
X69529Y-30940D01*
X70129Y-31128D02*
X69904Y-31128D01*
X70016Y-31128D02*
X70016Y-30734D01*
X69979Y-30790D01*
X69941Y-30828D01*
X69904Y-30846D01*
G54D19*
X40120Y-31130D02*
X40120Y-30730D01*
X40273Y-30730D01*
X40311Y-30750D01*
X40330Y-30769D01*
X40349Y-30807D01*
X40349Y-30864D01*
X40330Y-30902D01*
X40311Y-30921D01*
X40273Y-30940D01*
X40120Y-30940D01*
X40501Y-30769D02*
X40520Y-30750D01*
X40559Y-30730D01*
X40654Y-30730D01*
X40692Y-30750D01*
X40711Y-30769D01*
X40730Y-30807D01*
X40730Y-30845D01*
X40711Y-30902D01*
X40482Y-31130D01*
X40730Y-31130D01*
X42280Y-33859D02*
X42280Y-33783D01*
X42300Y-33745D01*
X42338Y-33707D01*
X42414Y-33688D01*
X42547Y-33688D01*
X42623Y-33707D01*
X42661Y-33745D01*
X42680Y-33783D01*
X42680Y-33859D01*
X42661Y-33897D01*
X42623Y-33935D01*
X42547Y-33954D01*
X42414Y-33954D01*
X42338Y-33935D01*
X42300Y-33897D01*
X42280Y-33859D01*
X42642Y-33288D02*
X42661Y-33307D01*
X42680Y-33364D01*
X42680Y-33402D01*
X42661Y-33459D01*
X42623Y-33497D01*
X42585Y-33516D01*
X42509Y-33535D01*
X42452Y-33535D01*
X42376Y-33516D01*
X42338Y-33497D01*
X42300Y-33459D01*
X42280Y-33402D01*
X42280Y-33364D01*
X42300Y-33307D01*
X42319Y-33288D01*
X42319Y-33135D02*
X42300Y-33116D01*
X42280Y-33078D01*
X42280Y-32983D01*
X42300Y-32945D01*
X42319Y-32926D01*
X42357Y-32907D01*
X42395Y-32907D01*
X42452Y-32926D01*
X42680Y-33154D01*
X42680Y-32907D01*
X42280Y-32659D02*
X42280Y-32621D01*
X42300Y-32583D01*
X42319Y-32564D01*
X42357Y-32545D01*
X42433Y-32526D01*
X42528Y-32526D01*
X42604Y-32545D01*
X42642Y-32564D01*
X42661Y-32583D01*
X42680Y-32621D01*
X42680Y-32659D01*
X42661Y-32697D01*
X42642Y-32716D01*
X42604Y-32735D01*
X42528Y-32754D01*
X42433Y-32754D01*
X42357Y-32735D01*
X42319Y-32716D01*
X42300Y-32697D01*
X42280Y-32659D01*
X42680Y-32145D02*
X42680Y-32373D01*
X42680Y-32259D02*
X42280Y-32259D01*
X42338Y-32297D01*
X42376Y-32335D01*
X42395Y-32373D01*
X42230Y-38059D02*
X42230Y-37983D01*
X42250Y-37945D01*
X42288Y-37907D01*
X42364Y-37888D01*
X42497Y-37888D01*
X42573Y-37907D01*
X42611Y-37945D01*
X42630Y-37983D01*
X42630Y-38059D01*
X42611Y-38097D01*
X42573Y-38135D01*
X42497Y-38154D01*
X42364Y-38154D01*
X42288Y-38135D01*
X42250Y-38097D01*
X42230Y-38059D01*
X42592Y-37488D02*
X42611Y-37507D01*
X42630Y-37564D01*
X42630Y-37602D01*
X42611Y-37659D01*
X42573Y-37697D01*
X42535Y-37716D01*
X42459Y-37735D01*
X42402Y-37735D01*
X42326Y-37716D01*
X42288Y-37697D01*
X42250Y-37659D01*
X42230Y-37602D01*
X42230Y-37564D01*
X42250Y-37507D01*
X42269Y-37488D01*
X42269Y-37335D02*
X42250Y-37316D01*
X42230Y-37278D01*
X42230Y-37183D01*
X42250Y-37145D01*
X42269Y-37126D01*
X42307Y-37107D01*
X42345Y-37107D01*
X42402Y-37126D01*
X42630Y-37354D01*
X42630Y-37107D01*
X42230Y-36859D02*
X42230Y-36821D01*
X42250Y-36783D01*
X42269Y-36764D01*
X42307Y-36745D01*
X42383Y-36726D01*
X42478Y-36726D01*
X42554Y-36745D01*
X42592Y-36764D01*
X42611Y-36783D01*
X42630Y-36821D01*
X42630Y-36859D01*
X42611Y-36897D01*
X42592Y-36916D01*
X42554Y-36935D01*
X42478Y-36954D01*
X42383Y-36954D01*
X42307Y-36935D01*
X42269Y-36916D01*
X42250Y-36897D01*
X42230Y-36859D01*
X42269Y-36573D02*
X42250Y-36554D01*
X42230Y-36516D01*
X42230Y-36421D01*
X42250Y-36383D01*
X42269Y-36364D01*
X42307Y-36345D01*
X42345Y-36345D01*
X42402Y-36364D01*
X42630Y-36592D01*
X42630Y-36345D01*
X42180Y-42259D02*
X42180Y-42183D01*
X42200Y-42145D01*
X42238Y-42107D01*
X42314Y-42088D01*
X42447Y-42088D01*
X42523Y-42107D01*
X42561Y-42145D01*
X42580Y-42183D01*
X42580Y-42259D01*
X42561Y-42297D01*
X42523Y-42335D01*
X42447Y-42354D01*
X42314Y-42354D01*
X42238Y-42335D01*
X42200Y-42297D01*
X42180Y-42259D01*
X42542Y-41688D02*
X42561Y-41707D01*
X42580Y-41764D01*
X42580Y-41802D01*
X42561Y-41859D01*
X42523Y-41897D01*
X42485Y-41916D01*
X42409Y-41935D01*
X42352Y-41935D01*
X42276Y-41916D01*
X42238Y-41897D01*
X42200Y-41859D01*
X42180Y-41802D01*
X42180Y-41764D01*
X42200Y-41707D01*
X42219Y-41688D01*
X42219Y-41535D02*
X42200Y-41516D01*
X42180Y-41478D01*
X42180Y-41383D01*
X42200Y-41345D01*
X42219Y-41326D01*
X42257Y-41307D01*
X42295Y-41307D01*
X42352Y-41326D01*
X42580Y-41554D01*
X42580Y-41307D01*
X42180Y-41059D02*
X42180Y-41021D01*
X42200Y-40983D01*
X42219Y-40964D01*
X42257Y-40945D01*
X42333Y-40926D01*
X42428Y-40926D01*
X42504Y-40945D01*
X42542Y-40964D01*
X42561Y-40983D01*
X42580Y-41021D01*
X42580Y-41059D01*
X42561Y-41097D01*
X42542Y-41116D01*
X42504Y-41135D01*
X42428Y-41154D01*
X42333Y-41154D01*
X42257Y-41135D01*
X42219Y-41116D01*
X42200Y-41097D01*
X42180Y-41059D01*
X42180Y-40792D02*
X42180Y-40545D01*
X42333Y-40678D01*
X42333Y-40621D01*
X42352Y-40583D01*
X42371Y-40564D01*
X42409Y-40545D01*
X42504Y-40545D01*
X42542Y-40564D01*
X42561Y-40583D01*
X42580Y-40621D01*
X42580Y-40735D01*
X42561Y-40773D01*
X42542Y-40792D01*
X42180Y-46459D02*
X42180Y-46383D01*
X42200Y-46345D01*
X42238Y-46307D01*
X42314Y-46288D01*
X42447Y-46288D01*
X42523Y-46307D01*
X42561Y-46345D01*
X42580Y-46383D01*
X42580Y-46459D01*
X42561Y-46497D01*
X42523Y-46535D01*
X42447Y-46554D01*
X42314Y-46554D01*
X42238Y-46535D01*
X42200Y-46497D01*
X42180Y-46459D01*
X42542Y-45888D02*
X42561Y-45907D01*
X42580Y-45964D01*
X42580Y-46002D01*
X42561Y-46059D01*
X42523Y-46097D01*
X42485Y-46116D01*
X42409Y-46135D01*
X42352Y-46135D01*
X42276Y-46116D01*
X42238Y-46097D01*
X42200Y-46059D01*
X42180Y-46002D01*
X42180Y-45964D01*
X42200Y-45907D01*
X42219Y-45888D01*
X42219Y-45735D02*
X42200Y-45716D01*
X42180Y-45678D01*
X42180Y-45583D01*
X42200Y-45545D01*
X42219Y-45526D01*
X42257Y-45507D01*
X42295Y-45507D01*
X42352Y-45526D01*
X42580Y-45754D01*
X42580Y-45507D01*
X42180Y-45259D02*
X42180Y-45221D01*
X42200Y-45183D01*
X42219Y-45164D01*
X42257Y-45145D01*
X42333Y-45126D01*
X42428Y-45126D01*
X42504Y-45145D01*
X42542Y-45164D01*
X42561Y-45183D01*
X42580Y-45221D01*
X42580Y-45259D01*
X42561Y-45297D01*
X42542Y-45316D01*
X42504Y-45335D01*
X42428Y-45354D01*
X42333Y-45354D01*
X42257Y-45335D01*
X42219Y-45316D01*
X42200Y-45297D01*
X42180Y-45259D01*
X42314Y-44783D02*
X42580Y-44783D01*
X42161Y-44878D02*
X42447Y-44973D01*
X42447Y-44726D01*
G54D15*
X47185Y-31364D02*
X47157Y-31350D01*
X47128Y-31321D01*
X47085Y-31278D01*
X47057Y-31264D01*
X47028Y-31264D01*
X47042Y-31335D02*
X47014Y-31321D01*
X46985Y-31292D01*
X46971Y-31235D01*
X46971Y-31135D01*
X46985Y-31078D01*
X47014Y-31050D01*
X47042Y-31035D01*
X47100Y-31035D01*
X47128Y-31050D01*
X47157Y-31078D01*
X47171Y-31135D01*
X47171Y-31235D01*
X47157Y-31292D01*
X47128Y-31321D01*
X47100Y-31335D01*
X47042Y-31335D01*
X47285Y-31064D02*
X47300Y-31050D01*
X47328Y-31035D01*
X47400Y-31035D01*
X47428Y-31050D01*
X47442Y-31064D01*
X47457Y-31092D01*
X47457Y-31121D01*
X47442Y-31164D01*
X47271Y-31335D01*
X47457Y-31335D01*
X47642Y-31035D02*
X47671Y-31035D01*
X47700Y-31050D01*
X47714Y-31064D01*
X47728Y-31092D01*
X47742Y-31150D01*
X47742Y-31221D01*
X47728Y-31278D01*
X47714Y-31307D01*
X47700Y-31321D01*
X47671Y-31335D01*
X47642Y-31335D01*
X47614Y-31321D01*
X47600Y-31307D01*
X47585Y-31278D01*
X47571Y-31221D01*
X47571Y-31150D01*
X47585Y-31092D01*
X47600Y-31064D01*
X47614Y-31050D01*
X47642Y-31035D01*
X48028Y-31335D02*
X47857Y-31335D01*
X47942Y-31335D02*
X47942Y-31035D01*
X47914Y-31078D01*
X47885Y-31107D01*
X47857Y-31121D01*
X47185Y-35564D02*
X47157Y-35550D01*
X47128Y-35521D01*
X47085Y-35478D01*
X47057Y-35464D01*
X47028Y-35464D01*
X47042Y-35535D02*
X47014Y-35521D01*
X46985Y-35492D01*
X46971Y-35435D01*
X46971Y-35335D01*
X46985Y-35278D01*
X47014Y-35250D01*
X47042Y-35235D01*
X47100Y-35235D01*
X47128Y-35250D01*
X47157Y-35278D01*
X47171Y-35335D01*
X47171Y-35435D01*
X47157Y-35492D01*
X47128Y-35521D01*
X47100Y-35535D01*
X47042Y-35535D01*
X47285Y-35264D02*
X47300Y-35250D01*
X47328Y-35235D01*
X47400Y-35235D01*
X47428Y-35250D01*
X47442Y-35264D01*
X47457Y-35292D01*
X47457Y-35321D01*
X47442Y-35364D01*
X47271Y-35535D01*
X47457Y-35535D01*
X47642Y-35235D02*
X47671Y-35235D01*
X47700Y-35250D01*
X47714Y-35264D01*
X47728Y-35292D01*
X47742Y-35350D01*
X47742Y-35421D01*
X47728Y-35478D01*
X47714Y-35507D01*
X47700Y-35521D01*
X47671Y-35535D01*
X47642Y-35535D01*
X47614Y-35521D01*
X47600Y-35507D01*
X47585Y-35478D01*
X47571Y-35421D01*
X47571Y-35350D01*
X47585Y-35292D01*
X47600Y-35264D01*
X47614Y-35250D01*
X47642Y-35235D01*
X47857Y-35264D02*
X47871Y-35250D01*
X47900Y-35235D01*
X47971Y-35235D01*
X48000Y-35250D01*
X48014Y-35264D01*
X48028Y-35292D01*
X48028Y-35321D01*
X48014Y-35364D01*
X47842Y-35535D01*
X48028Y-35535D01*
X47185Y-39764D02*
X47157Y-39750D01*
X47128Y-39721D01*
X47085Y-39678D01*
X47057Y-39664D01*
X47028Y-39664D01*
X47042Y-39735D02*
X47014Y-39721D01*
X46985Y-39692D01*
X46971Y-39635D01*
X46971Y-39535D01*
X46985Y-39478D01*
X47014Y-39450D01*
X47042Y-39435D01*
X47100Y-39435D01*
X47128Y-39450D01*
X47157Y-39478D01*
X47171Y-39535D01*
X47171Y-39635D01*
X47157Y-39692D01*
X47128Y-39721D01*
X47100Y-39735D01*
X47042Y-39735D01*
X47285Y-39464D02*
X47300Y-39450D01*
X47328Y-39435D01*
X47400Y-39435D01*
X47428Y-39450D01*
X47442Y-39464D01*
X47457Y-39492D01*
X47457Y-39521D01*
X47442Y-39564D01*
X47271Y-39735D01*
X47457Y-39735D01*
X47642Y-39435D02*
X47671Y-39435D01*
X47700Y-39450D01*
X47714Y-39464D01*
X47728Y-39492D01*
X47742Y-39550D01*
X47742Y-39621D01*
X47728Y-39678D01*
X47714Y-39707D01*
X47700Y-39721D01*
X47671Y-39735D01*
X47642Y-39735D01*
X47614Y-39721D01*
X47600Y-39707D01*
X47585Y-39678D01*
X47571Y-39621D01*
X47571Y-39550D01*
X47585Y-39492D01*
X47600Y-39464D01*
X47614Y-39450D01*
X47642Y-39435D01*
X47842Y-39435D02*
X48028Y-39435D01*
X47928Y-39550D01*
X47971Y-39550D01*
X48000Y-39564D01*
X48014Y-39578D01*
X48028Y-39607D01*
X48028Y-39678D01*
X48014Y-39707D01*
X48000Y-39721D01*
X47971Y-39735D01*
X47885Y-39735D01*
X47857Y-39721D01*
X47842Y-39707D01*
X47185Y-43964D02*
X47157Y-43950D01*
X47128Y-43921D01*
X47085Y-43878D01*
X47057Y-43864D01*
X47028Y-43864D01*
X47042Y-43935D02*
X47014Y-43921D01*
X46985Y-43892D01*
X46971Y-43835D01*
X46971Y-43735D01*
X46985Y-43678D01*
X47014Y-43650D01*
X47042Y-43635D01*
X47100Y-43635D01*
X47128Y-43650D01*
X47157Y-43678D01*
X47171Y-43735D01*
X47171Y-43835D01*
X47157Y-43892D01*
X47128Y-43921D01*
X47100Y-43935D01*
X47042Y-43935D01*
X47285Y-43664D02*
X47300Y-43650D01*
X47328Y-43635D01*
X47400Y-43635D01*
X47428Y-43650D01*
X47442Y-43664D01*
X47457Y-43692D01*
X47457Y-43721D01*
X47442Y-43764D01*
X47271Y-43935D01*
X47457Y-43935D01*
X47642Y-43635D02*
X47671Y-43635D01*
X47700Y-43650D01*
X47714Y-43664D01*
X47728Y-43692D01*
X47742Y-43750D01*
X47742Y-43821D01*
X47728Y-43878D01*
X47714Y-43907D01*
X47700Y-43921D01*
X47671Y-43935D01*
X47642Y-43935D01*
X47614Y-43921D01*
X47600Y-43907D01*
X47585Y-43878D01*
X47571Y-43821D01*
X47571Y-43750D01*
X47585Y-43692D01*
X47600Y-43664D01*
X47614Y-43650D01*
X47642Y-43635D01*
X48000Y-43735D02*
X48000Y-43935D01*
X47928Y-43621D02*
X47857Y-43835D01*
X48042Y-43835D01*
X47164Y-34235D02*
X47064Y-34092D01*
X46992Y-34235D02*
X46992Y-33935D01*
X47107Y-33935D01*
X47135Y-33950D01*
X47150Y-33964D01*
X47164Y-33992D01*
X47164Y-34035D01*
X47150Y-34064D01*
X47135Y-34078D01*
X47107Y-34092D01*
X46992Y-34092D01*
X47278Y-33964D02*
X47292Y-33950D01*
X47321Y-33935D01*
X47392Y-33935D01*
X47421Y-33950D01*
X47435Y-33964D01*
X47450Y-33992D01*
X47450Y-34021D01*
X47435Y-34064D01*
X47264Y-34235D01*
X47450Y-34235D01*
X47635Y-33935D02*
X47664Y-33935D01*
X47692Y-33950D01*
X47707Y-33964D01*
X47721Y-33992D01*
X47735Y-34050D01*
X47735Y-34121D01*
X47721Y-34178D01*
X47707Y-34207D01*
X47692Y-34221D01*
X47664Y-34235D01*
X47635Y-34235D01*
X47607Y-34221D01*
X47592Y-34207D01*
X47578Y-34178D01*
X47564Y-34121D01*
X47564Y-34050D01*
X47578Y-33992D01*
X47592Y-33964D01*
X47607Y-33950D01*
X47635Y-33935D01*
X48021Y-34235D02*
X47850Y-34235D01*
X47935Y-34235D02*
X47935Y-33935D01*
X47907Y-33978D01*
X47878Y-34007D01*
X47850Y-34021D01*
X47164Y-33135D02*
X47064Y-32992D01*
X46992Y-33135D02*
X46992Y-32835D01*
X47107Y-32835D01*
X47135Y-32850D01*
X47150Y-32864D01*
X47164Y-32892D01*
X47164Y-32935D01*
X47150Y-32964D01*
X47135Y-32978D01*
X47107Y-32992D01*
X46992Y-32992D01*
X47278Y-32864D02*
X47292Y-32850D01*
X47321Y-32835D01*
X47392Y-32835D01*
X47421Y-32850D01*
X47435Y-32864D01*
X47450Y-32892D01*
X47450Y-32921D01*
X47435Y-32964D01*
X47264Y-33135D01*
X47450Y-33135D01*
X47635Y-32835D02*
X47664Y-32835D01*
X47692Y-32850D01*
X47707Y-32864D01*
X47721Y-32892D01*
X47735Y-32950D01*
X47735Y-33021D01*
X47721Y-33078D01*
X47707Y-33107D01*
X47692Y-33121D01*
X47664Y-33135D01*
X47635Y-33135D01*
X47607Y-33121D01*
X47592Y-33107D01*
X47578Y-33078D01*
X47564Y-33021D01*
X47564Y-32950D01*
X47578Y-32892D01*
X47592Y-32864D01*
X47607Y-32850D01*
X47635Y-32835D01*
X47850Y-32864D02*
X47864Y-32850D01*
X47892Y-32835D01*
X47964Y-32835D01*
X47992Y-32850D01*
X48007Y-32864D01*
X48021Y-32892D01*
X48021Y-32921D01*
X48007Y-32964D01*
X47835Y-33135D01*
X48021Y-33135D01*
X47164Y-38435D02*
X47064Y-38292D01*
X46992Y-38435D02*
X46992Y-38135D01*
X47107Y-38135D01*
X47135Y-38150D01*
X47150Y-38164D01*
X47164Y-38192D01*
X47164Y-38235D01*
X47150Y-38264D01*
X47135Y-38278D01*
X47107Y-38292D01*
X46992Y-38292D01*
X47278Y-38164D02*
X47292Y-38150D01*
X47321Y-38135D01*
X47392Y-38135D01*
X47421Y-38150D01*
X47435Y-38164D01*
X47450Y-38192D01*
X47450Y-38221D01*
X47435Y-38264D01*
X47264Y-38435D01*
X47450Y-38435D01*
X47635Y-38135D02*
X47664Y-38135D01*
X47692Y-38150D01*
X47707Y-38164D01*
X47721Y-38192D01*
X47735Y-38250D01*
X47735Y-38321D01*
X47721Y-38378D01*
X47707Y-38407D01*
X47692Y-38421D01*
X47664Y-38435D01*
X47635Y-38435D01*
X47607Y-38421D01*
X47592Y-38407D01*
X47578Y-38378D01*
X47564Y-38321D01*
X47564Y-38250D01*
X47578Y-38192D01*
X47592Y-38164D01*
X47607Y-38150D01*
X47635Y-38135D01*
X47835Y-38135D02*
X48021Y-38135D01*
X47921Y-38250D01*
X47964Y-38250D01*
X47992Y-38264D01*
X48007Y-38278D01*
X48021Y-38307D01*
X48021Y-38378D01*
X48007Y-38407D01*
X47992Y-38421D01*
X47964Y-38435D01*
X47878Y-38435D01*
X47850Y-38421D01*
X47835Y-38407D01*
X47164Y-37335D02*
X47064Y-37192D01*
X46992Y-37335D02*
X46992Y-37035D01*
X47107Y-37035D01*
X47135Y-37050D01*
X47150Y-37064D01*
X47164Y-37092D01*
X47164Y-37135D01*
X47150Y-37164D01*
X47135Y-37178D01*
X47107Y-37192D01*
X46992Y-37192D01*
X47278Y-37064D02*
X47292Y-37050D01*
X47321Y-37035D01*
X47392Y-37035D01*
X47421Y-37050D01*
X47435Y-37064D01*
X47450Y-37092D01*
X47450Y-37121D01*
X47435Y-37164D01*
X47264Y-37335D01*
X47450Y-37335D01*
X47635Y-37035D02*
X47664Y-37035D01*
X47692Y-37050D01*
X47707Y-37064D01*
X47721Y-37092D01*
X47735Y-37150D01*
X47735Y-37221D01*
X47721Y-37278D01*
X47707Y-37307D01*
X47692Y-37321D01*
X47664Y-37335D01*
X47635Y-37335D01*
X47607Y-37321D01*
X47592Y-37307D01*
X47578Y-37278D01*
X47564Y-37221D01*
X47564Y-37150D01*
X47578Y-37092D01*
X47592Y-37064D01*
X47607Y-37050D01*
X47635Y-37035D01*
X47992Y-37135D02*
X47992Y-37335D01*
X47921Y-37021D02*
X47850Y-37235D01*
X48035Y-37235D01*
G54D14*
X47164Y-42635D02*
X47064Y-42492D01*
X46992Y-42635D02*
X46992Y-42335D01*
X47107Y-42335D01*
X47135Y-42350D01*
X47150Y-42364D01*
X47164Y-42392D01*
X47164Y-42435D01*
X47150Y-42464D01*
X47135Y-42478D01*
X47107Y-42492D01*
X46992Y-42492D01*
X47278Y-42364D02*
X47292Y-42350D01*
X47321Y-42335D01*
X47392Y-42335D01*
X47421Y-42350D01*
X47435Y-42364D01*
X47450Y-42392D01*
X47450Y-42421D01*
X47435Y-42464D01*
X47264Y-42635D01*
X47450Y-42635D01*
X47635Y-42335D02*
X47664Y-42335D01*
X47692Y-42350D01*
X47707Y-42364D01*
X47721Y-42392D01*
X47735Y-42450D01*
X47735Y-42521D01*
X47721Y-42578D01*
X47707Y-42607D01*
X47692Y-42621D01*
X47664Y-42635D01*
X47635Y-42635D01*
X47607Y-42621D01*
X47592Y-42607D01*
X47578Y-42578D01*
X47564Y-42521D01*
X47564Y-42450D01*
X47578Y-42392D01*
X47592Y-42364D01*
X47607Y-42350D01*
X47635Y-42335D01*
X48007Y-42335D02*
X47864Y-42335D01*
X47850Y-42478D01*
X47864Y-42464D01*
X47892Y-42450D01*
X47964Y-42450D01*
X47992Y-42464D01*
X48007Y-42478D01*
X48021Y-42507D01*
X48021Y-42578D01*
X48007Y-42607D01*
X47992Y-42621D01*
X47964Y-42635D01*
X47892Y-42635D01*
X47864Y-42621D01*
X47850Y-42607D01*
G54D15*
X47164Y-41535D02*
X47064Y-41392D01*
X46992Y-41535D02*
X46992Y-41235D01*
X47107Y-41235D01*
X47135Y-41250D01*
X47150Y-41264D01*
X47164Y-41292D01*
X47164Y-41335D01*
X47150Y-41364D01*
X47135Y-41378D01*
X47107Y-41392D01*
X46992Y-41392D01*
X47278Y-41264D02*
X47292Y-41250D01*
X47321Y-41235D01*
X47392Y-41235D01*
X47421Y-41250D01*
X47435Y-41264D01*
X47450Y-41292D01*
X47450Y-41321D01*
X47435Y-41364D01*
X47264Y-41535D01*
X47450Y-41535D01*
X47635Y-41235D02*
X47664Y-41235D01*
X47692Y-41250D01*
X47707Y-41264D01*
X47721Y-41292D01*
X47735Y-41350D01*
X47735Y-41421D01*
X47721Y-41478D01*
X47707Y-41507D01*
X47692Y-41521D01*
X47664Y-41535D01*
X47635Y-41535D01*
X47607Y-41521D01*
X47592Y-41507D01*
X47578Y-41478D01*
X47564Y-41421D01*
X47564Y-41350D01*
X47578Y-41292D01*
X47592Y-41264D01*
X47607Y-41250D01*
X47635Y-41235D01*
X47992Y-41235D02*
X47935Y-41235D01*
X47907Y-41250D01*
X47892Y-41264D01*
X47864Y-41307D01*
X47850Y-41364D01*
X47850Y-41478D01*
X47864Y-41507D01*
X47878Y-41521D01*
X47907Y-41535D01*
X47964Y-41535D01*
X47992Y-41521D01*
X48007Y-41507D01*
X48021Y-41478D01*
X48021Y-41407D01*
X48007Y-41378D01*
X47992Y-41364D01*
X47964Y-41350D01*
X47907Y-41350D01*
X47878Y-41364D01*
X47864Y-41378D01*
X47850Y-41407D01*
G54D14*
X47164Y-46835D02*
X47064Y-46692D01*
X46992Y-46835D02*
X46992Y-46535D01*
X47107Y-46535D01*
X47135Y-46550D01*
X47150Y-46564D01*
X47164Y-46592D01*
X47164Y-46635D01*
X47150Y-46664D01*
X47135Y-46678D01*
X47107Y-46692D01*
X46992Y-46692D01*
X47278Y-46564D02*
X47292Y-46550D01*
X47321Y-46535D01*
X47392Y-46535D01*
X47421Y-46550D01*
X47435Y-46564D01*
X47450Y-46592D01*
X47450Y-46621D01*
X47435Y-46664D01*
X47264Y-46835D01*
X47450Y-46835D01*
X47635Y-46535D02*
X47664Y-46535D01*
X47692Y-46550D01*
X47707Y-46564D01*
X47721Y-46592D01*
X47735Y-46650D01*
X47735Y-46721D01*
X47721Y-46778D01*
X47707Y-46807D01*
X47692Y-46821D01*
X47664Y-46835D01*
X47635Y-46835D01*
X47607Y-46821D01*
X47592Y-46807D01*
X47578Y-46778D01*
X47564Y-46721D01*
X47564Y-46650D01*
X47578Y-46592D01*
X47592Y-46564D01*
X47607Y-46550D01*
X47635Y-46535D01*
X47835Y-46535D02*
X48035Y-46535D01*
X47907Y-46835D01*
G54D15*
X47164Y-45735D02*
X47064Y-45592D01*
X46992Y-45735D02*
X46992Y-45435D01*
X47107Y-45435D01*
X47135Y-45450D01*
X47150Y-45464D01*
X47164Y-45492D01*
X47164Y-45535D01*
X47150Y-45564D01*
X47135Y-45578D01*
X47107Y-45592D01*
X46992Y-45592D01*
X47278Y-45464D02*
X47292Y-45450D01*
X47321Y-45435D01*
X47392Y-45435D01*
X47421Y-45450D01*
X47435Y-45464D01*
X47450Y-45492D01*
X47450Y-45521D01*
X47435Y-45564D01*
X47264Y-45735D01*
X47450Y-45735D01*
X47635Y-45435D02*
X47664Y-45435D01*
X47692Y-45450D01*
X47707Y-45464D01*
X47721Y-45492D01*
X47735Y-45550D01*
X47735Y-45621D01*
X47721Y-45678D01*
X47707Y-45707D01*
X47692Y-45721D01*
X47664Y-45735D01*
X47635Y-45735D01*
X47607Y-45721D01*
X47592Y-45707D01*
X47578Y-45678D01*
X47564Y-45621D01*
X47564Y-45550D01*
X47578Y-45492D01*
X47592Y-45464D01*
X47607Y-45450D01*
X47635Y-45435D01*
X47907Y-45564D02*
X47878Y-45550D01*
X47864Y-45535D01*
X47850Y-45507D01*
X47850Y-45492D01*
X47864Y-45464D01*
X47878Y-45450D01*
X47907Y-45435D01*
X47964Y-45435D01*
X47992Y-45450D01*
X48007Y-45464D01*
X48021Y-45492D01*
X48021Y-45507D01*
X48007Y-45535D01*
X47992Y-45550D01*
X47964Y-45564D01*
X47907Y-45564D01*
X47878Y-45578D01*
X47864Y-45592D01*
X47850Y-45621D01*
X47850Y-45678D01*
X47864Y-45707D01*
X47878Y-45721D01*
X47907Y-45735D01*
X47964Y-45735D01*
X47992Y-45721D01*
X48007Y-45707D01*
X48021Y-45678D01*
X48021Y-45621D01*
X48007Y-45592D01*
X47992Y-45578D01*
X47964Y-45564D01*
X61625Y-35514D02*
X61482Y-35514D01*
X61482Y-35214D01*
X61696Y-35214D02*
X61882Y-35214D01*
X61782Y-35329D01*
X61825Y-35329D01*
X61853Y-35343D01*
X61868Y-35357D01*
X61882Y-35386D01*
X61882Y-35457D01*
X61868Y-35486D01*
X61853Y-35500D01*
X61825Y-35514D01*
X61739Y-35514D01*
X61711Y-35500D01*
X61696Y-35486D01*
X62068Y-35214D02*
X62096Y-35214D01*
X62125Y-35229D01*
X62139Y-35243D01*
X62153Y-35271D01*
X62168Y-35329D01*
X62168Y-35400D01*
X62153Y-35457D01*
X62139Y-35486D01*
X62125Y-35500D01*
X62096Y-35514D01*
X62068Y-35514D01*
X62039Y-35500D01*
X62025Y-35486D01*
X62011Y-35457D01*
X61996Y-35400D01*
X61996Y-35329D01*
X62011Y-35271D01*
X62025Y-35243D01*
X62039Y-35229D01*
X62068Y-35214D01*
X62453Y-35514D02*
X62282Y-35514D01*
X62368Y-35514D02*
X62368Y-35214D01*
X62339Y-35257D01*
X62311Y-35286D01*
X62282Y-35300D01*
X63641Y-32268D02*
X63361Y-32268D01*
X63361Y-32201D01*
X63375Y-32161D01*
X63401Y-32134D01*
X63428Y-32121D01*
X63481Y-32108D01*
X63521Y-32108D01*
X63575Y-32121D01*
X63601Y-32134D01*
X63628Y-32161D01*
X63641Y-32201D01*
X63641Y-32268D01*
X63361Y-32014D02*
X63361Y-31841D01*
X63468Y-31934D01*
X63468Y-31894D01*
X63481Y-31868D01*
X63495Y-31854D01*
X63521Y-31841D01*
X63588Y-31841D01*
X63615Y-31854D01*
X63628Y-31868D01*
X63641Y-31894D01*
X63641Y-31974D01*
X63628Y-32001D01*
X63615Y-32014D01*
X63361Y-31668D02*
X63361Y-31641D01*
X63375Y-31614D01*
X63388Y-31601D01*
X63415Y-31588D01*
X63468Y-31574D01*
X63535Y-31574D01*
X63588Y-31588D01*
X63615Y-31601D01*
X63628Y-31614D01*
X63641Y-31641D01*
X63641Y-31668D01*
X63628Y-31694D01*
X63615Y-31708D01*
X63588Y-31721D01*
X63535Y-31734D01*
X63468Y-31734D01*
X63415Y-31721D01*
X63388Y-31708D01*
X63375Y-31694D01*
X63361Y-31668D01*
X63641Y-31308D02*
X63641Y-31468D01*
X63641Y-31388D02*
X63361Y-31388D01*
X63401Y-31415D01*
X63428Y-31441D01*
X63441Y-31468D01*
G54D14*
X67559Y-31742D02*
X67545Y-31756D01*
X67502Y-31770D01*
X67473Y-31770D01*
X67430Y-31756D01*
X67402Y-31727D01*
X67387Y-31699D01*
X67373Y-31642D01*
X67373Y-31599D01*
X67387Y-31542D01*
X67402Y-31513D01*
X67430Y-31485D01*
X67473Y-31470D01*
X67502Y-31470D01*
X67545Y-31485D01*
X67559Y-31499D01*
X67659Y-31470D02*
X67845Y-31470D01*
X67745Y-31585D01*
X67787Y-31585D01*
X67816Y-31599D01*
X67830Y-31613D01*
X67845Y-31642D01*
X67845Y-31713D01*
X67830Y-31742D01*
X67816Y-31756D01*
X67787Y-31770D01*
X67702Y-31770D01*
X67673Y-31756D01*
X67659Y-31742D01*
X68030Y-31470D02*
X68059Y-31470D01*
X68087Y-31485D01*
X68102Y-31499D01*
X68116Y-31527D01*
X68130Y-31585D01*
X68130Y-31656D01*
X68116Y-31713D01*
X68102Y-31742D01*
X68087Y-31756D01*
X68059Y-31770D01*
X68030Y-31770D01*
X68002Y-31756D01*
X67987Y-31742D01*
X67973Y-31713D01*
X67959Y-31656D01*
X67959Y-31585D01*
X67973Y-31527D01*
X67987Y-31499D01*
X68002Y-31485D01*
X68030Y-31470D01*
X68245Y-31499D02*
X68259Y-31485D01*
X68287Y-31470D01*
X68359Y-31470D01*
X68387Y-31485D01*
X68402Y-31499D01*
X68416Y-31527D01*
X68416Y-31556D01*
X68402Y-31599D01*
X68230Y-31770D01*
X68416Y-31770D01*
G54D15*
X58582Y-33008D02*
X58596Y-33023D01*
X58610Y-33065D01*
X58610Y-33094D01*
X58596Y-33137D01*
X58567Y-33165D01*
X58539Y-33180D01*
X58482Y-33194D01*
X58439Y-33194D01*
X58382Y-33180D01*
X58353Y-33165D01*
X58325Y-33137D01*
X58310Y-33094D01*
X58310Y-33065D01*
X58325Y-33023D01*
X58339Y-33008D01*
X58310Y-32908D02*
X58310Y-32723D01*
X58425Y-32823D01*
X58425Y-32780D01*
X58439Y-32751D01*
X58453Y-32737D01*
X58482Y-32723D01*
X58553Y-32723D01*
X58582Y-32737D01*
X58596Y-32751D01*
X58610Y-32780D01*
X58610Y-32865D01*
X58596Y-32894D01*
X58582Y-32908D01*
X58310Y-32537D02*
X58310Y-32508D01*
X58325Y-32480D01*
X58339Y-32465D01*
X58367Y-32451D01*
X58425Y-32437D01*
X58496Y-32437D01*
X58553Y-32451D01*
X58582Y-32465D01*
X58596Y-32480D01*
X58610Y-32508D01*
X58610Y-32537D01*
X58596Y-32565D01*
X58582Y-32580D01*
X58553Y-32594D01*
X58496Y-32608D01*
X58425Y-32608D01*
X58367Y-32594D01*
X58339Y-32580D01*
X58325Y-32565D01*
X58310Y-32537D01*
X58310Y-32165D02*
X58310Y-32308D01*
X58453Y-32323D01*
X58439Y-32308D01*
X58425Y-32280D01*
X58425Y-32208D01*
X58439Y-32180D01*
X58453Y-32165D01*
X58482Y-32151D01*
X58553Y-32151D01*
X58582Y-32165D01*
X58596Y-32180D01*
X58610Y-32208D01*
X58610Y-32280D01*
X58596Y-32308D01*
X58582Y-32323D01*
X64899Y-31422D02*
X64885Y-31436D01*
X64842Y-31450D01*
X64813Y-31450D01*
X64770Y-31436D01*
X64742Y-31407D01*
X64727Y-31379D01*
X64713Y-31322D01*
X64713Y-31279D01*
X64727Y-31222D01*
X64742Y-31193D01*
X64770Y-31165D01*
X64813Y-31150D01*
X64842Y-31150D01*
X64885Y-31165D01*
X64899Y-31179D01*
X64999Y-31150D02*
X65185Y-31150D01*
X65085Y-31265D01*
X65127Y-31265D01*
X65156Y-31279D01*
X65170Y-31293D01*
X65185Y-31322D01*
X65185Y-31393D01*
X65170Y-31422D01*
X65156Y-31436D01*
X65127Y-31450D01*
X65042Y-31450D01*
X65013Y-31436D01*
X64999Y-31422D01*
X65370Y-31150D02*
X65399Y-31150D01*
X65427Y-31165D01*
X65442Y-31179D01*
X65456Y-31207D01*
X65470Y-31265D01*
X65470Y-31336D01*
X65456Y-31393D01*
X65442Y-31422D01*
X65427Y-31436D01*
X65399Y-31450D01*
X65370Y-31450D01*
X65342Y-31436D01*
X65327Y-31422D01*
X65313Y-31393D01*
X65299Y-31336D01*
X65299Y-31265D01*
X65313Y-31207D01*
X65327Y-31179D01*
X65342Y-31165D01*
X65370Y-31150D01*
X65570Y-31150D02*
X65770Y-31150D01*
X65642Y-31450D01*
X63996Y-32693D02*
X63983Y-32706D01*
X63943Y-32719D01*
X63916Y-32719D01*
X63876Y-32706D01*
X63850Y-32679D01*
X63836Y-32653D01*
X63823Y-32599D01*
X63823Y-32559D01*
X63836Y-32506D01*
X63850Y-32479D01*
X63876Y-32453D01*
X63916Y-32439D01*
X63943Y-32439D01*
X63983Y-32453D01*
X63996Y-32466D01*
X64090Y-32439D02*
X64263Y-32439D01*
X64170Y-32546D01*
X64210Y-32546D01*
X64236Y-32559D01*
X64250Y-32573D01*
X64263Y-32599D01*
X64263Y-32666D01*
X64250Y-32693D01*
X64236Y-32706D01*
X64210Y-32719D01*
X64130Y-32719D01*
X64103Y-32706D01*
X64090Y-32693D01*
X64436Y-32439D02*
X64463Y-32439D01*
X64490Y-32453D01*
X64503Y-32466D01*
X64516Y-32493D01*
X64530Y-32546D01*
X64530Y-32613D01*
X64516Y-32666D01*
X64503Y-32693D01*
X64490Y-32706D01*
X64463Y-32719D01*
X64436Y-32719D01*
X64410Y-32706D01*
X64396Y-32693D01*
X64383Y-32666D01*
X64370Y-32613D01*
X64370Y-32546D01*
X64383Y-32493D01*
X64396Y-32466D01*
X64410Y-32453D01*
X64436Y-32439D01*
X64690Y-32559D02*
X64663Y-32546D01*
X64650Y-32533D01*
X64636Y-32506D01*
X64636Y-32493D01*
X64650Y-32466D01*
X64663Y-32453D01*
X64690Y-32439D01*
X64743Y-32439D01*
X64770Y-32453D01*
X64783Y-32466D01*
X64796Y-32493D01*
X64796Y-32506D01*
X64783Y-32533D01*
X64770Y-32546D01*
X64743Y-32559D01*
X64690Y-32559D01*
X64663Y-32573D01*
X64650Y-32586D01*
X64636Y-32613D01*
X64636Y-32666D01*
X64650Y-32693D01*
X64663Y-32706D01*
X64690Y-32719D01*
X64743Y-32719D01*
X64770Y-32706D01*
X64783Y-32693D01*
X64796Y-32666D01*
X64796Y-32613D01*
X64783Y-32586D01*
X64770Y-32573D01*
X64743Y-32559D01*
X64904Y-36108D02*
X64804Y-35965D01*
X64732Y-36108D02*
X64732Y-35808D01*
X64847Y-35808D01*
X64875Y-35823D01*
X64890Y-35837D01*
X64904Y-35865D01*
X64904Y-35908D01*
X64890Y-35937D01*
X64875Y-35951D01*
X64847Y-35965D01*
X64732Y-35965D01*
X65004Y-35808D02*
X65190Y-35808D01*
X65090Y-35923D01*
X65132Y-35923D01*
X65161Y-35937D01*
X65175Y-35951D01*
X65190Y-35980D01*
X65190Y-36051D01*
X65175Y-36080D01*
X65161Y-36094D01*
X65132Y-36108D01*
X65047Y-36108D01*
X65018Y-36094D01*
X65004Y-36080D01*
X65375Y-35808D02*
X65404Y-35808D01*
X65432Y-35823D01*
X65447Y-35837D01*
X65461Y-35865D01*
X65475Y-35923D01*
X65475Y-35994D01*
X65461Y-36051D01*
X65447Y-36080D01*
X65432Y-36094D01*
X65404Y-36108D01*
X65375Y-36108D01*
X65347Y-36094D01*
X65332Y-36080D01*
X65318Y-36051D01*
X65304Y-35994D01*
X65304Y-35923D01*
X65318Y-35865D01*
X65332Y-35837D01*
X65347Y-35823D01*
X65375Y-35808D01*
X65761Y-36108D02*
X65590Y-36108D01*
X65675Y-36108D02*
X65675Y-35808D01*
X65647Y-35851D01*
X65618Y-35880D01*
X65590Y-35894D01*
X66124Y-36108D02*
X66024Y-35965D01*
X65952Y-36108D02*
X65952Y-35808D01*
X66067Y-35808D01*
X66095Y-35823D01*
X66110Y-35837D01*
X66124Y-35865D01*
X66124Y-35908D01*
X66110Y-35937D01*
X66095Y-35951D01*
X66067Y-35965D01*
X65952Y-35965D01*
X66224Y-35808D02*
X66410Y-35808D01*
X66310Y-35923D01*
X66352Y-35923D01*
X66381Y-35937D01*
X66395Y-35951D01*
X66410Y-35980D01*
X66410Y-36051D01*
X66395Y-36080D01*
X66381Y-36094D01*
X66352Y-36108D01*
X66267Y-36108D01*
X66238Y-36094D01*
X66224Y-36080D01*
X66595Y-35808D02*
X66624Y-35808D01*
X66652Y-35823D01*
X66667Y-35837D01*
X66681Y-35865D01*
X66695Y-35923D01*
X66695Y-35994D01*
X66681Y-36051D01*
X66667Y-36080D01*
X66652Y-36094D01*
X66624Y-36108D01*
X66595Y-36108D01*
X66567Y-36094D01*
X66552Y-36080D01*
X66538Y-36051D01*
X66524Y-35994D01*
X66524Y-35923D01*
X66538Y-35865D01*
X66552Y-35837D01*
X66567Y-35823D01*
X66595Y-35808D01*
X66795Y-35808D02*
X66981Y-35808D01*
X66881Y-35923D01*
X66924Y-35923D01*
X66952Y-35937D01*
X66967Y-35951D01*
X66981Y-35980D01*
X66981Y-36051D01*
X66967Y-36080D01*
X66952Y-36094D01*
X66924Y-36108D01*
X66838Y-36108D01*
X66810Y-36094D01*
X66795Y-36080D01*
X66940Y-34236D02*
X66953Y-34249D01*
X66966Y-34289D01*
X66966Y-34316D01*
X66953Y-34356D01*
X66926Y-34382D01*
X66900Y-34396D01*
X66846Y-34409D01*
X66806Y-34409D01*
X66753Y-34396D01*
X66726Y-34382D01*
X66700Y-34356D01*
X66686Y-34316D01*
X66686Y-34289D01*
X66700Y-34249D01*
X66713Y-34236D01*
X66686Y-34142D02*
X66686Y-33969D01*
X66793Y-34062D01*
X66793Y-34022D01*
X66806Y-33996D01*
X66820Y-33982D01*
X66846Y-33969D01*
X66913Y-33969D01*
X66940Y-33982D01*
X66953Y-33996D01*
X66966Y-34022D01*
X66966Y-34102D01*
X66953Y-34129D01*
X66940Y-34142D01*
X66686Y-33796D02*
X66686Y-33769D01*
X66700Y-33742D01*
X66713Y-33729D01*
X66740Y-33716D01*
X66793Y-33702D01*
X66860Y-33702D01*
X66913Y-33716D01*
X66940Y-33729D01*
X66953Y-33742D01*
X66966Y-33769D01*
X66966Y-33796D01*
X66953Y-33822D01*
X66940Y-33836D01*
X66913Y-33849D01*
X66860Y-33862D01*
X66793Y-33862D01*
X66740Y-33849D01*
X66713Y-33836D01*
X66700Y-33822D01*
X66686Y-33796D01*
X66686Y-33463D02*
X66686Y-33516D01*
X66700Y-33543D01*
X66713Y-33556D01*
X66753Y-33583D01*
X66806Y-33596D01*
X66913Y-33596D01*
X66940Y-33583D01*
X66953Y-33569D01*
X66966Y-33543D01*
X66966Y-33489D01*
X66953Y-33463D01*
X66940Y-33449D01*
X66913Y-33436D01*
X66846Y-33436D01*
X66820Y-33449D01*
X66806Y-33463D01*
X66793Y-33489D01*
X66793Y-33543D01*
X66806Y-33569D01*
X66820Y-33583D01*
X66846Y-33596D01*
X63554Y-36020D02*
X63540Y-36034D01*
X63497Y-36048D01*
X63468Y-36048D01*
X63425Y-36034D01*
X63397Y-36005D01*
X63382Y-35977D01*
X63368Y-35920D01*
X63368Y-35877D01*
X63382Y-35820D01*
X63397Y-35791D01*
X63425Y-35763D01*
X63468Y-35748D01*
X63497Y-35748D01*
X63540Y-35763D01*
X63554Y-35777D01*
X63654Y-35748D02*
X63840Y-35748D01*
X63740Y-35863D01*
X63782Y-35863D01*
X63811Y-35877D01*
X63825Y-35891D01*
X63840Y-35920D01*
X63840Y-35991D01*
X63825Y-36020D01*
X63811Y-36034D01*
X63782Y-36048D01*
X63697Y-36048D01*
X63668Y-36034D01*
X63654Y-36020D01*
X64025Y-35748D02*
X64054Y-35748D01*
X64082Y-35763D01*
X64097Y-35777D01*
X64111Y-35805D01*
X64125Y-35863D01*
X64125Y-35934D01*
X64111Y-35991D01*
X64097Y-36020D01*
X64082Y-36034D01*
X64054Y-36048D01*
X64025Y-36048D01*
X63997Y-36034D01*
X63982Y-36020D01*
X63968Y-35991D01*
X63954Y-35934D01*
X63954Y-35863D01*
X63968Y-35805D01*
X63982Y-35777D01*
X63997Y-35763D01*
X64025Y-35748D01*
X64411Y-36048D02*
X64240Y-36048D01*
X64325Y-36048D02*
X64325Y-35748D01*
X64297Y-35791D01*
X64268Y-35820D01*
X64240Y-35834D01*
X64959Y-30832D02*
X64945Y-30846D01*
X64902Y-30860D01*
X64873Y-30860D01*
X64830Y-30846D01*
X64802Y-30817D01*
X64787Y-30789D01*
X64773Y-30732D01*
X64773Y-30689D01*
X64787Y-30632D01*
X64802Y-30603D01*
X64830Y-30575D01*
X64873Y-30560D01*
X64902Y-30560D01*
X64945Y-30575D01*
X64959Y-30589D01*
X65059Y-30560D02*
X65245Y-30560D01*
X65145Y-30675D01*
X65187Y-30675D01*
X65216Y-30689D01*
X65230Y-30703D01*
X65245Y-30732D01*
X65245Y-30803D01*
X65230Y-30832D01*
X65216Y-30846D01*
X65187Y-30860D01*
X65102Y-30860D01*
X65073Y-30846D01*
X65059Y-30832D01*
X65430Y-30560D02*
X65459Y-30560D01*
X65487Y-30575D01*
X65502Y-30589D01*
X65516Y-30617D01*
X65530Y-30675D01*
X65530Y-30746D01*
X65516Y-30803D01*
X65502Y-30832D01*
X65487Y-30846D01*
X65459Y-30860D01*
X65430Y-30860D01*
X65402Y-30846D01*
X65387Y-30832D01*
X65373Y-30803D01*
X65359Y-30746D01*
X65359Y-30675D01*
X65373Y-30617D01*
X65387Y-30589D01*
X65402Y-30575D01*
X65430Y-30560D01*
X65787Y-30660D02*
X65787Y-30860D01*
X65716Y-30546D02*
X65645Y-30760D01*
X65830Y-30760D01*
X64720Y-34770D02*
X64720Y-35013D01*
X64735Y-35042D01*
X64749Y-35056D01*
X64777Y-35070D01*
X64835Y-35070D01*
X64863Y-35056D01*
X64877Y-35042D01*
X64892Y-35013D01*
X64892Y-34770D01*
X65006Y-34770D02*
X65192Y-34770D01*
X65092Y-34885D01*
X65135Y-34885D01*
X65163Y-34899D01*
X65177Y-34913D01*
X65192Y-34942D01*
X65192Y-35013D01*
X65177Y-35042D01*
X65163Y-35056D01*
X65135Y-35070D01*
X65049Y-35070D01*
X65020Y-35056D01*
X65006Y-35042D01*
X65377Y-34770D02*
X65406Y-34770D01*
X65435Y-34785D01*
X65449Y-34799D01*
X65463Y-34827D01*
X65477Y-34885D01*
X65477Y-34956D01*
X65463Y-35013D01*
X65449Y-35042D01*
X65435Y-35056D01*
X65406Y-35070D01*
X65377Y-35070D01*
X65349Y-35056D01*
X65335Y-35042D01*
X65320Y-35013D01*
X65306Y-34956D01*
X65306Y-34885D01*
X65320Y-34827D01*
X65335Y-34799D01*
X65349Y-34785D01*
X65377Y-34770D01*
X65763Y-35070D02*
X65592Y-35070D01*
X65677Y-35070D02*
X65677Y-34770D01*
X65649Y-34813D01*
X65620Y-34842D01*
X65592Y-34856D01*
X66981Y-32248D02*
X66848Y-32341D01*
X66981Y-32408D02*
X66701Y-32408D01*
X66701Y-32301D01*
X66715Y-32274D01*
X66728Y-32261D01*
X66755Y-32248D01*
X66795Y-32248D01*
X66821Y-32261D01*
X66835Y-32274D01*
X66848Y-32301D01*
X66848Y-32408D01*
X66701Y-32154D02*
X66701Y-31981D01*
X66808Y-32074D01*
X66808Y-32034D01*
X66821Y-32008D01*
X66835Y-31994D01*
X66861Y-31981D01*
X66928Y-31981D01*
X66955Y-31994D01*
X66968Y-32008D01*
X66981Y-32034D01*
X66981Y-32114D01*
X66968Y-32141D01*
X66955Y-32154D01*
X66701Y-31808D02*
X66701Y-31781D01*
X66715Y-31754D01*
X66728Y-31741D01*
X66755Y-31728D01*
X66808Y-31714D01*
X66875Y-31714D01*
X66928Y-31728D01*
X66955Y-31741D01*
X66968Y-31754D01*
X66981Y-31781D01*
X66981Y-31808D01*
X66968Y-31834D01*
X66955Y-31848D01*
X66928Y-31861D01*
X66875Y-31874D01*
X66808Y-31874D01*
X66755Y-31861D01*
X66728Y-31848D01*
X66715Y-31834D01*
X66701Y-31808D01*
X66728Y-31608D02*
X66715Y-31595D01*
X66701Y-31568D01*
X66701Y-31501D01*
X66715Y-31475D01*
X66728Y-31461D01*
X66755Y-31448D01*
X66781Y-31448D01*
X66821Y-31461D01*
X66981Y-31621D01*
X66981Y-31448D01*
X67321Y-35028D02*
X67188Y-35121D01*
X67321Y-35188D02*
X67041Y-35188D01*
X67041Y-35081D01*
X67055Y-35054D01*
X67068Y-35041D01*
X67095Y-35028D01*
X67135Y-35028D01*
X67161Y-35041D01*
X67175Y-35054D01*
X67188Y-35081D01*
X67188Y-35188D01*
X67041Y-34934D02*
X67041Y-34761D01*
X67148Y-34854D01*
X67148Y-34814D01*
X67161Y-34788D01*
X67175Y-34774D01*
X67201Y-34761D01*
X67268Y-34761D01*
X67295Y-34774D01*
X67308Y-34788D01*
X67321Y-34814D01*
X67321Y-34894D01*
X67308Y-34921D01*
X67295Y-34934D01*
X67041Y-34588D02*
X67041Y-34561D01*
X67055Y-34534D01*
X67068Y-34521D01*
X67095Y-34508D01*
X67148Y-34494D01*
X67215Y-34494D01*
X67268Y-34508D01*
X67295Y-34521D01*
X67308Y-34534D01*
X67321Y-34561D01*
X67321Y-34588D01*
X67308Y-34614D01*
X67295Y-34628D01*
X67268Y-34641D01*
X67215Y-34654D01*
X67148Y-34654D01*
X67095Y-34641D01*
X67068Y-34628D01*
X67055Y-34614D01*
X67041Y-34588D01*
X67135Y-34255D02*
X67321Y-34255D01*
X67028Y-34321D02*
X67228Y-34388D01*
X67228Y-34215D01*
X67301Y-33228D02*
X67168Y-33321D01*
X67301Y-33388D02*
X67021Y-33388D01*
X67021Y-33281D01*
X67035Y-33254D01*
X67048Y-33241D01*
X67075Y-33228D01*
X67115Y-33228D01*
X67141Y-33241D01*
X67155Y-33254D01*
X67168Y-33281D01*
X67168Y-33388D01*
X67021Y-33134D02*
X67021Y-32961D01*
X67128Y-33054D01*
X67128Y-33014D01*
X67141Y-32988D01*
X67155Y-32974D01*
X67181Y-32961D01*
X67248Y-32961D01*
X67275Y-32974D01*
X67288Y-32988D01*
X67301Y-33014D01*
X67301Y-33094D01*
X67288Y-33121D01*
X67275Y-33134D01*
X67021Y-32788D02*
X67021Y-32761D01*
X67035Y-32734D01*
X67048Y-32721D01*
X67075Y-32708D01*
X67128Y-32694D01*
X67195Y-32694D01*
X67248Y-32708D01*
X67275Y-32721D01*
X67288Y-32734D01*
X67301Y-32761D01*
X67301Y-32788D01*
X67288Y-32814D01*
X67275Y-32828D01*
X67248Y-32841D01*
X67195Y-32854D01*
X67128Y-32854D01*
X67075Y-32841D01*
X67048Y-32828D01*
X67035Y-32814D01*
X67021Y-32788D01*
X67021Y-32441D02*
X67021Y-32575D01*
X67155Y-32588D01*
X67141Y-32575D01*
X67128Y-32548D01*
X67128Y-32481D01*
X67141Y-32455D01*
X67155Y-32441D01*
X67181Y-32428D01*
X67248Y-32428D01*
X67275Y-32441D01*
X67288Y-32455D01*
X67301Y-32481D01*
X67301Y-32548D01*
X67288Y-32575D01*
X67275Y-32588D01*
X63719Y-31230D02*
X63619Y-31087D01*
X63547Y-31230D02*
X63547Y-30930D01*
X63662Y-30930D01*
X63690Y-30945D01*
X63705Y-30959D01*
X63719Y-30987D01*
X63719Y-31030D01*
X63705Y-31059D01*
X63690Y-31073D01*
X63662Y-31087D01*
X63547Y-31087D01*
X63819Y-30930D02*
X64005Y-30930D01*
X63905Y-31045D01*
X63947Y-31045D01*
X63976Y-31059D01*
X63990Y-31073D01*
X64005Y-31102D01*
X64005Y-31173D01*
X63990Y-31202D01*
X63976Y-31216D01*
X63947Y-31230D01*
X63862Y-31230D01*
X63833Y-31216D01*
X63819Y-31202D01*
X64190Y-30930D02*
X64219Y-30930D01*
X64247Y-30945D01*
X64262Y-30959D01*
X64276Y-30987D01*
X64290Y-31045D01*
X64290Y-31116D01*
X64276Y-31173D01*
X64262Y-31202D01*
X64247Y-31216D01*
X64219Y-31230D01*
X64190Y-31230D01*
X64162Y-31216D01*
X64147Y-31202D01*
X64133Y-31173D01*
X64119Y-31116D01*
X64119Y-31045D01*
X64133Y-30987D01*
X64147Y-30959D01*
X64162Y-30945D01*
X64190Y-30930D01*
X64547Y-30930D02*
X64490Y-30930D01*
X64462Y-30945D01*
X64447Y-30959D01*
X64419Y-31002D01*
X64405Y-31059D01*
X64405Y-31173D01*
X64419Y-31202D01*
X64433Y-31216D01*
X64462Y-31230D01*
X64519Y-31230D01*
X64547Y-31216D01*
X64562Y-31202D01*
X64576Y-31173D01*
X64576Y-31102D01*
X64562Y-31073D01*
X64547Y-31059D01*
X64519Y-31045D01*
X64462Y-31045D01*
X64433Y-31059D01*
X64419Y-31073D01*
X64405Y-31102D01*
X67804Y-36697D02*
X67790Y-36711D01*
X67747Y-36725D01*
X67718Y-36725D01*
X67675Y-36711D01*
X67647Y-36682D01*
X67632Y-36654D01*
X67618Y-36597D01*
X67618Y-36554D01*
X67632Y-36497D01*
X67647Y-36468D01*
X67675Y-36440D01*
X67718Y-36425D01*
X67747Y-36425D01*
X67790Y-36440D01*
X67804Y-36454D01*
X67904Y-36425D02*
X68090Y-36425D01*
X67990Y-36540D01*
X68032Y-36540D01*
X68061Y-36554D01*
X68075Y-36568D01*
X68090Y-36597D01*
X68090Y-36668D01*
X68075Y-36697D01*
X68061Y-36711D01*
X68032Y-36725D01*
X67947Y-36725D01*
X67918Y-36711D01*
X67904Y-36697D01*
X68275Y-36425D02*
X68304Y-36425D01*
X68332Y-36440D01*
X68347Y-36454D01*
X68361Y-36482D01*
X68375Y-36540D01*
X68375Y-36611D01*
X68361Y-36668D01*
X68347Y-36697D01*
X68332Y-36711D01*
X68304Y-36725D01*
X68275Y-36725D01*
X68247Y-36711D01*
X68232Y-36697D01*
X68218Y-36668D01*
X68204Y-36611D01*
X68204Y-36540D01*
X68218Y-36482D01*
X68232Y-36454D01*
X68247Y-36440D01*
X68275Y-36425D01*
X68475Y-36425D02*
X68661Y-36425D01*
X68561Y-36540D01*
X68604Y-36540D01*
X68632Y-36554D01*
X68647Y-36568D01*
X68661Y-36597D01*
X68661Y-36668D01*
X68647Y-36697D01*
X68632Y-36711D01*
X68604Y-36725D01*
X68518Y-36725D01*
X68490Y-36711D01*
X68475Y-36697D01*
X61295Y-40815D02*
X61152Y-40915D01*
X61295Y-40987D02*
X60995Y-40987D01*
X60995Y-40872D01*
X61010Y-40844D01*
X61024Y-40830D01*
X61052Y-40815D01*
X61095Y-40815D01*
X61124Y-40830D01*
X61138Y-40844D01*
X61152Y-40872D01*
X61152Y-40987D01*
X61095Y-40558D02*
X61295Y-40558D01*
X60981Y-40630D02*
X61195Y-40701D01*
X61195Y-40515D01*
X60995Y-40344D02*
X60995Y-40315D01*
X61010Y-40287D01*
X61024Y-40272D01*
X61052Y-40258D01*
X61110Y-40244D01*
X61181Y-40244D01*
X61238Y-40258D01*
X61267Y-40272D01*
X61281Y-40287D01*
X61295Y-40315D01*
X61295Y-40344D01*
X61281Y-40372D01*
X61267Y-40387D01*
X61238Y-40401D01*
X61181Y-40415D01*
X61110Y-40415D01*
X61052Y-40401D01*
X61024Y-40387D01*
X61010Y-40372D01*
X60995Y-40344D01*
X61024Y-40130D02*
X61010Y-40115D01*
X60995Y-40087D01*
X60995Y-40015D01*
X61010Y-39987D01*
X61024Y-39972D01*
X61052Y-39958D01*
X61081Y-39958D01*
X61124Y-39972D01*
X61295Y-40144D01*
X61295Y-39958D01*
X61295Y-42885D02*
X61152Y-42985D01*
X61295Y-43057D02*
X60995Y-43057D01*
X60995Y-42942D01*
X61010Y-42914D01*
X61024Y-42900D01*
X61052Y-42885D01*
X61095Y-42885D01*
X61124Y-42900D01*
X61138Y-42914D01*
X61152Y-42942D01*
X61152Y-43057D01*
X61095Y-42628D02*
X61295Y-42628D01*
X60981Y-42700D02*
X61195Y-42771D01*
X61195Y-42585D01*
X60995Y-42414D02*
X60995Y-42385D01*
X61010Y-42357D01*
X61024Y-42342D01*
X61052Y-42328D01*
X61110Y-42314D01*
X61181Y-42314D01*
X61238Y-42328D01*
X61267Y-42342D01*
X61281Y-42357D01*
X61295Y-42385D01*
X61295Y-42414D01*
X61281Y-42442D01*
X61267Y-42457D01*
X61238Y-42471D01*
X61181Y-42485D01*
X61110Y-42485D01*
X61052Y-42471D01*
X61024Y-42457D01*
X61010Y-42442D01*
X60995Y-42414D01*
X60995Y-42042D02*
X60995Y-42185D01*
X61138Y-42200D01*
X61124Y-42185D01*
X61110Y-42157D01*
X61110Y-42085D01*
X61124Y-42057D01*
X61138Y-42042D01*
X61167Y-42028D01*
X61238Y-42028D01*
X61267Y-42042D01*
X61281Y-42057D01*
X61295Y-42085D01*
X61295Y-42157D01*
X61281Y-42185D01*
X61267Y-42200D01*
X61295Y-44610D02*
X61152Y-44710D01*
X61295Y-44782D02*
X60995Y-44782D01*
X60995Y-44667D01*
X61010Y-44639D01*
X61024Y-44625D01*
X61052Y-44610D01*
X61095Y-44610D01*
X61124Y-44625D01*
X61138Y-44639D01*
X61152Y-44667D01*
X61152Y-44782D01*
X61095Y-44353D02*
X61295Y-44353D01*
X60981Y-44425D02*
X61195Y-44496D01*
X61195Y-44310D01*
X60995Y-44139D02*
X60995Y-44110D01*
X61010Y-44082D01*
X61024Y-44067D01*
X61052Y-44053D01*
X61110Y-44039D01*
X61181Y-44039D01*
X61238Y-44053D01*
X61267Y-44067D01*
X61281Y-44082D01*
X61295Y-44110D01*
X61295Y-44139D01*
X61281Y-44167D01*
X61267Y-44182D01*
X61238Y-44196D01*
X61181Y-44210D01*
X61110Y-44210D01*
X61052Y-44196D01*
X61024Y-44182D01*
X61010Y-44167D01*
X60995Y-44139D01*
X61124Y-43867D02*
X61110Y-43896D01*
X61095Y-43910D01*
X61067Y-43925D01*
X61052Y-43925D01*
X61024Y-43910D01*
X61010Y-43896D01*
X60995Y-43867D01*
X60995Y-43810D01*
X61010Y-43782D01*
X61024Y-43767D01*
X61052Y-43753D01*
X61067Y-43753D01*
X61095Y-43767D01*
X61110Y-43782D01*
X61124Y-43810D01*
X61124Y-43867D01*
X61138Y-43896D01*
X61152Y-43910D01*
X61181Y-43925D01*
X61238Y-43925D01*
X61267Y-43910D01*
X61281Y-43896D01*
X61295Y-43867D01*
X61295Y-43810D01*
X61281Y-43782D01*
X61267Y-43767D01*
X61238Y-43753D01*
X61181Y-43753D01*
X61152Y-43767D01*
X61138Y-43782D01*
X61124Y-43810D01*
X61295Y-47025D02*
X61152Y-47125D01*
X61295Y-47197D02*
X60995Y-47197D01*
X60995Y-47082D01*
X61010Y-47054D01*
X61024Y-47040D01*
X61052Y-47025D01*
X61095Y-47025D01*
X61124Y-47040D01*
X61138Y-47054D01*
X61152Y-47082D01*
X61152Y-47197D01*
X61095Y-46768D02*
X61295Y-46768D01*
X60981Y-46840D02*
X61195Y-46911D01*
X61195Y-46725D01*
X61295Y-46454D02*
X61295Y-46625D01*
X61295Y-46540D02*
X60995Y-46540D01*
X61038Y-46568D01*
X61067Y-46597D01*
X61081Y-46625D01*
X61295Y-46168D02*
X61295Y-46340D01*
X61295Y-46254D02*
X60995Y-46254D01*
X61038Y-46282D01*
X61067Y-46311D01*
X61081Y-46340D01*
G54D14*
X64744Y-39955D02*
X64644Y-39812D01*
X64572Y-39955D02*
X64572Y-39655D01*
X64687Y-39655D01*
X64715Y-39670D01*
X64730Y-39684D01*
X64744Y-39712D01*
X64744Y-39755D01*
X64730Y-39784D01*
X64715Y-39798D01*
X64687Y-39812D01*
X64572Y-39812D01*
X65001Y-39755D02*
X65001Y-39955D01*
X64930Y-39641D02*
X64858Y-39855D01*
X65044Y-39855D01*
X65215Y-39655D02*
X65244Y-39655D01*
X65272Y-39670D01*
X65287Y-39684D01*
X65301Y-39712D01*
X65315Y-39770D01*
X65315Y-39841D01*
X65301Y-39898D01*
X65287Y-39927D01*
X65272Y-39941D01*
X65244Y-39955D01*
X65215Y-39955D01*
X65187Y-39941D01*
X65172Y-39927D01*
X65158Y-39898D01*
X65144Y-39841D01*
X65144Y-39770D01*
X65158Y-39712D01*
X65172Y-39684D01*
X65187Y-39670D01*
X65215Y-39655D01*
X65415Y-39655D02*
X65601Y-39655D01*
X65501Y-39770D01*
X65544Y-39770D01*
X65572Y-39784D01*
X65587Y-39798D01*
X65601Y-39827D01*
X65601Y-39898D01*
X65587Y-39927D01*
X65572Y-39941D01*
X65544Y-39955D01*
X65458Y-39955D01*
X65430Y-39941D01*
X65415Y-39927D01*
X64744Y-42025D02*
X64644Y-41882D01*
X64572Y-42025D02*
X64572Y-41725D01*
X64687Y-41725D01*
X64715Y-41740D01*
X64730Y-41754D01*
X64744Y-41782D01*
X64744Y-41825D01*
X64730Y-41854D01*
X64715Y-41868D01*
X64687Y-41882D01*
X64572Y-41882D01*
X65001Y-41825D02*
X65001Y-42025D01*
X64930Y-41711D02*
X64858Y-41925D01*
X65044Y-41925D01*
X65215Y-41725D02*
X65244Y-41725D01*
X65272Y-41740D01*
X65287Y-41754D01*
X65301Y-41782D01*
X65315Y-41840D01*
X65315Y-41911D01*
X65301Y-41968D01*
X65287Y-41997D01*
X65272Y-42011D01*
X65244Y-42025D01*
X65215Y-42025D01*
X65187Y-42011D01*
X65172Y-41997D01*
X65158Y-41968D01*
X65144Y-41911D01*
X65144Y-41840D01*
X65158Y-41782D01*
X65172Y-41754D01*
X65187Y-41740D01*
X65215Y-41725D01*
X65572Y-41725D02*
X65515Y-41725D01*
X65487Y-41740D01*
X65472Y-41754D01*
X65444Y-41797D01*
X65430Y-41854D01*
X65430Y-41968D01*
X65444Y-41997D01*
X65458Y-42011D01*
X65487Y-42025D01*
X65544Y-42025D01*
X65572Y-42011D01*
X65587Y-41997D01*
X65601Y-41968D01*
X65601Y-41897D01*
X65587Y-41868D01*
X65572Y-41854D01*
X65544Y-41840D01*
X65487Y-41840D01*
X65458Y-41854D01*
X65444Y-41868D01*
X65430Y-41897D01*
X64744Y-44085D02*
X64644Y-43942D01*
X64572Y-44085D02*
X64572Y-43785D01*
X64687Y-43785D01*
X64715Y-43800D01*
X64730Y-43814D01*
X64744Y-43842D01*
X64744Y-43885D01*
X64730Y-43914D01*
X64715Y-43928D01*
X64687Y-43942D01*
X64572Y-43942D01*
X65001Y-43885D02*
X65001Y-44085D01*
X64930Y-43771D02*
X64858Y-43985D01*
X65044Y-43985D01*
X65215Y-43785D02*
X65244Y-43785D01*
X65272Y-43800D01*
X65287Y-43814D01*
X65301Y-43842D01*
X65315Y-43900D01*
X65315Y-43971D01*
X65301Y-44028D01*
X65287Y-44057D01*
X65272Y-44071D01*
X65244Y-44085D01*
X65215Y-44085D01*
X65187Y-44071D01*
X65172Y-44057D01*
X65158Y-44028D01*
X65144Y-43971D01*
X65144Y-43900D01*
X65158Y-43842D01*
X65172Y-43814D01*
X65187Y-43800D01*
X65215Y-43785D01*
X65458Y-44085D02*
X65515Y-44085D01*
X65544Y-44071D01*
X65558Y-44057D01*
X65587Y-44014D01*
X65601Y-43957D01*
X65601Y-43842D01*
X65587Y-43814D01*
X65572Y-43800D01*
X65544Y-43785D01*
X65487Y-43785D01*
X65458Y-43800D01*
X65444Y-43814D01*
X65430Y-43842D01*
X65430Y-43914D01*
X65444Y-43942D01*
X65458Y-43957D01*
X65487Y-43971D01*
X65544Y-43971D01*
X65572Y-43957D01*
X65587Y-43942D01*
X65601Y-43914D01*
X64744Y-46165D02*
X64644Y-46022D01*
X64572Y-46165D02*
X64572Y-45865D01*
X64687Y-45865D01*
X64715Y-45880D01*
X64730Y-45894D01*
X64744Y-45922D01*
X64744Y-45965D01*
X64730Y-45994D01*
X64715Y-46008D01*
X64687Y-46022D01*
X64572Y-46022D01*
X65001Y-45965D02*
X65001Y-46165D01*
X64930Y-45851D02*
X64858Y-46065D01*
X65044Y-46065D01*
X65315Y-46165D02*
X65144Y-46165D01*
X65230Y-46165D02*
X65230Y-45865D01*
X65201Y-45908D01*
X65172Y-45937D01*
X65144Y-45951D01*
X65430Y-45894D02*
X65444Y-45880D01*
X65472Y-45865D01*
X65544Y-45865D01*
X65572Y-45880D01*
X65587Y-45894D01*
X65601Y-45922D01*
X65601Y-45951D01*
X65587Y-45994D01*
X65415Y-46165D01*
X65601Y-46165D01*
G54D15*
X55756Y-36940D02*
X55756Y-37183D01*
X55770Y-37212D01*
X55785Y-37226D01*
X55813Y-37240D01*
X55870Y-37240D01*
X55899Y-37226D01*
X55913Y-37212D01*
X55927Y-37183D01*
X55927Y-36940D01*
X56227Y-37240D02*
X56056Y-37240D01*
X56142Y-37240D02*
X56142Y-36940D01*
X56113Y-36983D01*
X56085Y-37012D01*
X56056Y-37026D01*
X52502Y-42980D02*
X52702Y-43280D01*
X52702Y-42980D02*
X52502Y-43280D01*
X52973Y-43280D02*
X52802Y-43280D01*
X52887Y-43280D02*
X52887Y-42980D01*
X52859Y-43023D01*
X52830Y-43052D01*
X52802Y-43066D01*
X55895Y-30570D02*
X55895Y-30813D01*
X55910Y-30842D01*
X55924Y-30856D01*
X55952Y-30870D01*
X56010Y-30870D01*
X56038Y-30856D01*
X56052Y-30842D01*
X56067Y-30813D01*
X56067Y-30570D01*
X56181Y-30570D02*
X56367Y-30570D01*
X56267Y-30685D01*
X56310Y-30685D01*
X56338Y-30699D01*
X56352Y-30713D01*
X56367Y-30742D01*
X56367Y-30813D01*
X56352Y-30842D01*
X56338Y-30856D01*
X56310Y-30870D01*
X56224Y-30870D01*
X56195Y-30856D01*
X56181Y-30842D01*
X56552Y-30570D02*
X56581Y-30570D01*
X56610Y-30585D01*
X56624Y-30599D01*
X56638Y-30627D01*
X56652Y-30685D01*
X56652Y-30756D01*
X56638Y-30813D01*
X56624Y-30842D01*
X56610Y-30856D01*
X56581Y-30870D01*
X56552Y-30870D01*
X56524Y-30856D01*
X56510Y-30842D01*
X56495Y-30813D01*
X56481Y-30756D01*
X56481Y-30685D01*
X56495Y-30627D01*
X56510Y-30599D01*
X56524Y-30585D01*
X56552Y-30570D01*
X56767Y-30599D02*
X56781Y-30585D01*
X56810Y-30570D01*
X56881Y-30570D01*
X56910Y-30585D01*
X56924Y-30599D01*
X56938Y-30627D01*
X56938Y-30656D01*
X56924Y-30699D01*
X56752Y-30870D01*
X56938Y-30870D01*
X55064Y-34732D02*
X55050Y-34746D01*
X55007Y-34760D01*
X54978Y-34760D01*
X54935Y-34746D01*
X54907Y-34717D01*
X54892Y-34689D01*
X54878Y-34632D01*
X54878Y-34589D01*
X54892Y-34532D01*
X54907Y-34503D01*
X54935Y-34475D01*
X54978Y-34460D01*
X55007Y-34460D01*
X55050Y-34475D01*
X55064Y-34489D01*
X55164Y-34460D02*
X55350Y-34460D01*
X55250Y-34575D01*
X55292Y-34575D01*
X55321Y-34589D01*
X55335Y-34603D01*
X55350Y-34632D01*
X55350Y-34703D01*
X55335Y-34732D01*
X55321Y-34746D01*
X55292Y-34760D01*
X55207Y-34760D01*
X55178Y-34746D01*
X55164Y-34732D01*
X55535Y-34460D02*
X55564Y-34460D01*
X55592Y-34475D01*
X55607Y-34489D01*
X55621Y-34517D01*
X55635Y-34575D01*
X55635Y-34646D01*
X55621Y-34703D01*
X55607Y-34732D01*
X55592Y-34746D01*
X55564Y-34760D01*
X55535Y-34760D01*
X55507Y-34746D01*
X55492Y-34732D01*
X55478Y-34703D01*
X55464Y-34646D01*
X55464Y-34575D01*
X55478Y-34517D01*
X55492Y-34489D01*
X55507Y-34475D01*
X55535Y-34460D01*
X55778Y-34760D02*
X55835Y-34760D01*
X55864Y-34746D01*
X55878Y-34732D01*
X55907Y-34689D01*
X55921Y-34632D01*
X55921Y-34517D01*
X55907Y-34489D01*
X55892Y-34475D01*
X55864Y-34460D01*
X55807Y-34460D01*
X55778Y-34475D01*
X55764Y-34489D01*
X55750Y-34517D01*
X55750Y-34589D01*
X55764Y-34617D01*
X55778Y-34632D01*
X55807Y-34646D01*
X55864Y-34646D01*
X55892Y-34632D01*
X55907Y-34617D01*
X55921Y-34589D01*
X56387Y-44030D02*
X56401Y-44045D01*
X56415Y-44087D01*
X56415Y-44116D01*
X56401Y-44159D01*
X56372Y-44187D01*
X56344Y-44202D01*
X56287Y-44216D01*
X56244Y-44216D01*
X56187Y-44202D01*
X56158Y-44187D01*
X56130Y-44159D01*
X56115Y-44116D01*
X56115Y-44087D01*
X56130Y-44045D01*
X56144Y-44030D01*
X56115Y-43759D02*
X56115Y-43902D01*
X56258Y-43916D01*
X56244Y-43902D01*
X56230Y-43873D01*
X56230Y-43802D01*
X56244Y-43773D01*
X56258Y-43759D01*
X56287Y-43745D01*
X56358Y-43745D01*
X56387Y-43759D01*
X56401Y-43773D01*
X56415Y-43802D01*
X56415Y-43873D01*
X56401Y-43902D01*
X56387Y-43916D01*
X56115Y-43559D02*
X56115Y-43530D01*
X56130Y-43502D01*
X56144Y-43487D01*
X56172Y-43473D01*
X56230Y-43459D01*
X56301Y-43459D01*
X56358Y-43473D01*
X56387Y-43487D01*
X56401Y-43502D01*
X56415Y-43530D01*
X56415Y-43559D01*
X56401Y-43587D01*
X56387Y-43602D01*
X56358Y-43616D01*
X56301Y-43630D01*
X56230Y-43630D01*
X56172Y-43616D01*
X56144Y-43602D01*
X56130Y-43587D01*
X56115Y-43559D01*
X56415Y-43173D02*
X56415Y-43345D01*
X56415Y-43259D02*
X56115Y-43259D01*
X56158Y-43287D01*
X56187Y-43316D01*
X56201Y-43345D01*
X57015Y-44030D02*
X56872Y-44130D01*
X57015Y-44202D02*
X56715Y-44202D01*
X56715Y-44087D01*
X56730Y-44059D01*
X56744Y-44045D01*
X56772Y-44030D01*
X56815Y-44030D01*
X56844Y-44045D01*
X56858Y-44059D01*
X56872Y-44087D01*
X56872Y-44202D01*
X56715Y-43759D02*
X56715Y-43902D01*
X56858Y-43916D01*
X56844Y-43902D01*
X56830Y-43873D01*
X56830Y-43802D01*
X56844Y-43773D01*
X56858Y-43759D01*
X56887Y-43745D01*
X56958Y-43745D01*
X56987Y-43759D01*
X57001Y-43773D01*
X57015Y-43802D01*
X57015Y-43873D01*
X57001Y-43902D01*
X56987Y-43916D01*
X56715Y-43559D02*
X56715Y-43530D01*
X56730Y-43502D01*
X56744Y-43487D01*
X56772Y-43473D01*
X56830Y-43459D01*
X56901Y-43459D01*
X56958Y-43473D01*
X56987Y-43487D01*
X57001Y-43502D01*
X57015Y-43530D01*
X57015Y-43559D01*
X57001Y-43587D01*
X56987Y-43602D01*
X56958Y-43616D01*
X56901Y-43630D01*
X56830Y-43630D01*
X56772Y-43616D01*
X56744Y-43602D01*
X56730Y-43587D01*
X56715Y-43559D01*
X57015Y-43173D02*
X57015Y-43345D01*
X57015Y-43259D02*
X56715Y-43259D01*
X56758Y-43287D01*
X56787Y-43316D01*
X56801Y-43345D01*
X51874Y-38905D02*
X51774Y-38762D01*
X51702Y-38905D02*
X51702Y-38605D01*
X51817Y-38605D01*
X51845Y-38620D01*
X51860Y-38634D01*
X51874Y-38662D01*
X51874Y-38705D01*
X51860Y-38734D01*
X51845Y-38748D01*
X51817Y-38762D01*
X51702Y-38762D01*
X52145Y-38605D02*
X52002Y-38605D01*
X51988Y-38748D01*
X52002Y-38734D01*
X52031Y-38720D01*
X52102Y-38720D01*
X52131Y-38734D01*
X52145Y-38748D01*
X52160Y-38777D01*
X52160Y-38848D01*
X52145Y-38877D01*
X52131Y-38891D01*
X52102Y-38905D01*
X52031Y-38905D01*
X52002Y-38891D01*
X51988Y-38877D01*
X52345Y-38605D02*
X52374Y-38605D01*
X52402Y-38620D01*
X52417Y-38634D01*
X52431Y-38662D01*
X52445Y-38720D01*
X52445Y-38791D01*
X52431Y-38848D01*
X52417Y-38877D01*
X52402Y-38891D01*
X52374Y-38905D01*
X52345Y-38905D01*
X52317Y-38891D01*
X52302Y-38877D01*
X52288Y-38848D01*
X52274Y-38791D01*
X52274Y-38720D01*
X52288Y-38662D01*
X52302Y-38634D01*
X52317Y-38620D01*
X52345Y-38605D01*
X52560Y-38634D02*
X52574Y-38620D01*
X52602Y-38605D01*
X52674Y-38605D01*
X52702Y-38620D01*
X52717Y-38634D01*
X52731Y-38662D01*
X52731Y-38691D01*
X52717Y-38734D01*
X52545Y-38905D01*
X52731Y-38905D01*
X61570Y-38376D02*
X61612Y-38390D01*
X61684Y-38390D01*
X61712Y-38376D01*
X61727Y-38362D01*
X61741Y-38333D01*
X61741Y-38305D01*
X61727Y-38276D01*
X61712Y-38262D01*
X61684Y-38247D01*
X61627Y-38233D01*
X61598Y-38219D01*
X61584Y-38205D01*
X61570Y-38176D01*
X61570Y-38147D01*
X61584Y-38119D01*
X61598Y-38105D01*
X61627Y-38090D01*
X61698Y-38090D01*
X61741Y-38105D01*
X61841Y-38090D02*
X61912Y-38390D01*
X61970Y-38176D01*
X62027Y-38390D01*
X62098Y-38090D01*
X62198Y-38119D02*
X62212Y-38105D01*
X62241Y-38090D01*
X62312Y-38090D01*
X62341Y-38105D01*
X62355Y-38119D01*
X62370Y-38147D01*
X62370Y-38176D01*
X62355Y-38219D01*
X62184Y-38390D01*
X62370Y-38390D01*
X50281Y-38691D02*
X50295Y-38650D01*
X50295Y-38582D01*
X50281Y-38554D01*
X50267Y-38541D01*
X50238Y-38527D01*
X50210Y-38527D01*
X50181Y-38541D01*
X50167Y-38554D01*
X50152Y-38582D01*
X50138Y-38636D01*
X50124Y-38663D01*
X50110Y-38677D01*
X50081Y-38691D01*
X50052Y-38691D01*
X50024Y-38677D01*
X50010Y-38663D01*
X49995Y-38636D01*
X49995Y-38568D01*
X50010Y-38527D01*
X49995Y-38432D02*
X50295Y-38364D01*
X50081Y-38310D01*
X50295Y-38255D01*
X49995Y-38187D01*
X49995Y-38105D02*
X49995Y-37928D01*
X50110Y-38024D01*
X50110Y-37983D01*
X50124Y-37956D01*
X50138Y-37942D01*
X50167Y-37928D01*
X50238Y-37928D01*
X50267Y-37942D01*
X50281Y-37956D01*
X50295Y-37983D01*
X50295Y-38065D01*
X50281Y-38092D01*
X50267Y-38105D01*
X55312Y-43275D02*
X55326Y-43290D01*
X55340Y-43332D01*
X55340Y-43361D01*
X55326Y-43404D01*
X55297Y-43432D01*
X55269Y-43447D01*
X55212Y-43461D01*
X55169Y-43461D01*
X55112Y-43447D01*
X55083Y-43432D01*
X55055Y-43404D01*
X55040Y-43361D01*
X55040Y-43332D01*
X55055Y-43290D01*
X55069Y-43275D01*
X55040Y-43004D02*
X55040Y-43147D01*
X55183Y-43161D01*
X55169Y-43147D01*
X55155Y-43118D01*
X55155Y-43047D01*
X55169Y-43018D01*
X55183Y-43004D01*
X55212Y-42990D01*
X55283Y-42990D01*
X55312Y-43004D01*
X55326Y-43018D01*
X55340Y-43047D01*
X55340Y-43118D01*
X55326Y-43147D01*
X55312Y-43161D01*
X55040Y-42804D02*
X55040Y-42775D01*
X55055Y-42747D01*
X55069Y-42732D01*
X55097Y-42718D01*
X55155Y-42704D01*
X55226Y-42704D01*
X55283Y-42718D01*
X55312Y-42732D01*
X55326Y-42747D01*
X55340Y-42775D01*
X55340Y-42804D01*
X55326Y-42832D01*
X55312Y-42847D01*
X55283Y-42861D01*
X55226Y-42875D01*
X55155Y-42875D01*
X55097Y-42861D01*
X55069Y-42847D01*
X55055Y-42832D01*
X55040Y-42804D01*
X55069Y-42590D02*
X55055Y-42575D01*
X55040Y-42547D01*
X55040Y-42475D01*
X55055Y-42447D01*
X55069Y-42432D01*
X55097Y-42418D01*
X55126Y-42418D01*
X55169Y-42432D01*
X55340Y-42604D01*
X55340Y-42418D01*
X58022Y-38320D02*
X58036Y-38335D01*
X58050Y-38377D01*
X58050Y-38406D01*
X58036Y-38449D01*
X58007Y-38477D01*
X57979Y-38492D01*
X57922Y-38506D01*
X57879Y-38506D01*
X57822Y-38492D01*
X57793Y-38477D01*
X57765Y-38449D01*
X57750Y-38406D01*
X57750Y-38377D01*
X57765Y-38335D01*
X57779Y-38320D01*
X57750Y-38049D02*
X57750Y-38192D01*
X57893Y-38206D01*
X57879Y-38192D01*
X57865Y-38163D01*
X57865Y-38092D01*
X57879Y-38063D01*
X57893Y-38049D01*
X57922Y-38035D01*
X57993Y-38035D01*
X58022Y-38049D01*
X58036Y-38063D01*
X58050Y-38092D01*
X58050Y-38163D01*
X58036Y-38192D01*
X58022Y-38206D01*
X57750Y-37849D02*
X57750Y-37820D01*
X57765Y-37792D01*
X57779Y-37777D01*
X57807Y-37763D01*
X57865Y-37749D01*
X57936Y-37749D01*
X57993Y-37763D01*
X58022Y-37777D01*
X58036Y-37792D01*
X58050Y-37820D01*
X58050Y-37849D01*
X58036Y-37877D01*
X58022Y-37892D01*
X57993Y-37906D01*
X57936Y-37920D01*
X57865Y-37920D01*
X57807Y-37906D01*
X57779Y-37892D01*
X57765Y-37877D01*
X57750Y-37849D01*
X57750Y-37649D02*
X57750Y-37463D01*
X57865Y-37563D01*
X57865Y-37520D01*
X57879Y-37492D01*
X57893Y-37477D01*
X57922Y-37463D01*
X57993Y-37463D01*
X58022Y-37477D01*
X58036Y-37492D01*
X58050Y-37520D01*
X58050Y-37606D01*
X58036Y-37635D01*
X58022Y-37649D01*
X54845Y-47225D02*
X54702Y-47325D01*
X54845Y-47397D02*
X54545Y-47397D01*
X54545Y-47282D01*
X54560Y-47254D01*
X54574Y-47240D01*
X54602Y-47225D01*
X54645Y-47225D01*
X54674Y-47240D01*
X54688Y-47254D01*
X54702Y-47282D01*
X54702Y-47397D01*
X54545Y-46954D02*
X54545Y-47097D01*
X54688Y-47111D01*
X54674Y-47097D01*
X54660Y-47068D01*
X54660Y-46997D01*
X54674Y-46968D01*
X54688Y-46954D01*
X54717Y-46940D01*
X54788Y-46940D01*
X54817Y-46954D01*
X54831Y-46968D01*
X54845Y-46997D01*
X54845Y-47068D01*
X54831Y-47097D01*
X54817Y-47111D01*
X54545Y-46754D02*
X54545Y-46725D01*
X54560Y-46697D01*
X54574Y-46682D01*
X54602Y-46668D01*
X54660Y-46654D01*
X54731Y-46654D01*
X54788Y-46668D01*
X54817Y-46682D01*
X54831Y-46697D01*
X54845Y-46725D01*
X54845Y-46754D01*
X54831Y-46782D01*
X54817Y-46797D01*
X54788Y-46811D01*
X54731Y-46825D01*
X54660Y-46825D01*
X54602Y-46811D01*
X54574Y-46797D01*
X54560Y-46782D01*
X54545Y-46754D01*
X54545Y-46554D02*
X54545Y-46368D01*
X54660Y-46468D01*
X54660Y-46425D01*
X54674Y-46397D01*
X54688Y-46382D01*
X54717Y-46368D01*
X54788Y-46368D01*
X54817Y-46382D01*
X54831Y-46397D01*
X54845Y-46425D01*
X54845Y-46511D01*
X54831Y-46540D01*
X54817Y-46554D01*
X55665Y-47225D02*
X55522Y-47325D01*
X55665Y-47397D02*
X55365Y-47397D01*
X55365Y-47282D01*
X55380Y-47254D01*
X55394Y-47240D01*
X55422Y-47225D01*
X55465Y-47225D01*
X55494Y-47240D01*
X55508Y-47254D01*
X55522Y-47282D01*
X55522Y-47397D01*
X55365Y-46954D02*
X55365Y-47097D01*
X55508Y-47111D01*
X55494Y-47097D01*
X55480Y-47068D01*
X55480Y-46997D01*
X55494Y-46968D01*
X55508Y-46954D01*
X55537Y-46940D01*
X55608Y-46940D01*
X55637Y-46954D01*
X55651Y-46968D01*
X55665Y-46997D01*
X55665Y-47068D01*
X55651Y-47097D01*
X55637Y-47111D01*
X55365Y-46754D02*
X55365Y-46725D01*
X55380Y-46697D01*
X55394Y-46682D01*
X55422Y-46668D01*
X55480Y-46654D01*
X55551Y-46654D01*
X55608Y-46668D01*
X55637Y-46682D01*
X55651Y-46697D01*
X55665Y-46725D01*
X55665Y-46754D01*
X55651Y-46782D01*
X55637Y-46797D01*
X55608Y-46811D01*
X55551Y-46825D01*
X55480Y-46825D01*
X55422Y-46811D01*
X55394Y-46797D01*
X55380Y-46782D01*
X55365Y-46754D01*
X55465Y-46397D02*
X55665Y-46397D01*
X55351Y-46468D02*
X55565Y-46540D01*
X55565Y-46354D01*
X52209Y-48156D02*
X52251Y-48170D01*
X52323Y-48170D01*
X52351Y-48156D01*
X52366Y-48142D01*
X52380Y-48113D01*
X52380Y-48085D01*
X52366Y-48056D01*
X52351Y-48042D01*
X52323Y-48027D01*
X52266Y-48013D01*
X52237Y-47999D01*
X52223Y-47985D01*
X52209Y-47956D01*
X52209Y-47927D01*
X52223Y-47899D01*
X52237Y-47885D01*
X52266Y-47870D01*
X52337Y-47870D01*
X52380Y-47885D01*
X52480Y-47870D02*
X52551Y-48170D01*
X52609Y-47956D01*
X52666Y-48170D01*
X52737Y-47870D01*
X52909Y-47870D02*
X52937Y-47870D01*
X52966Y-47885D01*
X52980Y-47899D01*
X52994Y-47927D01*
X53009Y-47985D01*
X53009Y-48056D01*
X52994Y-48113D01*
X52980Y-48142D01*
X52966Y-48156D01*
X52937Y-48170D01*
X52909Y-48170D01*
X52880Y-48156D01*
X52866Y-48142D01*
X52851Y-48113D01*
X52837Y-48056D01*
X52837Y-47985D01*
X52851Y-47927D01*
X52866Y-47899D01*
X52880Y-47885D01*
X52909Y-47870D01*
X57227Y-48156D02*
X57270Y-48170D01*
X57341Y-48170D01*
X57370Y-48156D01*
X57384Y-48142D01*
X57398Y-48113D01*
X57398Y-48085D01*
X57384Y-48056D01*
X57370Y-48042D01*
X57341Y-48027D01*
X57284Y-48013D01*
X57255Y-47999D01*
X57241Y-47985D01*
X57227Y-47956D01*
X57227Y-47927D01*
X57241Y-47899D01*
X57255Y-47885D01*
X57284Y-47870D01*
X57355Y-47870D01*
X57398Y-47885D01*
X57498Y-47870D02*
X57570Y-48170D01*
X57627Y-47956D01*
X57684Y-48170D01*
X57755Y-47870D01*
X58027Y-48170D02*
X57855Y-48170D01*
X57941Y-48170D02*
X57941Y-47870D01*
X57912Y-47913D01*
X57884Y-47942D01*
X57855Y-47956D01*
X54570Y-45175D02*
X54570Y-44875D01*
X54670Y-45090D01*
X54770Y-44875D01*
X54770Y-45175D01*
X54970Y-44875D02*
X55027Y-44875D01*
X55055Y-44890D01*
X55084Y-44918D01*
X55098Y-44975D01*
X55098Y-45075D01*
X55084Y-45132D01*
X55055Y-45161D01*
X55027Y-45175D01*
X54970Y-45175D01*
X54941Y-45161D01*
X54912Y-45132D01*
X54898Y-45075D01*
X54898Y-44975D01*
X54912Y-44918D01*
X54941Y-44890D01*
X54970Y-44875D01*
X55227Y-45175D02*
X55227Y-44875D01*
X55298Y-44875D01*
X55341Y-44890D01*
X55370Y-44918D01*
X55384Y-44947D01*
X55398Y-45004D01*
X55398Y-45047D01*
X55384Y-45104D01*
X55370Y-45132D01*
X55341Y-45161D01*
X55298Y-45175D01*
X55227Y-45175D01*
X55684Y-45175D02*
X55512Y-45175D01*
X55598Y-45175D02*
X55598Y-44875D01*
X55570Y-44918D01*
X55541Y-44947D01*
X55512Y-44961D01*
X52549Y-37902D02*
X52535Y-37916D01*
X52492Y-37930D01*
X52463Y-37930D01*
X52420Y-37916D01*
X52392Y-37887D01*
X52377Y-37859D01*
X52363Y-37802D01*
X52363Y-37759D01*
X52377Y-37702D01*
X52392Y-37673D01*
X52420Y-37645D01*
X52463Y-37630D01*
X52492Y-37630D01*
X52535Y-37645D01*
X52549Y-37659D01*
X52820Y-37630D02*
X52677Y-37630D01*
X52663Y-37773D01*
X52677Y-37759D01*
X52706Y-37745D01*
X52777Y-37745D01*
X52806Y-37759D01*
X52820Y-37773D01*
X52835Y-37802D01*
X52835Y-37873D01*
X52820Y-37902D01*
X52806Y-37916D01*
X52777Y-37930D01*
X52706Y-37930D01*
X52677Y-37916D01*
X52663Y-37902D01*
X53020Y-37630D02*
X53049Y-37630D01*
X53077Y-37645D01*
X53092Y-37659D01*
X53106Y-37687D01*
X53120Y-37745D01*
X53120Y-37816D01*
X53106Y-37873D01*
X53092Y-37902D01*
X53077Y-37916D01*
X53049Y-37930D01*
X53020Y-37930D01*
X52992Y-37916D01*
X52977Y-37902D01*
X52963Y-37873D01*
X52949Y-37816D01*
X52949Y-37745D01*
X52963Y-37687D01*
X52977Y-37659D01*
X52992Y-37645D01*
X53020Y-37630D01*
X53377Y-37730D02*
X53377Y-37930D01*
X53306Y-37616D02*
X53235Y-37830D01*
X53420Y-37830D01*
X52159Y-41127D02*
X52145Y-41141D01*
X52102Y-41155D01*
X52073Y-41155D01*
X52030Y-41141D01*
X52002Y-41112D01*
X51987Y-41084D01*
X51973Y-41027D01*
X51973Y-40984D01*
X51987Y-40927D01*
X52002Y-40898D01*
X52030Y-40870D01*
X52073Y-40855D01*
X52102Y-40855D01*
X52145Y-40870D01*
X52159Y-40884D01*
X52430Y-40855D02*
X52287Y-40855D01*
X52273Y-40998D01*
X52287Y-40984D01*
X52316Y-40970D01*
X52387Y-40970D01*
X52416Y-40984D01*
X52430Y-40998D01*
X52445Y-41027D01*
X52445Y-41098D01*
X52430Y-41127D01*
X52416Y-41141D01*
X52387Y-41155D01*
X52316Y-41155D01*
X52287Y-41141D01*
X52273Y-41127D01*
X52630Y-40855D02*
X52659Y-40855D01*
X52687Y-40870D01*
X52702Y-40884D01*
X52716Y-40912D01*
X52730Y-40970D01*
X52730Y-41041D01*
X52716Y-41098D01*
X52702Y-41127D01*
X52687Y-41141D01*
X52659Y-41155D01*
X52630Y-41155D01*
X52602Y-41141D01*
X52587Y-41127D01*
X52573Y-41098D01*
X52559Y-41041D01*
X52559Y-40970D01*
X52573Y-40912D01*
X52587Y-40884D01*
X52602Y-40870D01*
X52630Y-40855D01*
X53002Y-40855D02*
X52859Y-40855D01*
X52845Y-40998D01*
X52859Y-40984D01*
X52887Y-40970D01*
X52959Y-40970D01*
X52987Y-40984D01*
X53002Y-40998D01*
X53016Y-41027D01*
X53016Y-41098D01*
X53002Y-41127D01*
X52987Y-41141D01*
X52959Y-41155D01*
X52887Y-41155D01*
X52859Y-41141D01*
X52845Y-41127D01*
G54D14*
X48779Y-47692D02*
X48765Y-47706D01*
X48722Y-47720D01*
X48693Y-47720D01*
X48650Y-47706D01*
X48622Y-47677D01*
X48607Y-47649D01*
X48593Y-47592D01*
X48593Y-47549D01*
X48607Y-47492D01*
X48622Y-47463D01*
X48650Y-47435D01*
X48693Y-47420D01*
X48722Y-47420D01*
X48765Y-47435D01*
X48779Y-47449D01*
X49050Y-47420D02*
X48907Y-47420D01*
X48893Y-47563D01*
X48907Y-47549D01*
X48936Y-47535D01*
X49007Y-47535D01*
X49036Y-47549D01*
X49050Y-47563D01*
X49065Y-47592D01*
X49065Y-47663D01*
X49050Y-47692D01*
X49036Y-47706D01*
X49007Y-47720D01*
X48936Y-47720D01*
X48907Y-47706D01*
X48893Y-47692D01*
X49250Y-47420D02*
X49279Y-47420D01*
X49307Y-47435D01*
X49322Y-47449D01*
X49336Y-47477D01*
X49350Y-47535D01*
X49350Y-47606D01*
X49336Y-47663D01*
X49322Y-47692D01*
X49307Y-47706D01*
X49279Y-47720D01*
X49250Y-47720D01*
X49222Y-47706D01*
X49207Y-47692D01*
X49193Y-47663D01*
X49179Y-47606D01*
X49179Y-47535D01*
X49193Y-47477D01*
X49207Y-47449D01*
X49222Y-47435D01*
X49250Y-47420D01*
X49607Y-47420D02*
X49550Y-47420D01*
X49522Y-47435D01*
X49507Y-47449D01*
X49479Y-47492D01*
X49465Y-47549D01*
X49465Y-47663D01*
X49479Y-47692D01*
X49493Y-47706D01*
X49522Y-47720D01*
X49579Y-47720D01*
X49607Y-47706D01*
X49622Y-47692D01*
X49636Y-47663D01*
X49636Y-47592D01*
X49622Y-47563D01*
X49607Y-47549D01*
X49579Y-47535D01*
X49522Y-47535D01*
X49493Y-47549D01*
X49479Y-47563D01*
X49465Y-47592D01*
X50012Y-42710D02*
X50026Y-42725D01*
X50040Y-42767D01*
X50040Y-42796D01*
X50026Y-42839D01*
X49997Y-42867D01*
X49969Y-42882D01*
X49912Y-42896D01*
X49869Y-42896D01*
X49812Y-42882D01*
X49783Y-42867D01*
X49755Y-42839D01*
X49740Y-42796D01*
X49740Y-42767D01*
X49755Y-42725D01*
X49769Y-42710D01*
X49740Y-42439D02*
X49740Y-42582D01*
X49883Y-42596D01*
X49869Y-42582D01*
X49855Y-42553D01*
X49855Y-42482D01*
X49869Y-42453D01*
X49883Y-42439D01*
X49912Y-42425D01*
X49983Y-42425D01*
X50012Y-42439D01*
X50026Y-42453D01*
X50040Y-42482D01*
X50040Y-42553D01*
X50026Y-42582D01*
X50012Y-42596D01*
X49740Y-42239D02*
X49740Y-42210D01*
X49755Y-42182D01*
X49769Y-42167D01*
X49797Y-42153D01*
X49855Y-42139D01*
X49926Y-42139D01*
X49983Y-42153D01*
X50012Y-42167D01*
X50026Y-42182D01*
X50040Y-42210D01*
X50040Y-42239D01*
X50026Y-42267D01*
X50012Y-42282D01*
X49983Y-42296D01*
X49926Y-42310D01*
X49855Y-42310D01*
X49797Y-42296D01*
X49769Y-42282D01*
X49755Y-42267D01*
X49740Y-42239D01*
X49740Y-42039D02*
X49740Y-41839D01*
X50040Y-41967D01*
G54D15*
X51554Y-42382D02*
X51540Y-42396D01*
X51497Y-42410D01*
X51468Y-42410D01*
X51425Y-42396D01*
X51397Y-42367D01*
X51382Y-42339D01*
X51368Y-42282D01*
X51368Y-42239D01*
X51382Y-42182D01*
X51397Y-42153D01*
X51425Y-42125D01*
X51468Y-42110D01*
X51497Y-42110D01*
X51540Y-42125D01*
X51554Y-42139D01*
X51825Y-42110D02*
X51682Y-42110D01*
X51668Y-42253D01*
X51682Y-42239D01*
X51711Y-42225D01*
X51782Y-42225D01*
X51811Y-42239D01*
X51825Y-42253D01*
X51840Y-42282D01*
X51840Y-42353D01*
X51825Y-42382D01*
X51811Y-42396D01*
X51782Y-42410D01*
X51711Y-42410D01*
X51682Y-42396D01*
X51668Y-42382D01*
X52025Y-42110D02*
X52054Y-42110D01*
X52082Y-42125D01*
X52097Y-42139D01*
X52111Y-42167D01*
X52125Y-42225D01*
X52125Y-42296D01*
X52111Y-42353D01*
X52097Y-42382D01*
X52082Y-42396D01*
X52054Y-42410D01*
X52025Y-42410D01*
X51997Y-42396D01*
X51982Y-42382D01*
X51968Y-42353D01*
X51954Y-42296D01*
X51954Y-42225D01*
X51968Y-42167D01*
X51982Y-42139D01*
X51997Y-42125D01*
X52025Y-42110D01*
X52297Y-42239D02*
X52268Y-42225D01*
X52254Y-42210D01*
X52240Y-42182D01*
X52240Y-42167D01*
X52254Y-42139D01*
X52268Y-42125D01*
X52297Y-42110D01*
X52354Y-42110D01*
X52382Y-42125D01*
X52397Y-42139D01*
X52411Y-42167D01*
X52411Y-42182D01*
X52397Y-42210D01*
X52382Y-42225D01*
X52354Y-42239D01*
X52297Y-42239D01*
X52268Y-42253D01*
X52254Y-42267D01*
X52240Y-42296D01*
X52240Y-42353D01*
X52254Y-42382D01*
X52268Y-42396D01*
X52297Y-42410D01*
X52354Y-42410D01*
X52382Y-42396D01*
X52397Y-42382D01*
X52411Y-42353D01*
X52411Y-42296D01*
X52397Y-42267D01*
X52382Y-42253D01*
X52354Y-42239D01*
X58686Y-36625D02*
X58857Y-36625D01*
X58772Y-36925D02*
X58772Y-36625D01*
X58957Y-36925D02*
X58957Y-36625D01*
X59072Y-36625D01*
X59100Y-36640D01*
X59115Y-36654D01*
X59129Y-36682D01*
X59129Y-36725D01*
X59115Y-36754D01*
X59100Y-36768D01*
X59072Y-36782D01*
X58957Y-36782D01*
X59415Y-36925D02*
X59243Y-36925D01*
X59329Y-36925D02*
X59329Y-36625D01*
X59300Y-36668D01*
X59272Y-36697D01*
X59243Y-36711D01*
X49355Y-35024D02*
X49598Y-35024D01*
X49627Y-35010D01*
X49641Y-34995D01*
X49655Y-34967D01*
X49655Y-34910D01*
X49641Y-34881D01*
X49627Y-34867D01*
X49598Y-34852D01*
X49355Y-34852D01*
X49355Y-34567D02*
X49355Y-34709D01*
X49498Y-34724D01*
X49484Y-34709D01*
X49470Y-34681D01*
X49470Y-34609D01*
X49484Y-34581D01*
X49498Y-34567D01*
X49527Y-34552D01*
X49598Y-34552D01*
X49627Y-34567D01*
X49641Y-34581D01*
X49655Y-34609D01*
X49655Y-34681D01*
X49641Y-34709D01*
X49627Y-34724D01*
X49355Y-34367D02*
X49355Y-34338D01*
X49370Y-34310D01*
X49384Y-34295D01*
X49412Y-34281D01*
X49470Y-34267D01*
X49541Y-34267D01*
X49598Y-34281D01*
X49627Y-34295D01*
X49641Y-34310D01*
X49655Y-34338D01*
X49655Y-34367D01*
X49641Y-34395D01*
X49627Y-34410D01*
X49598Y-34424D01*
X49541Y-34438D01*
X49470Y-34438D01*
X49412Y-34424D01*
X49384Y-34410D01*
X49370Y-34395D01*
X49355Y-34367D01*
X49655Y-33981D02*
X49655Y-34152D01*
X49655Y-34067D02*
X49355Y-34067D01*
X49398Y-34095D01*
X49427Y-34124D01*
X49441Y-34152D01*
X50890Y-38205D02*
X50747Y-38305D01*
X50890Y-38377D02*
X50590Y-38377D01*
X50590Y-38262D01*
X50605Y-38234D01*
X50619Y-38220D01*
X50647Y-38205D01*
X50690Y-38205D01*
X50719Y-38220D01*
X50733Y-38234D01*
X50747Y-38262D01*
X50747Y-38377D01*
X50590Y-37934D02*
X50590Y-38077D01*
X50733Y-38091D01*
X50719Y-38077D01*
X50705Y-38048D01*
X50705Y-37977D01*
X50719Y-37948D01*
X50733Y-37934D01*
X50762Y-37920D01*
X50833Y-37920D01*
X50862Y-37934D01*
X50876Y-37948D01*
X50890Y-37977D01*
X50890Y-38048D01*
X50876Y-38077D01*
X50862Y-38091D01*
X50590Y-37734D02*
X50590Y-37705D01*
X50605Y-37677D01*
X50619Y-37662D01*
X50647Y-37648D01*
X50705Y-37634D01*
X50776Y-37634D01*
X50833Y-37648D01*
X50862Y-37662D01*
X50876Y-37677D01*
X50890Y-37705D01*
X50890Y-37734D01*
X50876Y-37762D01*
X50862Y-37777D01*
X50833Y-37791D01*
X50776Y-37805D01*
X50705Y-37805D01*
X50647Y-37791D01*
X50619Y-37777D01*
X50605Y-37762D01*
X50590Y-37734D01*
X50590Y-37362D02*
X50590Y-37505D01*
X50733Y-37520D01*
X50719Y-37505D01*
X50705Y-37477D01*
X50705Y-37405D01*
X50719Y-37377D01*
X50733Y-37362D01*
X50762Y-37348D01*
X50833Y-37348D01*
X50862Y-37362D01*
X50876Y-37377D01*
X50890Y-37405D01*
X50890Y-37477D01*
X50876Y-37505D01*
X50862Y-37520D01*
X48877Y-32315D02*
X48891Y-32330D01*
X48905Y-32372D01*
X48905Y-32401D01*
X48891Y-32444D01*
X48862Y-32472D01*
X48834Y-32487D01*
X48777Y-32501D01*
X48734Y-32501D01*
X48677Y-32487D01*
X48648Y-32472D01*
X48620Y-32444D01*
X48605Y-32401D01*
X48605Y-32372D01*
X48620Y-32330D01*
X48634Y-32315D01*
X48605Y-32044D02*
X48605Y-32187D01*
X48748Y-32201D01*
X48734Y-32187D01*
X48720Y-32158D01*
X48720Y-32087D01*
X48734Y-32058D01*
X48748Y-32044D01*
X48777Y-32030D01*
X48848Y-32030D01*
X48877Y-32044D01*
X48891Y-32058D01*
X48905Y-32087D01*
X48905Y-32158D01*
X48891Y-32187D01*
X48877Y-32201D01*
X48605Y-31844D02*
X48605Y-31815D01*
X48620Y-31787D01*
X48634Y-31772D01*
X48662Y-31758D01*
X48720Y-31744D01*
X48791Y-31744D01*
X48848Y-31758D01*
X48877Y-31772D01*
X48891Y-31787D01*
X48905Y-31815D01*
X48905Y-31844D01*
X48891Y-31872D01*
X48877Y-31887D01*
X48848Y-31901D01*
X48791Y-31915D01*
X48720Y-31915D01*
X48662Y-31901D01*
X48634Y-31887D01*
X48620Y-31872D01*
X48605Y-31844D01*
X48905Y-31601D02*
X48905Y-31544D01*
X48891Y-31515D01*
X48877Y-31501D01*
X48834Y-31472D01*
X48777Y-31458D01*
X48662Y-31458D01*
X48634Y-31472D01*
X48620Y-31487D01*
X48605Y-31515D01*
X48605Y-31572D01*
X48620Y-31601D01*
X48634Y-31615D01*
X48662Y-31630D01*
X48734Y-31630D01*
X48762Y-31615D01*
X48777Y-31601D01*
X48791Y-31572D01*
X48791Y-31515D01*
X48777Y-31487D01*
X48762Y-31472D01*
X48734Y-31458D01*
X56512Y-36715D02*
X56512Y-36415D01*
X56627Y-36415D01*
X56655Y-36430D01*
X56670Y-36444D01*
X56684Y-36472D01*
X56684Y-36515D01*
X56670Y-36544D01*
X56655Y-36558D01*
X56627Y-36572D01*
X56512Y-36572D01*
X56955Y-36415D02*
X56812Y-36415D01*
X56798Y-36558D01*
X56812Y-36544D01*
X56841Y-36530D01*
X56912Y-36530D01*
X56941Y-36544D01*
X56955Y-36558D01*
X56970Y-36587D01*
X56970Y-36658D01*
X56955Y-36687D01*
X56941Y-36701D01*
X56912Y-36715D01*
X56841Y-36715D01*
X56812Y-36701D01*
X56798Y-36687D01*
X57155Y-36415D02*
X57184Y-36415D01*
X57212Y-36430D01*
X57227Y-36444D01*
X57241Y-36472D01*
X57255Y-36530D01*
X57255Y-36601D01*
X57241Y-36658D01*
X57227Y-36687D01*
X57212Y-36701D01*
X57184Y-36715D01*
X57155Y-36715D01*
X57127Y-36701D01*
X57112Y-36687D01*
X57098Y-36658D01*
X57084Y-36601D01*
X57084Y-36530D01*
X57098Y-36472D01*
X57112Y-36444D01*
X57127Y-36430D01*
X57155Y-36415D01*
X57541Y-36715D02*
X57370Y-36715D01*
X57455Y-36715D02*
X57455Y-36415D01*
X57427Y-36458D01*
X57398Y-36487D01*
X57370Y-36501D01*
X66335Y-38127D02*
X66035Y-38127D01*
X66035Y-38012D01*
X66050Y-37984D01*
X66064Y-37970D01*
X66092Y-37955D01*
X66135Y-37955D01*
X66164Y-37970D01*
X66178Y-37984D01*
X66192Y-38012D01*
X66192Y-38127D01*
X66035Y-37698D02*
X66035Y-37755D01*
X66050Y-37784D01*
X66064Y-37798D01*
X66107Y-37827D01*
X66164Y-37841D01*
X66278Y-37841D01*
X66307Y-37827D01*
X66321Y-37812D01*
X66335Y-37784D01*
X66335Y-37727D01*
X66321Y-37698D01*
X66307Y-37684D01*
X66278Y-37670D01*
X66207Y-37670D01*
X66178Y-37684D01*
X66164Y-37698D01*
X66150Y-37727D01*
X66150Y-37784D01*
X66164Y-37812D01*
X66178Y-37827D01*
X66207Y-37841D01*
X66035Y-37484D02*
X66035Y-37455D01*
X66050Y-37427D01*
X66064Y-37412D01*
X66092Y-37398D01*
X66150Y-37384D01*
X66221Y-37384D01*
X66278Y-37398D01*
X66307Y-37412D01*
X66321Y-37427D01*
X66335Y-37455D01*
X66335Y-37484D01*
X66321Y-37512D01*
X66307Y-37527D01*
X66278Y-37541D01*
X66221Y-37555D01*
X66150Y-37555D01*
X66092Y-37541D01*
X66064Y-37527D01*
X66050Y-37512D01*
X66035Y-37484D01*
X66335Y-37098D02*
X66335Y-37270D01*
X66335Y-37184D02*
X66035Y-37184D01*
X66078Y-37212D01*
X66107Y-37241D01*
X66121Y-37270D01*
X60924Y-36435D02*
X60824Y-36292D01*
X60752Y-36435D02*
X60752Y-36135D01*
X60867Y-36135D01*
X60895Y-36150D01*
X60910Y-36164D01*
X60924Y-36192D01*
X60924Y-36235D01*
X60910Y-36264D01*
X60895Y-36278D01*
X60867Y-36292D01*
X60752Y-36292D01*
X61181Y-36135D02*
X61124Y-36135D01*
X61095Y-36150D01*
X61081Y-36164D01*
X61052Y-36207D01*
X61038Y-36264D01*
X61038Y-36378D01*
X61052Y-36407D01*
X61067Y-36421D01*
X61095Y-36435D01*
X61152Y-36435D01*
X61181Y-36421D01*
X61195Y-36407D01*
X61210Y-36378D01*
X61210Y-36307D01*
X61195Y-36278D01*
X61181Y-36264D01*
X61152Y-36250D01*
X61095Y-36250D01*
X61067Y-36264D01*
X61052Y-36278D01*
X61038Y-36307D01*
X61395Y-36135D02*
X61424Y-36135D01*
X61452Y-36150D01*
X61467Y-36164D01*
X61481Y-36192D01*
X61495Y-36250D01*
X61495Y-36321D01*
X61481Y-36378D01*
X61467Y-36407D01*
X61452Y-36421D01*
X61424Y-36435D01*
X61395Y-36435D01*
X61367Y-36421D01*
X61352Y-36407D01*
X61338Y-36378D01*
X61324Y-36321D01*
X61324Y-36250D01*
X61338Y-36192D01*
X61352Y-36164D01*
X61367Y-36150D01*
X61395Y-36135D01*
X61781Y-36435D02*
X61610Y-36435D01*
X61695Y-36435D02*
X61695Y-36135D01*
X61667Y-36178D01*
X61638Y-36207D01*
X61610Y-36221D01*
X62064Y-37555D02*
X61964Y-37412D01*
X61892Y-37555D02*
X61892Y-37255D01*
X62007Y-37255D01*
X62035Y-37270D01*
X62050Y-37284D01*
X62064Y-37312D01*
X62064Y-37355D01*
X62050Y-37384D01*
X62035Y-37398D01*
X62007Y-37412D01*
X61892Y-37412D01*
X62321Y-37255D02*
X62264Y-37255D01*
X62235Y-37270D01*
X62221Y-37284D01*
X62192Y-37327D01*
X62178Y-37384D01*
X62178Y-37498D01*
X62192Y-37527D01*
X62207Y-37541D01*
X62235Y-37555D01*
X62292Y-37555D01*
X62321Y-37541D01*
X62335Y-37527D01*
X62350Y-37498D01*
X62350Y-37427D01*
X62335Y-37398D01*
X62321Y-37384D01*
X62292Y-37370D01*
X62235Y-37370D01*
X62207Y-37384D01*
X62192Y-37398D01*
X62178Y-37427D01*
X62535Y-37255D02*
X62564Y-37255D01*
X62592Y-37270D01*
X62607Y-37284D01*
X62621Y-37312D01*
X62635Y-37370D01*
X62635Y-37441D01*
X62621Y-37498D01*
X62607Y-37527D01*
X62592Y-37541D01*
X62564Y-37555D01*
X62535Y-37555D01*
X62507Y-37541D01*
X62492Y-37527D01*
X62478Y-37498D01*
X62464Y-37441D01*
X62464Y-37370D01*
X62478Y-37312D01*
X62492Y-37284D01*
X62507Y-37270D01*
X62535Y-37255D01*
X62750Y-37284D02*
X62764Y-37270D01*
X62792Y-37255D01*
X62864Y-37255D01*
X62892Y-37270D01*
X62907Y-37284D01*
X62921Y-37312D01*
X62921Y-37341D01*
X62907Y-37384D01*
X62735Y-37555D01*
X62921Y-37555D01*
G54D14*
X66709Y-39095D02*
X66609Y-38952D01*
X66537Y-39095D02*
X66537Y-38795D01*
X66652Y-38795D01*
X66680Y-38810D01*
X66695Y-38824D01*
X66709Y-38852D01*
X66709Y-38895D01*
X66695Y-38924D01*
X66680Y-38938D01*
X66652Y-38952D01*
X66537Y-38952D01*
X66966Y-38795D02*
X66909Y-38795D01*
X66880Y-38810D01*
X66866Y-38824D01*
X66837Y-38867D01*
X66823Y-38924D01*
X66823Y-39038D01*
X66837Y-39067D01*
X66852Y-39081D01*
X66880Y-39095D01*
X66937Y-39095D01*
X66966Y-39081D01*
X66980Y-39067D01*
X66995Y-39038D01*
X66995Y-38967D01*
X66980Y-38938D01*
X66966Y-38924D01*
X66937Y-38910D01*
X66880Y-38910D01*
X66852Y-38924D01*
X66837Y-38938D01*
X66823Y-38967D01*
X67180Y-38795D02*
X67209Y-38795D01*
X67237Y-38810D01*
X67252Y-38824D01*
X67266Y-38852D01*
X67280Y-38910D01*
X67280Y-38981D01*
X67266Y-39038D01*
X67252Y-39067D01*
X67237Y-39081D01*
X67209Y-39095D01*
X67180Y-39095D01*
X67152Y-39081D01*
X67137Y-39067D01*
X67123Y-39038D01*
X67109Y-38981D01*
X67109Y-38910D01*
X67123Y-38852D01*
X67137Y-38824D01*
X67152Y-38810D01*
X67180Y-38795D01*
X67380Y-38795D02*
X67566Y-38795D01*
X67466Y-38910D01*
X67509Y-38910D01*
X67537Y-38924D01*
X67552Y-38938D01*
X67566Y-38967D01*
X67566Y-39038D01*
X67552Y-39067D01*
X67537Y-39081D01*
X67509Y-39095D01*
X67423Y-39095D01*
X67395Y-39081D01*
X67380Y-39067D01*
G54D15*
X62895Y-38754D02*
X63138Y-38754D01*
X63167Y-38740D01*
X63181Y-38725D01*
X63195Y-38697D01*
X63195Y-38640D01*
X63181Y-38611D01*
X63167Y-38597D01*
X63138Y-38582D01*
X62895Y-38582D01*
X62895Y-38311D02*
X62895Y-38368D01*
X62910Y-38397D01*
X62924Y-38411D01*
X62967Y-38439D01*
X63024Y-38454D01*
X63138Y-38454D01*
X63167Y-38439D01*
X63181Y-38425D01*
X63195Y-38397D01*
X63195Y-38339D01*
X63181Y-38311D01*
X63167Y-38297D01*
X63138Y-38282D01*
X63067Y-38282D01*
X63038Y-38297D01*
X63024Y-38311D01*
X63010Y-38339D01*
X63010Y-38397D01*
X63024Y-38425D01*
X63038Y-38439D01*
X63067Y-38454D01*
X62895Y-38097D02*
X62895Y-38068D01*
X62910Y-38040D01*
X62924Y-38025D01*
X62952Y-38011D01*
X63010Y-37997D01*
X63081Y-37997D01*
X63138Y-38011D01*
X63167Y-38025D01*
X63181Y-38040D01*
X63195Y-38068D01*
X63195Y-38097D01*
X63181Y-38125D01*
X63167Y-38140D01*
X63138Y-38154D01*
X63081Y-38168D01*
X63010Y-38168D01*
X62952Y-38154D01*
X62924Y-38140D01*
X62910Y-38125D01*
X62895Y-38097D01*
X63195Y-37711D02*
X63195Y-37882D01*
X63195Y-37797D02*
X62895Y-37797D01*
X62938Y-37825D01*
X62967Y-37854D01*
X62981Y-37882D01*
X58920Y-37480D02*
X58920Y-37723D01*
X58935Y-37752D01*
X58949Y-37766D01*
X58977Y-37780D01*
X59035Y-37780D01*
X59063Y-37766D01*
X59077Y-37752D01*
X59092Y-37723D01*
X59092Y-37480D01*
X59363Y-37480D02*
X59306Y-37480D01*
X59277Y-37495D01*
X59263Y-37509D01*
X59235Y-37552D01*
X59220Y-37609D01*
X59220Y-37723D01*
X59235Y-37752D01*
X59249Y-37766D01*
X59277Y-37780D01*
X59335Y-37780D01*
X59363Y-37766D01*
X59377Y-37752D01*
X59392Y-37723D01*
X59392Y-37652D01*
X59377Y-37623D01*
X59363Y-37609D01*
X59335Y-37595D01*
X59277Y-37595D01*
X59249Y-37609D01*
X59235Y-37623D01*
X59220Y-37652D01*
X59577Y-37480D02*
X59606Y-37480D01*
X59635Y-37495D01*
X59649Y-37509D01*
X59663Y-37537D01*
X59677Y-37595D01*
X59677Y-37666D01*
X59663Y-37723D01*
X59649Y-37752D01*
X59635Y-37766D01*
X59606Y-37780D01*
X59577Y-37780D01*
X59549Y-37766D01*
X59535Y-37752D01*
X59520Y-37723D01*
X59506Y-37666D01*
X59506Y-37595D01*
X59520Y-37537D01*
X59535Y-37509D01*
X59549Y-37495D01*
X59577Y-37480D01*
X59792Y-37509D02*
X59806Y-37495D01*
X59835Y-37480D01*
X59906Y-37480D01*
X59935Y-37495D01*
X59949Y-37509D01*
X59963Y-37537D01*
X59963Y-37566D01*
X59949Y-37609D01*
X59777Y-37780D01*
X59963Y-37780D01*
X63319Y-39352D02*
X63305Y-39366D01*
X63262Y-39380D01*
X63233Y-39380D01*
X63190Y-39366D01*
X63162Y-39337D01*
X63147Y-39309D01*
X63133Y-39252D01*
X63133Y-39209D01*
X63147Y-39152D01*
X63162Y-39123D01*
X63190Y-39095D01*
X63233Y-39080D01*
X63262Y-39080D01*
X63305Y-39095D01*
X63319Y-39109D01*
X63576Y-39180D02*
X63576Y-39380D01*
X63505Y-39066D02*
X63433Y-39280D01*
X63619Y-39280D01*
X63790Y-39080D02*
X63819Y-39080D01*
X63847Y-39095D01*
X63862Y-39109D01*
X63876Y-39137D01*
X63890Y-39195D01*
X63890Y-39266D01*
X63876Y-39323D01*
X63862Y-39352D01*
X63847Y-39366D01*
X63819Y-39380D01*
X63790Y-39380D01*
X63762Y-39366D01*
X63747Y-39352D01*
X63733Y-39323D01*
X63719Y-39266D01*
X63719Y-39195D01*
X63733Y-39137D01*
X63747Y-39109D01*
X63762Y-39095D01*
X63790Y-39080D01*
X64162Y-39080D02*
X64019Y-39080D01*
X64005Y-39223D01*
X64019Y-39209D01*
X64047Y-39195D01*
X64119Y-39195D01*
X64147Y-39209D01*
X64162Y-39223D01*
X64176Y-39252D01*
X64176Y-39323D01*
X64162Y-39352D01*
X64147Y-39366D01*
X64119Y-39380D01*
X64047Y-39380D01*
X64019Y-39366D01*
X64005Y-39352D01*
X59719Y-40962D02*
X59705Y-40976D01*
X59662Y-40990D01*
X59633Y-40990D01*
X59590Y-40976D01*
X59562Y-40947D01*
X59547Y-40919D01*
X59533Y-40862D01*
X59533Y-40819D01*
X59547Y-40762D01*
X59562Y-40733D01*
X59590Y-40705D01*
X59633Y-40690D01*
X59662Y-40690D01*
X59705Y-40705D01*
X59719Y-40719D01*
X59976Y-40790D02*
X59976Y-40990D01*
X59905Y-40676D02*
X59833Y-40890D01*
X60019Y-40890D01*
X60190Y-40690D02*
X60219Y-40690D01*
X60247Y-40705D01*
X60262Y-40719D01*
X60276Y-40747D01*
X60290Y-40805D01*
X60290Y-40876D01*
X60276Y-40933D01*
X60262Y-40962D01*
X60247Y-40976D01*
X60219Y-40990D01*
X60190Y-40990D01*
X60162Y-40976D01*
X60147Y-40962D01*
X60133Y-40933D01*
X60119Y-40876D01*
X60119Y-40805D01*
X60133Y-40747D01*
X60147Y-40719D01*
X60162Y-40705D01*
X60190Y-40690D01*
X60547Y-40690D02*
X60490Y-40690D01*
X60462Y-40705D01*
X60447Y-40719D01*
X60419Y-40762D01*
X60405Y-40819D01*
X60405Y-40933D01*
X60419Y-40962D01*
X60433Y-40976D01*
X60462Y-40990D01*
X60519Y-40990D01*
X60547Y-40976D01*
X60562Y-40962D01*
X60576Y-40933D01*
X60576Y-40862D01*
X60562Y-40833D01*
X60547Y-40819D01*
X60519Y-40805D01*
X60462Y-40805D01*
X60433Y-40819D01*
X60419Y-40833D01*
X60405Y-40862D01*
X64564Y-36727D02*
X64550Y-36741D01*
X64507Y-36755D01*
X64478Y-36755D01*
X64435Y-36741D01*
X64407Y-36712D01*
X64392Y-36684D01*
X64378Y-36627D01*
X64378Y-36584D01*
X64392Y-36527D01*
X64407Y-36498D01*
X64435Y-36470D01*
X64478Y-36455D01*
X64507Y-36455D01*
X64550Y-36470D01*
X64564Y-36484D01*
X64821Y-36455D02*
X64764Y-36455D01*
X64735Y-36470D01*
X64721Y-36484D01*
X64692Y-36527D01*
X64678Y-36584D01*
X64678Y-36698D01*
X64692Y-36727D01*
X64707Y-36741D01*
X64735Y-36755D01*
X64792Y-36755D01*
X64821Y-36741D01*
X64835Y-36727D01*
X64850Y-36698D01*
X64850Y-36627D01*
X64835Y-36598D01*
X64821Y-36584D01*
X64792Y-36570D01*
X64735Y-36570D01*
X64707Y-36584D01*
X64692Y-36598D01*
X64678Y-36627D01*
X65035Y-36455D02*
X65064Y-36455D01*
X65092Y-36470D01*
X65107Y-36484D01*
X65121Y-36512D01*
X65135Y-36570D01*
X65135Y-36641D01*
X65121Y-36698D01*
X65107Y-36727D01*
X65092Y-36741D01*
X65064Y-36755D01*
X65035Y-36755D01*
X65007Y-36741D01*
X64992Y-36727D01*
X64978Y-36698D01*
X64964Y-36641D01*
X64964Y-36570D01*
X64978Y-36512D01*
X64992Y-36484D01*
X65007Y-36470D01*
X65035Y-36455D01*
X65421Y-36755D02*
X65250Y-36755D01*
X65335Y-36755D02*
X65335Y-36455D01*
X65307Y-36498D01*
X65278Y-36527D01*
X65250Y-36541D01*
X58416Y-30585D02*
X58587Y-30585D01*
X58502Y-30885D02*
X58502Y-30585D01*
X58687Y-30885D02*
X58687Y-30585D01*
X58802Y-30585D01*
X58830Y-30600D01*
X58845Y-30614D01*
X58859Y-30642D01*
X58859Y-30685D01*
X58845Y-30714D01*
X58830Y-30728D01*
X58802Y-30742D01*
X58687Y-30742D01*
X58973Y-30614D02*
X58987Y-30600D01*
X59016Y-30585D01*
X59087Y-30585D01*
X59116Y-30600D01*
X59130Y-30614D01*
X59145Y-30642D01*
X59145Y-30671D01*
X59130Y-30714D01*
X58959Y-30885D01*
X59145Y-30885D01*
X57366Y-30585D02*
X57537Y-30585D01*
X57452Y-30885D02*
X57452Y-30585D01*
X57637Y-30885D02*
X57637Y-30585D01*
X57752Y-30585D01*
X57780Y-30600D01*
X57795Y-30614D01*
X57809Y-30642D01*
X57809Y-30685D01*
X57795Y-30714D01*
X57780Y-30728D01*
X57752Y-30742D01*
X57637Y-30742D01*
X57909Y-30585D02*
X58095Y-30585D01*
X57995Y-30700D01*
X58037Y-30700D01*
X58066Y-30714D01*
X58080Y-30728D01*
X58095Y-30757D01*
X58095Y-30828D01*
X58080Y-30857D01*
X58066Y-30871D01*
X58037Y-30885D01*
X57952Y-30885D01*
X57923Y-30871D01*
X57909Y-30857D01*
X47626Y-30525D02*
X47797Y-30525D01*
X47712Y-30825D02*
X47712Y-30525D01*
X47897Y-30825D02*
X47897Y-30525D01*
X48012Y-30525D01*
X48040Y-30540D01*
X48055Y-30554D01*
X48069Y-30582D01*
X48069Y-30625D01*
X48055Y-30654D01*
X48040Y-30668D01*
X48012Y-30682D01*
X47897Y-30682D01*
X48326Y-30625D02*
X48326Y-30825D01*
X48255Y-30511D02*
X48183Y-30725D01*
X48369Y-30725D01*
X51147Y-46705D02*
X51161Y-46720D01*
X51175Y-46762D01*
X51175Y-46791D01*
X51161Y-46834D01*
X51132Y-46862D01*
X51104Y-46877D01*
X51047Y-46891D01*
X51004Y-46891D01*
X50947Y-46877D01*
X50918Y-46862D01*
X50890Y-46834D01*
X50875Y-46791D01*
X50875Y-46762D01*
X50890Y-46720D01*
X50904Y-46705D01*
X50875Y-46434D02*
X50875Y-46577D01*
X51018Y-46591D01*
X51004Y-46577D01*
X50990Y-46548D01*
X50990Y-46477D01*
X51004Y-46448D01*
X51018Y-46434D01*
X51047Y-46420D01*
X51118Y-46420D01*
X51147Y-46434D01*
X51161Y-46448D01*
X51175Y-46477D01*
X51175Y-46548D01*
X51161Y-46577D01*
X51147Y-46591D01*
X51175Y-46134D02*
X51175Y-46305D01*
X51175Y-46220D02*
X50875Y-46220D01*
X50918Y-46248D01*
X50947Y-46277D01*
X50961Y-46305D01*
X50875Y-45948D02*
X50875Y-45920D01*
X50890Y-45891D01*
X50904Y-45877D01*
X50932Y-45862D01*
X50990Y-45848D01*
X51061Y-45848D01*
X51118Y-45862D01*
X51147Y-45877D01*
X51161Y-45891D01*
X51175Y-45920D01*
X51175Y-45948D01*
X51161Y-45977D01*
X51147Y-45991D01*
X51118Y-46005D01*
X51061Y-46020D01*
X50990Y-46020D01*
X50932Y-46005D01*
X50904Y-45991D01*
X50890Y-45977D01*
X50875Y-45948D01*
X60347Y-46945D02*
X60361Y-46960D01*
X60375Y-47002D01*
X60375Y-47031D01*
X60361Y-47074D01*
X60332Y-47102D01*
X60304Y-47117D01*
X60247Y-47131D01*
X60204Y-47131D01*
X60147Y-47117D01*
X60118Y-47102D01*
X60090Y-47074D01*
X60075Y-47031D01*
X60075Y-47002D01*
X60090Y-46960D01*
X60104Y-46945D01*
X60075Y-46674D02*
X60075Y-46817D01*
X60218Y-46831D01*
X60204Y-46817D01*
X60190Y-46788D01*
X60190Y-46717D01*
X60204Y-46688D01*
X60218Y-46674D01*
X60247Y-46660D01*
X60318Y-46660D01*
X60347Y-46674D01*
X60361Y-46688D01*
X60375Y-46717D01*
X60375Y-46788D01*
X60361Y-46817D01*
X60347Y-46831D01*
X60375Y-46374D02*
X60375Y-46545D01*
X60375Y-46460D02*
X60075Y-46460D01*
X60118Y-46488D01*
X60147Y-46517D01*
X60161Y-46545D01*
X60375Y-46088D02*
X60375Y-46260D01*
X60375Y-46174D02*
X60075Y-46174D01*
X60118Y-46202D01*
X60147Y-46231D01*
X60161Y-46260D01*
M02*
