M48
;DRILL file {Pcbnew (2013-mar-13)-stable} date Tue 21 Jul 2015 10:15:35 AM CEST
;FORMAT={-:-/ absolute / metric / decimal}
FMAT,2
METRIC,TZ
T1C0.305
T2C0.813
T3C0.899
T4C1.000
T5C1.001
T6C1.016
T7C1.400
%
G90
G05
M71
T1
X100.965Y-76.835
X100.965Y-123.19
X103.505Y-76.835
X103.505Y-123.19
X106.045Y-76.835
X106.045Y-123.19
X108.585Y-76.835
X108.585Y-123.19
X111.125Y-76.835
X111.125Y-123.19
X113.665Y-76.835
X113.665Y-123.19
X116.205Y-76.835
X116.205Y-123.19
X118.745Y-76.835
X118.745Y-123.19
X121.285Y-76.835
X121.285Y-123.19
X122.631Y-82.423
X122.631Y-93.091
X122.631Y-103.759
X122.631Y-114.427
X123.825Y-76.835
X123.825Y-123.19
X125.12Y-83.947
X126.365Y-76.835
X126.365Y-123.19
X127.686Y-104.331
X127.762Y-120.752
X128.905Y-76.835
X128.905Y-123.19
X130.772Y-84.379
X130.988Y-99.746
X131.14Y-105.981
X131.445Y-76.835
X131.445Y-123.19
X132.105Y-102.756
X132.931Y-85.115
X133.642Y-94.577
X133.985Y-76.835
X133.985Y-123.19
X135.128Y-84.379
X135.166Y-80.899
X136.093Y-103.911
X136.271Y-85.115
X136.525Y-76.835
X136.525Y-123.19
X136.969Y-102.248
X137.262Y-90.564
X137.757Y-96.99
X138.1Y-109.753
X139.065Y-76.835
X139.065Y-123.19
X139.37Y-96.99
X140.64Y-96.99
X140.754Y-103.035
X140.97Y-76.835
X140.97Y-123.19
X140.983Y-86.652
X141.262Y-107.886
X141.262Y-109.042
X142.761Y-102.743
X143.04Y-97.752
X143.51Y-76.835
X143.51Y-123.19
X144.475Y-106.54
X145.783Y-94.869
X146.05Y-76.835
X146.05Y-123.19
X146.164Y-99.251
X146.253Y-89.205
X147.93Y-104.927
X148.514Y-95.885
X148.514Y-100.317
X148.59Y-76.835
X148.59Y-123.19
X148.742Y-98.73
X150.05Y-87.947
X150.495Y-90.932
X150.927Y-102.349
X151.13Y-76.835
X151.13Y-123.19
X151.663Y-117.881
X151.765Y-90.932
X153.035Y-90.932
X153.67Y-76.835
X153.67Y-123.19
X154.305Y-90.932
X154.445Y-95.072
X155.575Y-90.932
X156.21Y-76.835
X156.21Y-123.19
X156.845Y-90.932
X157.226Y-98.73
X158.115Y-90.932
X158.75Y-76.835
X158.75Y-123.19
X159.385Y-90.932
X160.655Y-92.202
X161.163Y-101.549
X161.163Y-106.807
X161.163Y-112.039
X161.163Y-117.323
X161.29Y-76.835
X161.29Y-123.19
X161.925Y-92.202
X162.052Y-88.857
X162.611Y-81.923
X163.144Y-88.857
X163.195Y-92.202
X163.83Y-76.835
X163.83Y-123.19
X163.906Y-98.412
X164.465Y-92.202
X165.024Y-83.447
X165.633Y-85.885
X165.735Y-92.202
X166.37Y-76.835
X166.37Y-123.19
X167.005Y-92.202
X167.411Y-84.894
X167.411Y-85.885
X168.072Y-98.095
X168.275Y-92.202
X168.91Y-76.835
X168.91Y-123.19
X169.545Y-92.202
X170.155Y-90.076
X170.18Y-79.019
X170.815Y-92.202
X171.45Y-76.835
X171.45Y-123.19
X171.501Y-82.017
X173.99Y-76.835
X173.99Y-123.19
X174.066Y-102.819
X174.066Y-108.077
X174.066Y-113.309
X174.066Y-118.593
X174.079Y-114.884
X176.213Y-117.018
X176.53Y-76.835
X176.53Y-123.19
X179.07Y-76.835
X179.07Y-123.19
T2
X109.855Y-80.137
X109.855Y-82.677
X109.855Y-85.217
X109.855Y-87.757
X109.855Y-90.805
X109.855Y-93.345
X109.855Y-95.885
X109.855Y-98.425
X109.855Y-101.473
X109.855Y-104.013
X109.855Y-106.553
X109.855Y-109.093
X109.855Y-112.141
X109.855Y-114.681
X109.855Y-117.221
X109.855Y-119.761
X117.475Y-80.137
X117.475Y-82.677
X117.475Y-85.217
X117.475Y-87.757
X117.475Y-90.805
X117.475Y-93.345
X117.475Y-95.885
X117.475Y-98.425
X117.475Y-101.473
X117.475Y-104.013
X117.475Y-106.553
X117.475Y-109.093
X117.475Y-112.141
X117.475Y-114.681
X117.475Y-117.221
X117.475Y-119.761
T3
X123.825Y-78.626
X146.812Y-79.629
X148.526Y-79.629
X151.765Y-92.329
T4
X125.63Y-102.276
X125.63Y-114.976
X154.38Y-114.976
T5
X130.376Y-115.517
X130.376Y-120.018
X136.878Y-115.517
X136.878Y-120.018
X143.122Y-115.517
X143.122Y-120.018
X149.624Y-115.517
X149.624Y-120.018
T6
X141.021Y-90.843
X143.561Y-90.843
X146.101Y-90.843
X148.641Y-90.843
X170.053Y-94.285
X170.053Y-96.825
T7
X104.35Y-86.65
X104.35Y-90.475
X104.35Y-94.285
X104.35Y-98.095
X104.35Y-101.905
X104.35Y-105.715
X104.35Y-109.525
X104.35Y-113.35
X175.65Y-86.65
X175.65Y-90.475
X175.65Y-94.285
X175.65Y-98.095
X175.65Y-101.905
X175.65Y-105.715
X175.65Y-109.525
X175.65Y-113.35
T0
M30
