G04 (created by PCBNEW (2013-mar-13)-stable) date Tue 21 Jul 2015 10:15:33 AM CEST*
%MOIN*%
G04 Gerber Fmt 3.4, Leading zero omitted, Abs format*
%FSLAX34Y34*%
G01*
G70*
G90*
G04 APERTURE LIST*
%ADD10C,0.005906*%
%ADD11C,0.078740*%
%ADD12R,0.055000X0.055000*%
%ADD13C,0.055000*%
%ADD14R,0.036000X0.036000*%
%ADD15R,0.035000X0.055000*%
%ADD16R,0.025000X0.045000*%
%ADD17R,0.070100X0.140200*%
%ADD18R,0.070866X0.059843*%
%ADD19R,0.080000X0.060000*%
%ADD20R,0.078700X0.047200*%
%ADD21R,0.045000X0.025000*%
%ADD22R,0.094488X0.064961*%
%ADD23R,0.011024X0.033465*%
%ADD24R,0.098400X0.070900*%
%ADD25R,0.060000X0.080000*%
%ADD26R,0.011800X0.047200*%
%ADD27R,0.047200X0.011800*%
%ADD28R,0.055100X0.055118*%
%ADD29R,0.047200X0.047200*%
%ADD30R,0.141700X0.047200*%
%ADD31R,0.062992X0.078700*%
%ADD32R,0.078740X0.059055*%
%ADD33R,0.059055X0.078740*%
%ADD34C,0.070900*%
%ADD35C,0.060000*%
%ADD36C,0.055100*%
%ADD37R,0.027559X0.068898*%
%ADD38R,0.059055X0.059055*%
%ADD39R,0.051181X0.059055*%
%ADD40R,0.031496X0.059055*%
%ADD41R,0.031496X0.055118*%
%ADD42R,0.058071X0.035433*%
%ADD43R,0.039370X0.061024*%
%ADD44R,0.060000X0.060000*%
%ADD45R,0.045000X0.020000*%
%ADD46R,0.039400X0.027600*%
%ADD47R,0.019700X0.023600*%
G04 APERTURE END LIST*
G54D10*
G54D11*
X69153Y-44625D03*
X69153Y-43120D03*
X69153Y-41620D03*
X69153Y-40120D03*
X69153Y-38620D03*
X69153Y-37120D03*
X69153Y-35620D03*
X69153Y-34114D03*
X41082Y-34114D03*
X41082Y-35620D03*
X41082Y-37120D03*
X41082Y-38620D03*
X41082Y-40120D03*
X41082Y-41620D03*
X41082Y-43120D03*
X41082Y-44625D03*
G54D12*
X46250Y-34550D03*
G54D13*
X46250Y-33550D03*
X46250Y-32550D03*
X46250Y-31550D03*
X43250Y-31550D03*
X43250Y-32550D03*
X43250Y-33550D03*
X43250Y-34550D03*
G54D12*
X46250Y-38750D03*
G54D13*
X46250Y-37750D03*
X46250Y-36750D03*
X46250Y-35750D03*
X43250Y-35750D03*
X43250Y-36750D03*
X43250Y-37750D03*
X43250Y-38750D03*
G54D12*
X46250Y-42950D03*
G54D13*
X46250Y-41950D03*
X46250Y-40950D03*
X46250Y-39950D03*
X43250Y-39950D03*
X43250Y-40950D03*
X43250Y-41950D03*
X43250Y-42950D03*
G54D12*
X46250Y-47150D03*
G54D13*
X46250Y-46150D03*
X46250Y-45150D03*
X46250Y-44150D03*
X43250Y-44150D03*
X43250Y-45150D03*
X43250Y-46150D03*
X43250Y-47150D03*
G54D14*
X47850Y-32450D03*
X47150Y-32450D03*
X47500Y-31650D03*
X47850Y-36650D03*
X47150Y-36650D03*
X47500Y-35850D03*
X47850Y-40850D03*
X47150Y-40850D03*
X47500Y-40050D03*
X47850Y-45050D03*
X47150Y-45050D03*
X47500Y-44250D03*
G54D15*
X47875Y-34650D03*
X47125Y-34650D03*
G54D16*
X47800Y-33500D03*
X47200Y-33500D03*
G54D15*
X47875Y-38850D03*
X47125Y-38850D03*
G54D16*
X47800Y-37700D03*
X47200Y-37700D03*
G54D15*
X47875Y-43050D03*
X47125Y-43050D03*
G54D16*
X47800Y-41900D03*
X47200Y-41900D03*
G54D15*
X47875Y-47250D03*
X47125Y-47250D03*
G54D16*
X47800Y-46100D03*
X47200Y-46100D03*
G54D17*
X63044Y-33138D03*
X59344Y-33138D03*
G54D18*
X64015Y-33138D03*
X64015Y-34477D03*
G54D19*
X68140Y-33590D03*
X68140Y-32290D03*
G54D20*
X58475Y-33603D03*
X58475Y-34627D03*
G54D16*
X65610Y-31823D03*
X65010Y-31823D03*
X65610Y-32423D03*
X65010Y-32423D03*
X65020Y-35463D03*
X65620Y-35463D03*
X66060Y-35463D03*
X66660Y-35463D03*
G54D21*
X66360Y-34223D03*
X66360Y-33623D03*
G54D16*
X64310Y-35423D03*
X63710Y-35423D03*
X66055Y-31115D03*
X66655Y-31115D03*
G54D22*
X65210Y-33813D03*
G54D23*
X64816Y-34393D03*
X65013Y-34393D03*
X65210Y-34393D03*
X65406Y-34393D03*
X65603Y-34393D03*
X65603Y-33232D03*
X65406Y-33232D03*
X65210Y-33232D03*
X65013Y-33232D03*
X64816Y-33232D03*
G54D21*
X66360Y-31623D03*
X66360Y-32223D03*
G54D16*
X66060Y-34723D03*
X66660Y-34723D03*
G54D21*
X66360Y-32623D03*
X66360Y-33223D03*
G54D16*
X64620Y-31823D03*
X64020Y-31823D03*
G54D19*
X68140Y-34640D03*
X68140Y-35940D03*
G54D16*
X67600Y-46690D03*
X68200Y-46690D03*
X68200Y-39860D03*
X67600Y-39860D03*
X68200Y-41930D03*
X67600Y-41930D03*
X68200Y-43990D03*
X67600Y-43990D03*
X68200Y-46070D03*
X67600Y-46070D03*
G54D24*
X66817Y-43050D03*
X66817Y-42050D03*
X62683Y-43050D03*
X62683Y-42050D03*
X66817Y-45110D03*
X66817Y-44110D03*
X62683Y-45110D03*
X62683Y-44110D03*
X66817Y-47190D03*
X66817Y-46190D03*
X62683Y-47190D03*
X62683Y-46190D03*
G54D16*
X67600Y-42550D03*
X68200Y-42550D03*
X67600Y-44610D03*
X68200Y-44610D03*
G54D24*
X66817Y-40980D03*
X66817Y-39980D03*
X62683Y-40980D03*
X62683Y-39980D03*
G54D16*
X67600Y-40480D03*
X68200Y-40480D03*
X67600Y-41100D03*
X68200Y-41100D03*
X67600Y-43170D03*
X68200Y-43170D03*
X67600Y-45230D03*
X68200Y-45230D03*
X67600Y-47310D03*
X68200Y-47310D03*
G54D21*
X61805Y-40180D03*
X61805Y-40780D03*
X61805Y-42250D03*
X61805Y-42850D03*
X61805Y-44310D03*
X61805Y-44910D03*
X61805Y-46390D03*
X61805Y-46990D03*
G54D25*
X65400Y-40480D03*
X64100Y-40480D03*
X65400Y-42550D03*
X64100Y-42550D03*
X65400Y-44610D03*
X64100Y-44610D03*
X65400Y-46690D03*
X64100Y-46690D03*
G54D26*
X54037Y-41043D03*
X54234Y-41043D03*
X54431Y-41043D03*
X54628Y-41043D03*
X54825Y-41043D03*
X55022Y-41043D03*
X55218Y-41043D03*
X55415Y-41043D03*
X55612Y-41043D03*
X55809Y-41043D03*
X56006Y-41043D03*
X56203Y-41043D03*
G54D27*
X56793Y-40453D03*
X56793Y-40256D03*
X56793Y-40059D03*
X56793Y-39862D03*
X56793Y-39665D03*
X56793Y-39468D03*
X56793Y-39272D03*
X56793Y-39075D03*
X56793Y-38878D03*
X56793Y-38681D03*
X56793Y-38484D03*
X56793Y-38287D03*
G54D26*
X56203Y-37697D03*
X56006Y-37697D03*
X55809Y-37697D03*
X55612Y-37697D03*
X55415Y-37697D03*
X55218Y-37697D03*
X55022Y-37697D03*
X54825Y-37697D03*
X54628Y-37697D03*
X54431Y-37697D03*
X54234Y-37697D03*
X54037Y-37697D03*
G54D27*
X53447Y-38287D03*
X53447Y-38484D03*
X53447Y-38681D03*
X53447Y-38878D03*
X53447Y-39075D03*
X53447Y-39272D03*
X53447Y-39468D03*
X53447Y-39665D03*
X53447Y-39862D03*
X53447Y-40059D03*
X53447Y-40256D03*
X53447Y-40453D03*
G54D28*
X53370Y-42672D03*
X54370Y-42672D03*
X54370Y-41727D03*
X53370Y-41727D03*
G54D29*
X56410Y-33671D03*
X55504Y-33671D03*
X57316Y-33671D03*
G54D30*
X56410Y-31269D03*
G54D31*
X56399Y-34515D03*
X57580Y-34515D03*
G54D21*
X56280Y-42330D03*
X56280Y-42930D03*
X56880Y-42330D03*
X56880Y-42930D03*
G54D16*
X51910Y-39270D03*
X52510Y-39270D03*
G54D32*
X61297Y-38870D03*
X59172Y-38870D03*
G54D33*
X49150Y-37247D03*
X49150Y-39372D03*
G54D21*
X55615Y-41540D03*
X55615Y-42140D03*
X57395Y-38285D03*
X57395Y-37685D03*
X54710Y-46080D03*
X54710Y-45480D03*
X55530Y-46080D03*
X55530Y-45480D03*
G54D34*
X53889Y-47251D03*
X51329Y-47251D03*
X53889Y-45479D03*
X51329Y-45479D03*
X58907Y-47251D03*
X56347Y-47251D03*
X58907Y-45479D03*
X56347Y-45479D03*
G54D35*
X49460Y-45266D03*
X60779Y-45266D03*
X49460Y-40266D03*
G54D16*
X53550Y-37235D03*
X52950Y-37235D03*
X52945Y-40455D03*
X52345Y-40455D03*
G54D25*
X49000Y-46855D03*
X50300Y-46855D03*
G54D19*
X50710Y-43025D03*
X50710Y-41725D03*
G54D16*
X52565Y-41725D03*
X51965Y-41725D03*
G54D36*
X59750Y-36350D03*
G54D37*
X51050Y-32403D03*
X51483Y-32403D03*
X51916Y-32403D03*
X52349Y-32403D03*
X52782Y-32403D03*
X53215Y-32403D03*
X53648Y-32403D03*
X54081Y-32403D03*
G54D38*
X50085Y-32452D03*
G54D39*
X54593Y-32452D03*
G54D40*
X54662Y-35445D03*
G54D41*
X49957Y-35700D03*
G54D42*
X54529Y-36035D03*
G54D43*
X50154Y-36655D03*
G54D21*
X51310Y-38170D03*
X51310Y-37570D03*
X49260Y-32115D03*
X49260Y-32715D03*
G54D44*
X58520Y-35765D03*
G54D35*
X57520Y-35765D03*
X56520Y-35765D03*
X55520Y-35765D03*
G54D44*
X66950Y-38120D03*
G54D35*
X66950Y-37120D03*
G54D16*
X62000Y-36300D03*
X62600Y-36300D03*
X62000Y-36890D03*
X62600Y-36890D03*
G54D19*
X68140Y-38925D03*
X68140Y-37625D03*
G54D45*
X65685Y-37120D03*
X63585Y-37120D03*
X65685Y-37620D03*
X65685Y-38120D03*
X65685Y-38620D03*
X63585Y-37620D03*
X63585Y-38120D03*
X63585Y-38620D03*
G54D46*
X61305Y-37055D03*
X61305Y-37430D03*
X61305Y-37805D03*
X60305Y-37805D03*
X60305Y-37430D03*
X60305Y-37055D03*
G54D47*
X60962Y-37805D03*
X60648Y-37805D03*
G54D16*
X65130Y-39245D03*
X64530Y-39245D03*
X60355Y-40295D03*
X59755Y-40295D03*
X65635Y-36730D03*
X66235Y-36730D03*
G54D36*
X58475Y-31350D03*
X57800Y-31350D03*
X48750Y-30955D03*
G54D21*
X50550Y-45480D03*
X50550Y-46080D03*
X59710Y-45475D03*
X59710Y-46075D03*
M02*
