G04 (created by PCBNEW (2013-mar-13)-stable) date Tue 21 Jul 2015 10:15:33 AM CEST*
%MOIN*%
G04 Gerber Fmt 3.4, Leading zero omitted, Abs format*
%FSLAX34Y34*%
G01*
G70*
G90*
G04 APERTURE LIST*
%ADD10C,0.005906*%
%ADD11C,0.004000*%
%ADD12C,0.006000*%
%ADD13C,0.078740*%
%ADD14R,0.055000X0.055000*%
%ADD15C,0.055000*%
%ADD16C,0.070900*%
%ADD17C,0.060000*%
%ADD18C,0.055100*%
%ADD19R,0.060000X0.060000*%
%ADD20C,0.028000*%
%ADD21C,0.012000*%
%ADD22C,0.008000*%
%ADD23C,0.016000*%
%ADD24C,0.028000*%
G04 APERTURE END LIST*
G54D10*
G54D11*
X54030Y-44440D02*
X53887Y-44440D01*
X54059Y-44525D02*
X53959Y-44225D01*
X53859Y-44525D01*
X53630Y-44325D02*
X53630Y-44568D01*
X53645Y-44597D01*
X53659Y-44611D01*
X53687Y-44625D01*
X53730Y-44625D01*
X53759Y-44611D01*
X53630Y-44511D02*
X53659Y-44525D01*
X53716Y-44525D01*
X53745Y-44511D01*
X53759Y-44497D01*
X53773Y-44468D01*
X53773Y-44382D01*
X53759Y-44354D01*
X53745Y-44340D01*
X53716Y-44325D01*
X53659Y-44325D01*
X53630Y-44340D01*
X53487Y-44525D02*
X53487Y-44325D01*
X53487Y-44225D02*
X53502Y-44240D01*
X53487Y-44254D01*
X53473Y-44240D01*
X53487Y-44225D01*
X53487Y-44254D01*
X53302Y-44525D02*
X53330Y-44511D01*
X53344Y-44482D01*
X53344Y-44225D01*
X53059Y-44525D02*
X53059Y-44368D01*
X53073Y-44340D01*
X53102Y-44325D01*
X53159Y-44325D01*
X53187Y-44340D01*
X53059Y-44511D02*
X53087Y-44525D01*
X53159Y-44525D01*
X53187Y-44511D01*
X53202Y-44482D01*
X53202Y-44454D01*
X53187Y-44425D01*
X53159Y-44411D01*
X53087Y-44411D01*
X53059Y-44397D01*
X52787Y-44511D02*
X52816Y-44525D01*
X52873Y-44525D01*
X52902Y-44511D01*
X52916Y-44497D01*
X52930Y-44468D01*
X52930Y-44382D01*
X52916Y-44354D01*
X52902Y-44340D01*
X52873Y-44325D01*
X52816Y-44325D01*
X52787Y-44340D01*
X52659Y-44525D02*
X52659Y-44225D01*
X52630Y-44411D02*
X52544Y-44525D01*
X52544Y-44325D02*
X52659Y-44440D01*
X52202Y-44254D02*
X52187Y-44240D01*
X52159Y-44225D01*
X52087Y-44225D01*
X52059Y-44240D01*
X52044Y-44254D01*
X52030Y-44282D01*
X52030Y-44311D01*
X52044Y-44354D01*
X52216Y-44525D01*
X52030Y-44525D01*
X51845Y-44225D02*
X51816Y-44225D01*
X51787Y-44240D01*
X51773Y-44254D01*
X51759Y-44282D01*
X51745Y-44340D01*
X51745Y-44411D01*
X51759Y-44468D01*
X51773Y-44497D01*
X51787Y-44511D01*
X51816Y-44525D01*
X51845Y-44525D01*
X51873Y-44511D01*
X51887Y-44497D01*
X51902Y-44468D01*
X51916Y-44411D01*
X51916Y-44340D01*
X51902Y-44282D01*
X51887Y-44254D01*
X51873Y-44240D01*
X51845Y-44225D01*
X51459Y-44525D02*
X51630Y-44525D01*
X51545Y-44525D02*
X51545Y-44225D01*
X51573Y-44268D01*
X51602Y-44297D01*
X51630Y-44311D01*
X51187Y-44225D02*
X51330Y-44225D01*
X51345Y-44368D01*
X51330Y-44354D01*
X51302Y-44340D01*
X51230Y-44340D01*
X51202Y-44354D01*
X51187Y-44368D01*
X51173Y-44397D01*
X51173Y-44468D01*
X51187Y-44497D01*
X51202Y-44511D01*
X51230Y-44525D01*
X51302Y-44525D01*
X51330Y-44511D01*
X51345Y-44497D01*
X50645Y-44497D02*
X50659Y-44511D01*
X50702Y-44525D01*
X50730Y-44525D01*
X50773Y-44511D01*
X50802Y-44482D01*
X50816Y-44454D01*
X50830Y-44397D01*
X50830Y-44354D01*
X50816Y-44297D01*
X50802Y-44268D01*
X50773Y-44240D01*
X50730Y-44225D01*
X50702Y-44225D01*
X50659Y-44240D01*
X50645Y-44254D01*
X50345Y-44497D02*
X50359Y-44511D01*
X50402Y-44525D01*
X50430Y-44525D01*
X50473Y-44511D01*
X50502Y-44482D01*
X50516Y-44454D01*
X50530Y-44397D01*
X50530Y-44354D01*
X50516Y-44297D01*
X50502Y-44268D01*
X50473Y-44240D01*
X50430Y-44225D01*
X50402Y-44225D01*
X50359Y-44240D01*
X50345Y-44254D01*
X50216Y-44411D02*
X49987Y-44411D01*
X49845Y-44525D02*
X49845Y-44225D01*
X49845Y-44340D02*
X49816Y-44325D01*
X49759Y-44325D01*
X49730Y-44340D01*
X49716Y-44354D01*
X49702Y-44382D01*
X49702Y-44468D01*
X49716Y-44497D01*
X49730Y-44511D01*
X49759Y-44525D01*
X49816Y-44525D01*
X49845Y-44511D01*
X49602Y-44325D02*
X49530Y-44525D01*
X49459Y-44325D02*
X49530Y-44525D01*
X49559Y-44597D01*
X49573Y-44611D01*
X49602Y-44625D01*
X49345Y-44411D02*
X49116Y-44411D01*
X48987Y-44511D02*
X48945Y-44525D01*
X48873Y-44525D01*
X48845Y-44511D01*
X48830Y-44497D01*
X48816Y-44468D01*
X48816Y-44440D01*
X48830Y-44411D01*
X48845Y-44397D01*
X48873Y-44382D01*
X48930Y-44368D01*
X48959Y-44354D01*
X48973Y-44340D01*
X48987Y-44311D01*
X48987Y-44282D01*
X48973Y-44254D01*
X48959Y-44240D01*
X48930Y-44225D01*
X48859Y-44225D01*
X48816Y-44240D01*
X48702Y-44440D02*
X48559Y-44440D01*
X48730Y-44525D02*
X48630Y-44225D01*
X48530Y-44525D01*
G54D12*
X53984Y-43601D02*
X53851Y-43601D01*
X53794Y-43810D02*
X53984Y-43810D01*
X53984Y-43410D01*
X53794Y-43410D01*
X53660Y-43810D02*
X53451Y-43544D01*
X53660Y-43544D02*
X53451Y-43810D01*
X53317Y-43791D02*
X53279Y-43810D01*
X53203Y-43810D01*
X53165Y-43791D01*
X53146Y-43753D01*
X53146Y-43734D01*
X53165Y-43696D01*
X53203Y-43677D01*
X53260Y-43677D01*
X53298Y-43658D01*
X53317Y-43620D01*
X53317Y-43601D01*
X53298Y-43563D01*
X53260Y-43544D01*
X53203Y-43544D01*
X53165Y-43563D01*
X53032Y-43544D02*
X52879Y-43544D01*
X52975Y-43410D02*
X52975Y-43753D01*
X52955Y-43791D01*
X52917Y-43810D01*
X52879Y-43810D01*
X52746Y-43810D02*
X52746Y-43544D01*
X52746Y-43410D02*
X52765Y-43430D01*
X52746Y-43449D01*
X52727Y-43430D01*
X52746Y-43410D01*
X52746Y-43449D01*
X52555Y-43544D02*
X52555Y-43810D01*
X52555Y-43582D02*
X52536Y-43563D01*
X52498Y-43544D01*
X52441Y-43544D01*
X52403Y-43563D01*
X52384Y-43601D01*
X52384Y-43810D01*
X52022Y-43810D02*
X52022Y-43601D01*
X52041Y-43563D01*
X52079Y-43544D01*
X52155Y-43544D01*
X52194Y-43563D01*
X52022Y-43791D02*
X52060Y-43810D01*
X52155Y-43810D01*
X52194Y-43791D01*
X52213Y-43753D01*
X52213Y-43715D01*
X52194Y-43677D01*
X52155Y-43658D01*
X52060Y-43658D01*
X52022Y-43639D01*
X51832Y-43658D02*
X51527Y-43658D01*
X51146Y-43410D02*
X51336Y-43410D01*
X51355Y-43601D01*
X51336Y-43582D01*
X51298Y-43563D01*
X51203Y-43563D01*
X51165Y-43582D01*
X51146Y-43601D01*
X51127Y-43639D01*
X51127Y-43734D01*
X51146Y-43772D01*
X51165Y-43791D01*
X51203Y-43810D01*
X51298Y-43810D01*
X51336Y-43791D01*
X51355Y-43772D01*
X50879Y-43410D02*
X50841Y-43410D01*
X50803Y-43430D01*
X50784Y-43449D01*
X50765Y-43487D01*
X50746Y-43563D01*
X50746Y-43658D01*
X50765Y-43734D01*
X50784Y-43772D01*
X50803Y-43791D01*
X50841Y-43810D01*
X50879Y-43810D01*
X50917Y-43791D01*
X50936Y-43772D01*
X50955Y-43734D01*
X50975Y-43658D01*
X50975Y-43563D01*
X50955Y-43487D01*
X50936Y-43449D01*
X50917Y-43430D01*
X50879Y-43410D01*
G54D13*
X69153Y-44625D03*
X69153Y-43120D03*
X69153Y-41620D03*
X69153Y-40120D03*
X69153Y-38620D03*
X69153Y-37120D03*
X69153Y-35620D03*
X69153Y-34114D03*
X41082Y-34114D03*
X41082Y-35620D03*
X41082Y-37120D03*
X41082Y-38620D03*
X41082Y-40120D03*
X41082Y-41620D03*
X41082Y-43120D03*
X41082Y-44625D03*
G54D14*
X46250Y-34550D03*
G54D15*
X46250Y-33550D03*
X46250Y-32550D03*
X46250Y-31550D03*
X43250Y-31550D03*
X43250Y-32550D03*
X43250Y-33550D03*
X43250Y-34550D03*
G54D14*
X46250Y-38750D03*
G54D15*
X46250Y-37750D03*
X46250Y-36750D03*
X46250Y-35750D03*
X43250Y-35750D03*
X43250Y-36750D03*
X43250Y-37750D03*
X43250Y-38750D03*
G54D14*
X46250Y-42950D03*
G54D15*
X46250Y-41950D03*
X46250Y-40950D03*
X46250Y-39950D03*
X43250Y-39950D03*
X43250Y-40950D03*
X43250Y-41950D03*
X43250Y-42950D03*
G54D14*
X46250Y-47150D03*
G54D15*
X46250Y-46150D03*
X46250Y-45150D03*
X46250Y-44150D03*
X43250Y-44150D03*
X43250Y-45150D03*
X43250Y-46150D03*
X43250Y-47150D03*
G54D16*
X53889Y-47251D03*
X51329Y-47251D03*
X53889Y-45479D03*
X51329Y-45479D03*
X58907Y-47251D03*
X56347Y-47251D03*
X58907Y-45479D03*
X56347Y-45479D03*
G54D17*
X49460Y-45266D03*
X60779Y-45266D03*
X49460Y-40266D03*
G54D18*
X59750Y-36350D03*
G54D19*
X58520Y-35765D03*
G54D17*
X57520Y-35765D03*
X56520Y-35765D03*
X55520Y-35765D03*
G54D19*
X66950Y-38120D03*
G54D17*
X66950Y-37120D03*
G54D18*
X58475Y-31350D03*
X57800Y-31350D03*
X48750Y-30955D03*
G54D20*
X58240Y-41310D03*
X58470Y-37750D03*
X58470Y-39495D03*
X69375Y-46070D03*
X68535Y-45230D03*
X54870Y-38185D03*
X55370Y-38185D03*
X56205Y-40450D03*
X53580Y-40910D03*
X50270Y-41075D03*
X59710Y-46410D03*
X66250Y-36300D03*
X59420Y-40295D03*
X64530Y-38745D03*
X51630Y-41725D03*
X52010Y-40455D03*
X54235Y-38185D03*
X53925Y-40255D03*
X51570Y-39270D03*
X48280Y-40850D03*
X48280Y-36650D03*
X60805Y-37430D03*
X62750Y-35800D03*
X57580Y-35120D03*
X60750Y-35800D03*
X59750Y-35800D03*
X60250Y-35800D03*
X59250Y-35800D03*
X61250Y-35800D03*
X61750Y-35800D03*
X62250Y-35800D03*
X63750Y-36300D03*
X64750Y-36300D03*
X65750Y-36300D03*
X66750Y-36300D03*
X67250Y-36300D03*
X65250Y-36300D03*
X64250Y-36300D03*
X63250Y-36300D03*
X66170Y-38620D03*
X59075Y-34625D03*
X49260Y-33050D03*
X52615Y-37235D03*
X54040Y-35655D03*
X53215Y-31850D03*
X68500Y-30250D03*
X67500Y-30250D03*
X66500Y-30250D03*
X70500Y-30250D03*
X69500Y-30250D03*
X53750Y-30250D03*
X52750Y-30250D03*
X51750Y-30250D03*
X50750Y-30250D03*
X49750Y-30250D03*
X48750Y-30250D03*
X47750Y-30250D03*
X55500Y-30250D03*
X56500Y-30250D03*
X57500Y-30250D03*
X58500Y-30250D03*
X59500Y-30250D03*
X60500Y-30250D03*
X54750Y-30250D03*
X61500Y-30250D03*
X62500Y-30250D03*
X63500Y-30250D03*
X64500Y-30250D03*
X65500Y-30250D03*
X46750Y-30250D03*
X45750Y-30250D03*
X39750Y-48500D03*
X40750Y-48500D03*
X41750Y-48500D03*
X44750Y-30250D03*
X43750Y-30250D03*
X42750Y-30250D03*
X41750Y-30250D03*
X40750Y-30250D03*
X39750Y-30250D03*
X42750Y-48500D03*
X54750Y-48500D03*
X53750Y-48500D03*
X52750Y-48500D03*
X51750Y-48500D03*
X50750Y-48500D03*
X43750Y-48500D03*
X44750Y-48500D03*
X45750Y-48500D03*
X46750Y-48500D03*
X47750Y-48500D03*
X48750Y-48500D03*
X49750Y-48500D03*
X55500Y-48500D03*
X56500Y-48500D03*
X57500Y-48500D03*
X58500Y-48500D03*
X59500Y-48500D03*
X68500Y-48500D03*
X67500Y-48500D03*
X66500Y-48500D03*
X65500Y-48500D03*
X64500Y-48500D03*
X63500Y-48500D03*
X62500Y-48500D03*
X61500Y-48500D03*
X60500Y-48500D03*
X69500Y-48500D03*
X70500Y-48500D03*
X61900Y-38870D03*
X54370Y-43210D03*
X55615Y-42930D03*
X50300Y-47540D03*
X55505Y-34115D03*
X57395Y-37350D03*
X56315Y-38485D03*
X57545Y-39075D03*
X55615Y-42475D03*
X55415Y-40565D03*
X68530Y-46690D03*
X68530Y-44610D03*
X68530Y-42550D03*
X68530Y-40480D03*
X63450Y-46190D03*
X63450Y-44110D03*
X63450Y-42050D03*
X63450Y-39980D03*
X48280Y-45050D03*
X48280Y-32450D03*
X63800Y-34983D03*
X65910Y-33423D03*
X66990Y-35463D03*
X65210Y-33813D03*
X65910Y-33813D03*
X67520Y-32290D03*
X67000Y-31110D03*
X64020Y-32253D03*
X64230Y-34983D03*
X64970Y-32853D03*
X58560Y-38870D03*
X56880Y-41945D03*
X53650Y-33510D03*
X52335Y-33510D03*
X51485Y-33220D03*
X53200Y-33220D03*
G54D21*
X58470Y-41080D02*
X58240Y-41310D01*
X58470Y-39495D02*
X58470Y-41080D01*
X58470Y-37750D02*
X58470Y-38230D01*
X58840Y-39125D02*
X58470Y-39495D01*
X58840Y-38600D02*
X58840Y-39125D01*
X58470Y-38230D02*
X58840Y-38600D01*
X69375Y-46070D02*
X68535Y-45230D01*
G54D22*
X54870Y-38185D02*
X55160Y-37895D01*
X56520Y-37240D02*
X56520Y-35765D01*
X55865Y-37895D02*
X56520Y-37240D01*
X55160Y-37895D02*
X55865Y-37895D01*
X55370Y-38185D02*
X55935Y-38185D01*
X57520Y-36600D02*
X57520Y-35765D01*
X55935Y-38185D02*
X57520Y-36600D01*
X55090Y-40595D02*
X53895Y-40595D01*
X55812Y-40842D02*
X55337Y-40842D01*
X55812Y-40842D02*
X56205Y-40450D01*
X55337Y-40842D02*
X55090Y-40595D01*
G54D21*
X49461Y-40266D02*
X50270Y-41075D01*
X49461Y-40266D02*
X49460Y-40266D01*
G54D22*
X53895Y-40595D02*
X53580Y-40910D01*
G54D21*
X47750Y-30250D02*
X48045Y-30250D01*
X48045Y-30250D02*
X48750Y-30955D01*
G54D23*
X59361Y-46796D02*
X59361Y-46538D01*
X59490Y-46410D02*
X59710Y-46410D01*
X59361Y-46538D02*
X59490Y-46410D01*
X59710Y-46410D02*
X60010Y-46410D01*
X60010Y-46410D02*
X60215Y-46205D01*
G54D21*
X59420Y-40295D02*
X59420Y-39995D01*
X61900Y-39135D02*
X61900Y-38870D01*
X61610Y-39425D02*
X61900Y-39135D01*
X59990Y-39425D02*
X61610Y-39425D01*
X59420Y-39995D02*
X59990Y-39425D01*
X63730Y-39335D02*
X64230Y-39335D01*
X63450Y-39615D02*
X63730Y-39335D01*
X64230Y-39335D02*
X64530Y-39035D01*
X64530Y-38745D02*
X64530Y-39035D01*
X64530Y-39035D02*
X64530Y-39050D01*
X65890Y-39335D02*
X66170Y-39055D01*
X64815Y-39335D02*
X65890Y-39335D01*
X64530Y-39050D02*
X64815Y-39335D01*
G54D22*
X51570Y-39270D02*
X51570Y-37980D01*
X54235Y-39945D02*
X54795Y-39945D01*
G54D21*
X51630Y-41725D02*
X51630Y-40835D01*
X51630Y-40835D02*
X52010Y-40455D01*
X53925Y-40255D02*
X52210Y-40255D01*
X52210Y-40255D02*
X52010Y-40455D01*
X51570Y-39270D02*
X51570Y-40015D01*
X51570Y-40015D02*
X52010Y-40455D01*
G54D22*
X54235Y-38185D02*
X54235Y-39945D01*
X54235Y-39945D02*
X53925Y-40255D01*
X51570Y-39270D02*
X49860Y-39270D01*
X49860Y-39270D02*
X48280Y-40850D01*
G54D23*
X48280Y-45050D02*
X48280Y-40850D01*
X48280Y-40850D02*
X48280Y-36650D01*
G54D22*
X60805Y-37430D02*
X60805Y-36405D01*
X60750Y-36350D02*
X60750Y-35800D01*
X60805Y-36405D02*
X60750Y-36350D01*
G54D23*
X51875Y-46705D02*
X53343Y-46705D01*
X51329Y-47251D02*
X51875Y-46705D01*
X53343Y-46705D02*
X53889Y-47251D01*
X54435Y-46705D02*
X55801Y-46705D01*
X53889Y-47251D02*
X54435Y-46705D01*
X55801Y-46705D02*
X56347Y-47251D01*
X56893Y-46705D02*
X58361Y-46705D01*
X58361Y-46705D02*
X58907Y-47251D01*
X56347Y-47251D02*
X56893Y-46705D01*
X60215Y-45830D02*
X60215Y-46205D01*
X59361Y-46796D02*
X58907Y-47251D01*
X60779Y-45266D02*
X60215Y-45830D01*
X63270Y-46690D02*
X61560Y-46690D01*
X63450Y-46510D02*
X63270Y-46690D01*
X63450Y-46190D02*
X63450Y-46510D01*
X61380Y-45866D02*
X60779Y-45266D01*
X61380Y-46510D02*
X61380Y-45866D01*
X61560Y-46690D02*
X61380Y-46510D01*
X63567Y-35462D02*
X63087Y-35462D01*
X63800Y-35230D02*
X63567Y-35462D01*
X63087Y-35462D02*
X62750Y-35800D01*
X58520Y-35120D02*
X60070Y-35120D01*
X60070Y-35120D02*
X60750Y-35800D01*
X58520Y-35120D02*
X57580Y-35120D01*
X58520Y-35765D02*
X58520Y-35120D01*
X59750Y-36350D02*
X60015Y-36085D01*
X60465Y-36085D02*
X60750Y-35800D01*
X60015Y-36085D02*
X60465Y-36085D01*
X61900Y-38870D02*
X61900Y-37500D01*
X61750Y-37350D02*
X61750Y-35800D01*
X61900Y-37500D02*
X61750Y-37350D01*
X61750Y-35800D02*
X62250Y-35800D01*
G54D21*
X66170Y-38620D02*
X66170Y-39055D01*
X66170Y-39055D02*
X66450Y-39335D01*
X68530Y-39490D02*
X68375Y-39335D01*
X68375Y-39335D02*
X66450Y-39335D01*
X68530Y-40480D02*
X68530Y-39490D01*
X55505Y-34115D02*
X58565Y-34115D01*
X58565Y-34115D02*
X59075Y-34625D01*
G54D23*
X49260Y-33050D02*
X50430Y-33050D01*
X49260Y-33050D02*
X48880Y-33050D01*
X48880Y-33050D02*
X48280Y-32450D01*
G54D22*
X52615Y-37235D02*
X52315Y-37235D01*
X51570Y-37980D02*
X52315Y-37235D01*
X54040Y-35655D02*
X54040Y-35105D01*
X54995Y-34590D02*
X55380Y-34205D01*
X54555Y-34590D02*
X54995Y-34590D01*
X54040Y-35105D02*
X54555Y-34590D01*
X53215Y-31850D02*
X54685Y-31850D01*
X55040Y-33650D02*
X55505Y-34115D01*
X55040Y-32205D02*
X55040Y-33650D01*
X54685Y-31850D02*
X55040Y-32205D01*
G54D21*
X68530Y-46690D02*
X68530Y-45895D01*
X68200Y-44940D02*
X68530Y-44610D01*
X68200Y-45565D02*
X68200Y-44940D01*
X68530Y-45895D02*
X68200Y-45565D01*
X68530Y-46690D02*
X68530Y-47145D01*
X69500Y-48115D02*
X69500Y-48500D01*
X68530Y-47145D02*
X69500Y-48115D01*
G54D24*
X64500Y-48500D02*
X65500Y-48500D01*
G54D23*
X69500Y-30250D02*
X68500Y-30250D01*
X66500Y-30250D02*
X67500Y-30250D01*
G54D21*
X53750Y-30250D02*
X52750Y-30250D01*
X51750Y-30250D02*
X50750Y-30250D01*
X49750Y-30250D02*
X48750Y-30250D01*
X47750Y-30250D02*
X46750Y-30250D01*
X55500Y-30250D02*
X55250Y-30500D01*
G54D23*
X57500Y-30250D02*
X56500Y-30250D01*
X59500Y-30250D02*
X58500Y-30250D01*
G54D21*
X55000Y-30500D02*
X54750Y-30250D01*
X55250Y-30500D02*
X55000Y-30500D01*
G54D23*
X61500Y-30250D02*
X60500Y-30250D01*
X63500Y-30250D02*
X62500Y-30250D01*
X65500Y-30250D02*
X64500Y-30250D01*
G54D21*
X45750Y-30250D02*
X44750Y-30250D01*
G54D24*
X40750Y-48500D02*
X41750Y-48500D01*
G54D21*
X39750Y-48500D02*
X39750Y-47340D01*
X39590Y-35830D02*
X39590Y-36010D01*
X39590Y-36010D02*
X39750Y-36170D01*
X39750Y-35410D02*
X39750Y-35155D01*
X39590Y-35570D02*
X39750Y-35410D01*
X39590Y-35830D02*
X39590Y-35570D01*
X39750Y-36170D02*
X39750Y-37392D01*
X39750Y-37392D02*
X39750Y-39128D01*
X39750Y-39128D02*
X39750Y-40155D01*
X39750Y-30250D02*
X39750Y-34230D01*
X39750Y-34230D02*
X39750Y-35155D01*
X43750Y-30250D02*
X42750Y-30250D01*
X41750Y-30250D02*
X40750Y-30250D01*
X39750Y-40155D02*
X39750Y-43090D01*
X39750Y-43090D02*
X39750Y-46740D01*
X39750Y-46740D02*
X39750Y-47340D01*
G54D24*
X42750Y-48500D02*
X43750Y-48500D01*
X52750Y-48500D02*
X53750Y-48500D01*
G54D21*
X55000Y-48250D02*
X54750Y-48500D01*
G54D24*
X50750Y-48500D02*
X51750Y-48500D01*
X46750Y-48500D02*
X47750Y-48500D01*
X44750Y-48500D02*
X45750Y-48500D01*
X48750Y-48500D02*
X49750Y-48500D01*
X68500Y-48500D02*
X69500Y-48500D01*
X66500Y-48500D02*
X67500Y-48500D01*
X62500Y-48500D02*
X63500Y-48500D01*
X58500Y-48500D02*
X59500Y-48500D01*
G54D21*
X55250Y-48250D02*
X55000Y-48250D01*
X55500Y-48500D02*
X55250Y-48250D01*
G54D24*
X56500Y-48500D02*
X57500Y-48500D01*
X60500Y-48500D02*
X61500Y-48500D01*
G54D21*
X61900Y-38870D02*
X62705Y-38870D01*
X62705Y-38870D02*
X63450Y-39615D01*
X54370Y-43210D02*
X55335Y-43210D01*
X55335Y-43210D02*
X55615Y-42930D01*
X55615Y-42930D02*
X55615Y-42475D01*
G54D22*
X54795Y-39945D02*
X55415Y-40565D01*
X55992Y-39985D02*
X56435Y-39985D01*
X56435Y-39985D02*
X57015Y-40565D01*
X57015Y-40565D02*
X57015Y-41075D01*
X57015Y-41075D02*
X55615Y-42475D01*
G54D23*
X50300Y-47540D02*
X49945Y-47540D01*
X49635Y-46405D02*
X48280Y-45050D01*
X49635Y-47230D02*
X49635Y-46405D01*
X49945Y-47540D02*
X49635Y-47230D01*
X55505Y-34115D02*
X51495Y-34115D01*
X51495Y-34115D02*
X50430Y-33050D01*
G54D22*
X55992Y-39987D02*
X55992Y-39985D01*
X55992Y-39987D02*
X55415Y-40565D01*
X55992Y-39985D02*
X55992Y-38807D01*
X55992Y-38807D02*
X56315Y-38485D01*
X56315Y-38485D02*
X56315Y-38070D01*
X56315Y-38070D02*
X57035Y-37350D01*
X57035Y-37350D02*
X57395Y-37350D01*
X57545Y-39075D02*
X57545Y-40035D01*
X57545Y-40035D02*
X57015Y-40565D01*
G54D21*
X63450Y-39615D02*
X63450Y-39980D01*
X68530Y-44610D02*
X68530Y-42550D01*
X68530Y-42550D02*
X68530Y-40480D01*
G54D23*
X63450Y-46190D02*
X63450Y-44110D01*
X63450Y-44110D02*
X63450Y-42050D01*
X63450Y-42050D02*
X63450Y-39980D01*
X48280Y-36650D02*
X48280Y-32450D01*
X63800Y-34983D02*
X63800Y-35230D01*
X64033Y-35463D02*
X66990Y-35463D01*
X63800Y-35230D02*
X64033Y-35463D01*
X67520Y-32290D02*
X67520Y-33060D01*
X67520Y-33060D02*
X67157Y-33423D01*
X65910Y-33423D02*
X67157Y-33423D01*
X67157Y-33423D02*
X67163Y-33423D01*
X67163Y-33423D02*
X67520Y-33780D01*
X67520Y-33780D02*
X67520Y-34933D01*
X67520Y-34933D02*
X66990Y-35463D01*
X65210Y-33813D02*
X64567Y-33813D01*
X67520Y-32290D02*
X69540Y-32290D01*
X70160Y-34613D02*
X69153Y-35620D01*
X70160Y-32910D02*
X70160Y-34613D01*
X69540Y-32290D02*
X70160Y-32910D01*
X67000Y-31770D02*
X67520Y-32290D01*
X67000Y-31110D02*
X67000Y-31770D01*
X64020Y-32253D02*
X64020Y-32472D01*
X64020Y-32472D02*
X64567Y-33019D01*
X64230Y-34150D02*
X64230Y-34983D01*
X64567Y-33813D02*
X64230Y-34150D01*
X64567Y-33813D02*
X64567Y-33019D01*
X64567Y-33019D02*
X64733Y-32853D01*
X64733Y-32853D02*
X64970Y-32853D01*
G54D21*
X58190Y-39240D02*
X58190Y-40635D01*
X58190Y-39240D02*
X58560Y-38870D01*
X58190Y-40635D02*
X56880Y-41945D01*
G54D22*
X53650Y-33510D02*
X52335Y-33510D01*
X51485Y-33220D02*
X53200Y-33220D01*
G54D21*
X51329Y-45479D02*
X53889Y-45479D01*
X56347Y-45479D02*
X58907Y-45479D01*
G54D10*
G36*
X70740Y-48610D02*
X69657Y-48610D01*
X69657Y-44526D01*
X69657Y-43020D01*
X69657Y-41520D01*
X69657Y-40020D01*
X69657Y-38520D01*
X69657Y-37020D01*
X69657Y-34014D01*
X69580Y-33829D01*
X69439Y-33687D01*
X69254Y-33610D01*
X69053Y-33610D01*
X68868Y-33686D01*
X68726Y-33828D01*
X68649Y-34013D01*
X68649Y-34213D01*
X68726Y-34399D01*
X68867Y-34540D01*
X69052Y-34617D01*
X69253Y-34617D01*
X69438Y-34541D01*
X69580Y-34399D01*
X69657Y-34214D01*
X69657Y-34014D01*
X69657Y-37020D01*
X69644Y-36989D01*
X69644Y-35665D01*
X69624Y-35474D01*
X69589Y-35389D01*
X69532Y-35340D01*
X69433Y-35439D01*
X69433Y-35241D01*
X69383Y-35183D01*
X69199Y-35129D01*
X69008Y-35148D01*
X68923Y-35183D01*
X68873Y-35241D01*
X69153Y-35521D01*
X69433Y-35241D01*
X69433Y-35439D01*
X69252Y-35620D01*
X69532Y-35899D01*
X69589Y-35850D01*
X69644Y-35665D01*
X69644Y-36989D01*
X69580Y-36835D01*
X69439Y-36693D01*
X69433Y-36690D01*
X69433Y-35998D01*
X69153Y-35719D01*
X69054Y-35818D01*
X69054Y-35620D01*
X68774Y-35340D01*
X68717Y-35389D01*
X68662Y-35574D01*
X68682Y-35765D01*
X68717Y-35850D01*
X68774Y-35899D01*
X69054Y-35620D01*
X69054Y-35818D01*
X68873Y-35998D01*
X68923Y-36056D01*
X69107Y-36111D01*
X69299Y-36091D01*
X69383Y-36056D01*
X69433Y-35998D01*
X69433Y-36690D01*
X69254Y-36616D01*
X69053Y-36616D01*
X68868Y-36692D01*
X68726Y-36834D01*
X68649Y-37019D01*
X68649Y-37219D01*
X68726Y-37405D01*
X68867Y-37546D01*
X69052Y-37623D01*
X69253Y-37623D01*
X69438Y-37547D01*
X69580Y-37405D01*
X69657Y-37220D01*
X69657Y-37020D01*
X69657Y-38520D01*
X69580Y-38335D01*
X69439Y-38193D01*
X69254Y-38116D01*
X69053Y-38116D01*
X68868Y-38192D01*
X68726Y-38334D01*
X68649Y-38519D01*
X68649Y-38719D01*
X68726Y-38905D01*
X68867Y-39046D01*
X69052Y-39123D01*
X69253Y-39123D01*
X69438Y-39047D01*
X69580Y-38905D01*
X69657Y-38720D01*
X69657Y-38520D01*
X69657Y-40020D01*
X69580Y-39835D01*
X69439Y-39693D01*
X69254Y-39616D01*
X69053Y-39616D01*
X68868Y-39692D01*
X68726Y-39834D01*
X68649Y-40019D01*
X68649Y-40219D01*
X68726Y-40405D01*
X68867Y-40546D01*
X69052Y-40623D01*
X69253Y-40623D01*
X69438Y-40547D01*
X69580Y-40405D01*
X69657Y-40220D01*
X69657Y-40020D01*
X69657Y-41520D01*
X69580Y-41335D01*
X69439Y-41193D01*
X69254Y-41116D01*
X69053Y-41116D01*
X68868Y-41192D01*
X68726Y-41334D01*
X68649Y-41519D01*
X68649Y-41719D01*
X68726Y-41905D01*
X68867Y-42046D01*
X69052Y-42123D01*
X69253Y-42123D01*
X69438Y-42047D01*
X69580Y-41905D01*
X69657Y-41720D01*
X69657Y-41520D01*
X69657Y-43020D01*
X69580Y-42835D01*
X69439Y-42693D01*
X69254Y-42616D01*
X69053Y-42616D01*
X68868Y-42692D01*
X68726Y-42834D01*
X68649Y-43019D01*
X68649Y-43219D01*
X68726Y-43405D01*
X68867Y-43546D01*
X69052Y-43623D01*
X69253Y-43623D01*
X69438Y-43547D01*
X69580Y-43405D01*
X69657Y-43220D01*
X69657Y-43020D01*
X69657Y-44526D01*
X69580Y-44341D01*
X69439Y-44199D01*
X69254Y-44122D01*
X69053Y-44122D01*
X68868Y-44198D01*
X68726Y-44340D01*
X68649Y-44525D01*
X68649Y-44725D01*
X68726Y-44910D01*
X68867Y-45052D01*
X69052Y-45129D01*
X69253Y-45129D01*
X69438Y-45053D01*
X69580Y-44911D01*
X69657Y-44726D01*
X69657Y-44526D01*
X69657Y-48610D01*
X69625Y-48610D01*
X69625Y-46020D01*
X69587Y-45928D01*
X69516Y-45858D01*
X69424Y-45820D01*
X69365Y-45819D01*
X68784Y-45239D01*
X68785Y-45180D01*
X68747Y-45088D01*
X68676Y-45018D01*
X68584Y-44980D01*
X68485Y-44979D01*
X68393Y-45017D01*
X68323Y-45088D01*
X68285Y-45180D01*
X68284Y-45279D01*
X68322Y-45371D01*
X68393Y-45441D01*
X68485Y-45479D01*
X68544Y-45480D01*
X69125Y-46060D01*
X69124Y-46119D01*
X69162Y-46211D01*
X69233Y-46281D01*
X69325Y-46319D01*
X69424Y-46320D01*
X69516Y-46282D01*
X69586Y-46211D01*
X69624Y-46119D01*
X69625Y-46020D01*
X69625Y-48610D01*
X67360Y-48610D01*
X67360Y-37038D01*
X67297Y-36888D01*
X67182Y-36772D01*
X67031Y-36710D01*
X66868Y-36709D01*
X66718Y-36772D01*
X66602Y-36887D01*
X66540Y-37038D01*
X66539Y-37201D01*
X66602Y-37351D01*
X66717Y-37467D01*
X66868Y-37529D01*
X67031Y-37530D01*
X67181Y-37467D01*
X67297Y-37352D01*
X67359Y-37201D01*
X67360Y-37038D01*
X67360Y-48610D01*
X67360Y-48610D01*
X67360Y-38441D01*
X67360Y-38398D01*
X67360Y-37798D01*
X67343Y-37757D01*
X67312Y-37726D01*
X67271Y-37710D01*
X67228Y-37710D01*
X66628Y-37710D01*
X66587Y-37726D01*
X66556Y-37757D01*
X66540Y-37798D01*
X66540Y-37841D01*
X66540Y-38441D01*
X66556Y-38482D01*
X66587Y-38513D01*
X66628Y-38530D01*
X66671Y-38530D01*
X67271Y-38530D01*
X67312Y-38513D01*
X67343Y-38482D01*
X67360Y-38441D01*
X67360Y-48610D01*
X61176Y-48610D01*
X61176Y-45289D01*
X61155Y-45135D01*
X61137Y-45092D01*
X61089Y-45055D01*
X60990Y-45154D01*
X60990Y-44956D01*
X60952Y-44908D01*
X60802Y-44869D01*
X60649Y-44890D01*
X60606Y-44908D01*
X60568Y-44956D01*
X60779Y-45167D01*
X60990Y-44956D01*
X60990Y-45154D01*
X60878Y-45266D01*
X61089Y-45477D01*
X61137Y-45439D01*
X61176Y-45289D01*
X61176Y-48610D01*
X60990Y-48610D01*
X60990Y-45576D01*
X60779Y-45365D01*
X60680Y-45464D01*
X60680Y-45266D01*
X60469Y-45055D01*
X60421Y-45092D01*
X60382Y-45242D01*
X60403Y-45396D01*
X60421Y-45439D01*
X60469Y-45477D01*
X60680Y-45266D01*
X60680Y-45464D01*
X60568Y-45576D01*
X60606Y-45624D01*
X60756Y-45663D01*
X60909Y-45641D01*
X60952Y-45624D01*
X60990Y-45576D01*
X60990Y-48610D01*
X60122Y-48610D01*
X60122Y-36367D01*
X60100Y-36223D01*
X60087Y-36191D01*
X60042Y-36156D01*
X59943Y-36255D01*
X59943Y-36057D01*
X59908Y-36012D01*
X59767Y-35977D01*
X59623Y-35999D01*
X59591Y-36012D01*
X59556Y-36057D01*
X59750Y-36251D01*
X59943Y-36057D01*
X59943Y-36255D01*
X59848Y-36350D01*
X60042Y-36543D01*
X60087Y-36508D01*
X60122Y-36367D01*
X60122Y-48610D01*
X59943Y-48610D01*
X59943Y-36642D01*
X59750Y-36448D01*
X59651Y-36547D01*
X59651Y-36350D01*
X59457Y-36156D01*
X59412Y-36191D01*
X59377Y-36332D01*
X59399Y-36476D01*
X59412Y-36508D01*
X59457Y-36543D01*
X59651Y-36350D01*
X59651Y-36547D01*
X59556Y-36642D01*
X59591Y-36687D01*
X59732Y-36722D01*
X59876Y-36700D01*
X59908Y-36687D01*
X59943Y-36642D01*
X59943Y-48610D01*
X59371Y-48610D01*
X59371Y-45387D01*
X59301Y-45216D01*
X59170Y-45085D01*
X59010Y-45018D01*
X59010Y-39125D01*
X59010Y-38600D01*
X58997Y-38534D01*
X58997Y-38534D01*
X58960Y-38479D01*
X58910Y-38429D01*
X58910Y-36082D01*
X58910Y-36047D01*
X58910Y-35857D01*
X58910Y-35672D01*
X58910Y-35482D01*
X58910Y-35447D01*
X58896Y-35414D01*
X58870Y-35388D01*
X58860Y-35384D01*
X58860Y-31273D01*
X58802Y-31131D01*
X58693Y-31023D01*
X58552Y-30964D01*
X58398Y-30964D01*
X58256Y-31022D01*
X58148Y-31131D01*
X58137Y-31157D01*
X58127Y-31131D01*
X58018Y-31023D01*
X57877Y-30964D01*
X57723Y-30964D01*
X57581Y-31022D01*
X57473Y-31131D01*
X57414Y-31272D01*
X57414Y-31426D01*
X57472Y-31568D01*
X57581Y-31676D01*
X57722Y-31735D01*
X57876Y-31735D01*
X58018Y-31677D01*
X58126Y-31568D01*
X58137Y-31542D01*
X58147Y-31568D01*
X58256Y-31676D01*
X58397Y-31735D01*
X58551Y-31735D01*
X58693Y-31677D01*
X58801Y-31568D01*
X58860Y-31427D01*
X58860Y-31273D01*
X58860Y-35384D01*
X58837Y-35375D01*
X58612Y-35375D01*
X58590Y-35397D01*
X58590Y-35695D01*
X58887Y-35695D01*
X58910Y-35672D01*
X58910Y-35857D01*
X58887Y-35835D01*
X58590Y-35835D01*
X58590Y-36132D01*
X58612Y-36155D01*
X58837Y-36155D01*
X58870Y-36141D01*
X58896Y-36115D01*
X58910Y-36082D01*
X58910Y-38429D01*
X58640Y-38159D01*
X58640Y-37933D01*
X58681Y-37891D01*
X58719Y-37799D01*
X58720Y-37700D01*
X58682Y-37608D01*
X58611Y-37538D01*
X58519Y-37500D01*
X58450Y-37499D01*
X58450Y-36132D01*
X58450Y-35835D01*
X58450Y-35695D01*
X58450Y-35397D01*
X58427Y-35375D01*
X58202Y-35375D01*
X58169Y-35388D01*
X58143Y-35414D01*
X58130Y-35447D01*
X58130Y-35482D01*
X58130Y-35672D01*
X58152Y-35695D01*
X58450Y-35695D01*
X58450Y-35835D01*
X58152Y-35835D01*
X58130Y-35857D01*
X58130Y-36047D01*
X58130Y-36082D01*
X58143Y-36115D01*
X58169Y-36141D01*
X58202Y-36155D01*
X58427Y-36155D01*
X58450Y-36132D01*
X58450Y-37499D01*
X58420Y-37499D01*
X58328Y-37537D01*
X58258Y-37608D01*
X58220Y-37700D01*
X58219Y-37799D01*
X58257Y-37891D01*
X58300Y-37933D01*
X58300Y-38230D01*
X58312Y-38295D01*
X58349Y-38350D01*
X58626Y-38626D01*
X58609Y-38620D01*
X58510Y-38619D01*
X58418Y-38657D01*
X58348Y-38728D01*
X58310Y-38820D01*
X58309Y-38879D01*
X58069Y-39119D01*
X58032Y-39174D01*
X58020Y-39240D01*
X58020Y-40564D01*
X57930Y-40654D01*
X57930Y-35683D01*
X57867Y-35533D01*
X57752Y-35417D01*
X57601Y-35355D01*
X57438Y-35354D01*
X57288Y-35417D01*
X57172Y-35532D01*
X57110Y-35683D01*
X57109Y-35846D01*
X57172Y-35996D01*
X57287Y-36112D01*
X57370Y-36146D01*
X57370Y-36537D01*
X56670Y-37237D01*
X56670Y-36146D01*
X56751Y-36112D01*
X56867Y-35997D01*
X56929Y-35846D01*
X56930Y-35683D01*
X56867Y-35533D01*
X56752Y-35417D01*
X56601Y-35355D01*
X56438Y-35354D01*
X56288Y-35417D01*
X56172Y-35532D01*
X56110Y-35683D01*
X56109Y-35846D01*
X56172Y-35996D01*
X56287Y-36112D01*
X56370Y-36146D01*
X56370Y-37177D01*
X55930Y-37617D01*
X55930Y-35683D01*
X55867Y-35533D01*
X55752Y-35417D01*
X55601Y-35355D01*
X55438Y-35354D01*
X55288Y-35417D01*
X55172Y-35532D01*
X55110Y-35683D01*
X55109Y-35846D01*
X55172Y-35996D01*
X55287Y-36112D01*
X55438Y-36174D01*
X55601Y-36175D01*
X55751Y-36112D01*
X55867Y-35997D01*
X55929Y-35846D01*
X55930Y-35683D01*
X55930Y-37617D01*
X55802Y-37745D01*
X55160Y-37745D01*
X55160Y-37744D01*
X55102Y-37756D01*
X55053Y-37788D01*
X55053Y-37788D01*
X54907Y-37935D01*
X54820Y-37934D01*
X54728Y-37972D01*
X54658Y-38043D01*
X54620Y-38135D01*
X54619Y-38234D01*
X54657Y-38326D01*
X54728Y-38396D01*
X54820Y-38434D01*
X54919Y-38435D01*
X55011Y-38397D01*
X55081Y-38326D01*
X55119Y-38234D01*
X55120Y-38147D01*
X55119Y-38234D01*
X55157Y-38326D01*
X55228Y-38396D01*
X55320Y-38434D01*
X55419Y-38435D01*
X55511Y-38397D01*
X55573Y-38335D01*
X55935Y-38335D01*
X55992Y-38323D01*
X55992Y-38323D01*
X56041Y-38291D01*
X57626Y-36706D01*
X57626Y-36706D01*
X57626Y-36706D01*
X57658Y-36657D01*
X57658Y-36657D01*
X57670Y-36600D01*
X57670Y-36146D01*
X57751Y-36112D01*
X57867Y-35997D01*
X57929Y-35846D01*
X57930Y-35683D01*
X57930Y-40654D01*
X56889Y-41695D01*
X56830Y-41694D01*
X56738Y-41732D01*
X56668Y-41803D01*
X56630Y-41895D01*
X56629Y-41994D01*
X56667Y-42086D01*
X56738Y-42156D01*
X56830Y-42194D01*
X56929Y-42195D01*
X57021Y-42157D01*
X57091Y-42086D01*
X57129Y-41994D01*
X57130Y-41935D01*
X58300Y-40765D01*
X58300Y-41009D01*
X58249Y-41060D01*
X58190Y-41059D01*
X58098Y-41097D01*
X58028Y-41168D01*
X57990Y-41260D01*
X57989Y-41359D01*
X58027Y-41451D01*
X58098Y-41521D01*
X58190Y-41559D01*
X58289Y-41560D01*
X58381Y-41522D01*
X58451Y-41451D01*
X58489Y-41359D01*
X58490Y-41300D01*
X58590Y-41200D01*
X58590Y-41200D01*
X58590Y-41200D01*
X58614Y-41163D01*
X58627Y-41145D01*
X58627Y-41145D01*
X58640Y-41080D01*
X58640Y-41080D01*
X58640Y-41079D01*
X58640Y-39678D01*
X58681Y-39636D01*
X58719Y-39544D01*
X58720Y-39485D01*
X58960Y-39245D01*
X58997Y-39190D01*
X58997Y-39190D01*
X59010Y-39125D01*
X59010Y-45018D01*
X58999Y-45014D01*
X58815Y-45014D01*
X58644Y-45084D01*
X58513Y-45215D01*
X58474Y-45309D01*
X56779Y-45309D01*
X56741Y-45216D01*
X56610Y-45085D01*
X56455Y-45020D01*
X56455Y-40400D01*
X56417Y-40308D01*
X56346Y-40238D01*
X56254Y-40200D01*
X56155Y-40199D01*
X56063Y-40237D01*
X55993Y-40308D01*
X55955Y-40400D01*
X55954Y-40487D01*
X55750Y-40692D01*
X55399Y-40692D01*
X55196Y-40488D01*
X55147Y-40456D01*
X55090Y-40445D01*
X53900Y-40445D01*
X53900Y-33460D01*
X53862Y-33368D01*
X53791Y-33298D01*
X53699Y-33260D01*
X53600Y-33259D01*
X53508Y-33297D01*
X53446Y-33360D01*
X53412Y-33360D01*
X53449Y-33269D01*
X53450Y-33170D01*
X53412Y-33078D01*
X53341Y-33008D01*
X53249Y-32970D01*
X53150Y-32969D01*
X53058Y-33007D01*
X52996Y-33070D01*
X51688Y-33070D01*
X51626Y-33008D01*
X51534Y-32970D01*
X51435Y-32969D01*
X51343Y-33007D01*
X51273Y-33078D01*
X51235Y-33170D01*
X51234Y-33269D01*
X51272Y-33361D01*
X51343Y-33431D01*
X51435Y-33469D01*
X51534Y-33470D01*
X51626Y-33432D01*
X51688Y-33370D01*
X52122Y-33370D01*
X52085Y-33460D01*
X52084Y-33559D01*
X52122Y-33651D01*
X52193Y-33721D01*
X52285Y-33759D01*
X52384Y-33760D01*
X52476Y-33722D01*
X52538Y-33660D01*
X53446Y-33660D01*
X53508Y-33721D01*
X53600Y-33759D01*
X53699Y-33760D01*
X53791Y-33722D01*
X53861Y-33651D01*
X53899Y-33559D01*
X53900Y-33460D01*
X53900Y-40445D01*
X53895Y-40445D01*
X53837Y-40456D01*
X53818Y-40469D01*
X53788Y-40488D01*
X53788Y-40488D01*
X53617Y-40660D01*
X53530Y-40659D01*
X53438Y-40697D01*
X53368Y-40768D01*
X53330Y-40860D01*
X53329Y-40959D01*
X53367Y-41051D01*
X53438Y-41121D01*
X53530Y-41159D01*
X53629Y-41160D01*
X53721Y-41122D01*
X53791Y-41051D01*
X53829Y-40959D01*
X53830Y-40872D01*
X53957Y-40745D01*
X55027Y-40745D01*
X55231Y-40948D01*
X55231Y-40948D01*
X55260Y-40968D01*
X55280Y-40981D01*
X55280Y-40981D01*
X55337Y-40992D01*
X55812Y-40992D01*
X55869Y-40981D01*
X55869Y-40981D01*
X55918Y-40948D01*
X56167Y-40699D01*
X56254Y-40700D01*
X56346Y-40662D01*
X56416Y-40591D01*
X56454Y-40499D01*
X56455Y-40400D01*
X56455Y-45020D01*
X56439Y-45014D01*
X56255Y-45014D01*
X56084Y-45084D01*
X55953Y-45215D01*
X55882Y-45386D01*
X55882Y-45570D01*
X55953Y-45741D01*
X56083Y-45872D01*
X56254Y-45943D01*
X56439Y-45943D01*
X56609Y-45873D01*
X56740Y-45742D01*
X56779Y-45649D01*
X58474Y-45649D01*
X58513Y-45741D01*
X58643Y-45872D01*
X58814Y-45943D01*
X58999Y-45943D01*
X59169Y-45873D01*
X59300Y-45742D01*
X59371Y-45571D01*
X59371Y-45387D01*
X59371Y-48610D01*
X59358Y-48610D01*
X59358Y-47287D01*
X59338Y-47111D01*
X59310Y-47044D01*
X59257Y-46999D01*
X59158Y-47098D01*
X59158Y-46900D01*
X59113Y-46847D01*
X58943Y-46799D01*
X58767Y-46819D01*
X58700Y-46847D01*
X58656Y-46900D01*
X58907Y-47152D01*
X59158Y-46900D01*
X59158Y-47098D01*
X59006Y-47251D01*
X59257Y-47502D01*
X59310Y-47457D01*
X59358Y-47287D01*
X59358Y-48610D01*
X59158Y-48610D01*
X59158Y-47601D01*
X58907Y-47349D01*
X58808Y-47448D01*
X58808Y-47251D01*
X58557Y-46999D01*
X58503Y-47044D01*
X58455Y-47214D01*
X58475Y-47390D01*
X58503Y-47457D01*
X58557Y-47502D01*
X58808Y-47251D01*
X58808Y-47448D01*
X58656Y-47601D01*
X58700Y-47654D01*
X58870Y-47702D01*
X59046Y-47682D01*
X59113Y-47654D01*
X59158Y-47601D01*
X59158Y-48610D01*
X56798Y-48610D01*
X56798Y-47287D01*
X56778Y-47111D01*
X56750Y-47044D01*
X56697Y-46999D01*
X56598Y-47098D01*
X56598Y-46900D01*
X56553Y-46847D01*
X56383Y-46799D01*
X56207Y-46819D01*
X56140Y-46847D01*
X56096Y-46900D01*
X56347Y-47152D01*
X56598Y-46900D01*
X56598Y-47098D01*
X56446Y-47251D01*
X56697Y-47502D01*
X56750Y-47457D01*
X56798Y-47287D01*
X56798Y-48610D01*
X56598Y-48610D01*
X56598Y-47601D01*
X56347Y-47349D01*
X56248Y-47448D01*
X56248Y-47251D01*
X55997Y-46999D01*
X55943Y-47044D01*
X55895Y-47214D01*
X55915Y-47390D01*
X55943Y-47457D01*
X55997Y-47502D01*
X56248Y-47251D01*
X56248Y-47448D01*
X56096Y-47601D01*
X56140Y-47654D01*
X56310Y-47702D01*
X56486Y-47682D01*
X56553Y-47654D01*
X56598Y-47601D01*
X56598Y-48610D01*
X54353Y-48610D01*
X54353Y-45387D01*
X54283Y-45216D01*
X54219Y-45152D01*
X54219Y-44050D01*
X54219Y-43150D01*
X50530Y-43150D01*
X50530Y-44010D01*
X50520Y-44010D01*
X50520Y-41025D01*
X50482Y-40933D01*
X50411Y-40863D01*
X50319Y-40825D01*
X50260Y-40824D01*
X49844Y-40409D01*
X49870Y-40348D01*
X49870Y-40185D01*
X49808Y-40034D01*
X49693Y-39918D01*
X49542Y-39856D01*
X49379Y-39856D01*
X49228Y-39918D01*
X49122Y-40024D01*
X49122Y-30972D01*
X49100Y-30828D01*
X49087Y-30796D01*
X49042Y-30761D01*
X48943Y-30860D01*
X48943Y-30662D01*
X48908Y-30617D01*
X48767Y-30582D01*
X48623Y-30604D01*
X48591Y-30617D01*
X48556Y-30662D01*
X48750Y-30856D01*
X48943Y-30662D01*
X48943Y-30860D01*
X48848Y-30955D01*
X49042Y-31148D01*
X49087Y-31113D01*
X49122Y-30972D01*
X49122Y-40024D01*
X49113Y-40033D01*
X49050Y-40184D01*
X49050Y-40347D01*
X49112Y-40498D01*
X49228Y-40613D01*
X49378Y-40676D01*
X49541Y-40676D01*
X49604Y-40650D01*
X50020Y-41065D01*
X50019Y-41124D01*
X50057Y-41216D01*
X50128Y-41286D01*
X50220Y-41324D01*
X50319Y-41325D01*
X50411Y-41287D01*
X50481Y-41216D01*
X50519Y-41124D01*
X50520Y-41025D01*
X50520Y-44010D01*
X48943Y-44010D01*
X48943Y-31247D01*
X48750Y-31053D01*
X48651Y-31152D01*
X48651Y-30955D01*
X48457Y-30761D01*
X48412Y-30796D01*
X48377Y-30937D01*
X48399Y-31081D01*
X48412Y-31113D01*
X48457Y-31148D01*
X48651Y-30955D01*
X48651Y-31152D01*
X48556Y-31247D01*
X48591Y-31292D01*
X48732Y-31327D01*
X48876Y-31305D01*
X48908Y-31292D01*
X48943Y-31247D01*
X48943Y-44010D01*
X48372Y-44010D01*
X48372Y-44730D01*
X54217Y-44730D01*
X54217Y-44050D01*
X54219Y-44050D01*
X54219Y-45152D01*
X54152Y-45085D01*
X53981Y-45014D01*
X53797Y-45014D01*
X53626Y-45084D01*
X53495Y-45215D01*
X53456Y-45309D01*
X51761Y-45309D01*
X51723Y-45216D01*
X51592Y-45085D01*
X51421Y-45014D01*
X51237Y-45014D01*
X51066Y-45084D01*
X50935Y-45215D01*
X50864Y-45386D01*
X50864Y-45570D01*
X50935Y-45741D01*
X51065Y-45872D01*
X51236Y-45943D01*
X51421Y-45943D01*
X51591Y-45873D01*
X51722Y-45742D01*
X51761Y-45649D01*
X53456Y-45649D01*
X53495Y-45741D01*
X53625Y-45872D01*
X53796Y-45943D01*
X53981Y-45943D01*
X54151Y-45873D01*
X54282Y-45742D01*
X54353Y-45571D01*
X54353Y-45387D01*
X54353Y-48610D01*
X54340Y-48610D01*
X54340Y-47287D01*
X54320Y-47111D01*
X54292Y-47044D01*
X54239Y-46999D01*
X54140Y-47098D01*
X54140Y-46900D01*
X54095Y-46847D01*
X53925Y-46799D01*
X53749Y-46819D01*
X53682Y-46847D01*
X53638Y-46900D01*
X53889Y-47152D01*
X54140Y-46900D01*
X54140Y-47098D01*
X53988Y-47251D01*
X54239Y-47502D01*
X54292Y-47457D01*
X54340Y-47287D01*
X54340Y-48610D01*
X54140Y-48610D01*
X54140Y-47601D01*
X53889Y-47349D01*
X53790Y-47448D01*
X53790Y-47251D01*
X53539Y-46999D01*
X53485Y-47044D01*
X53437Y-47214D01*
X53457Y-47390D01*
X53485Y-47457D01*
X53539Y-47502D01*
X53790Y-47251D01*
X53790Y-47448D01*
X53638Y-47601D01*
X53682Y-47654D01*
X53852Y-47702D01*
X54028Y-47682D01*
X54095Y-47654D01*
X54140Y-47601D01*
X54140Y-48610D01*
X51780Y-48610D01*
X51780Y-47287D01*
X51760Y-47111D01*
X51732Y-47044D01*
X51679Y-46999D01*
X51580Y-47098D01*
X51580Y-46900D01*
X51535Y-46847D01*
X51365Y-46799D01*
X51189Y-46819D01*
X51122Y-46847D01*
X51078Y-46900D01*
X51329Y-47152D01*
X51580Y-46900D01*
X51580Y-47098D01*
X51428Y-47251D01*
X51679Y-47502D01*
X51732Y-47457D01*
X51780Y-47287D01*
X51780Y-48610D01*
X51580Y-48610D01*
X51580Y-47601D01*
X51329Y-47349D01*
X51230Y-47448D01*
X51230Y-47251D01*
X50979Y-46999D01*
X50925Y-47044D01*
X50877Y-47214D01*
X50897Y-47390D01*
X50925Y-47457D01*
X50979Y-47502D01*
X51230Y-47251D01*
X51230Y-47448D01*
X51078Y-47601D01*
X51122Y-47654D01*
X51292Y-47702D01*
X51468Y-47682D01*
X51535Y-47654D01*
X51580Y-47601D01*
X51580Y-48610D01*
X49870Y-48610D01*
X49870Y-45185D01*
X49808Y-45034D01*
X49693Y-44918D01*
X49542Y-44856D01*
X49379Y-44856D01*
X49228Y-44918D01*
X49113Y-45033D01*
X49050Y-45184D01*
X49050Y-45347D01*
X49112Y-45498D01*
X49228Y-45613D01*
X49378Y-45676D01*
X49541Y-45676D01*
X49692Y-45614D01*
X49807Y-45498D01*
X49870Y-45348D01*
X49870Y-45185D01*
X49870Y-48610D01*
X46635Y-48610D01*
X46635Y-46073D01*
X46635Y-45073D01*
X46635Y-44073D01*
X46635Y-41873D01*
X46635Y-40873D01*
X46635Y-39873D01*
X46635Y-37673D01*
X46635Y-36673D01*
X46635Y-35673D01*
X46635Y-33473D01*
X46635Y-32473D01*
X46635Y-31473D01*
X46576Y-31332D01*
X46468Y-31223D01*
X46326Y-31165D01*
X46173Y-31164D01*
X46032Y-31223D01*
X45923Y-31331D01*
X45865Y-31473D01*
X45864Y-31626D01*
X45923Y-31767D01*
X46031Y-31876D01*
X46173Y-31934D01*
X46326Y-31935D01*
X46467Y-31876D01*
X46576Y-31768D01*
X46634Y-31626D01*
X46635Y-31473D01*
X46635Y-32473D01*
X46576Y-32332D01*
X46468Y-32223D01*
X46326Y-32165D01*
X46173Y-32164D01*
X46032Y-32223D01*
X45923Y-32331D01*
X45865Y-32473D01*
X45864Y-32626D01*
X45923Y-32767D01*
X46031Y-32876D01*
X46173Y-32934D01*
X46326Y-32935D01*
X46467Y-32876D01*
X46576Y-32768D01*
X46634Y-32626D01*
X46635Y-32473D01*
X46635Y-33473D01*
X46576Y-33332D01*
X46468Y-33223D01*
X46326Y-33165D01*
X46173Y-33164D01*
X46032Y-33223D01*
X45923Y-33331D01*
X45865Y-33473D01*
X45864Y-33626D01*
X45923Y-33767D01*
X46031Y-33876D01*
X46173Y-33934D01*
X46326Y-33935D01*
X46467Y-33876D01*
X46576Y-33768D01*
X46634Y-33626D01*
X46635Y-33473D01*
X46635Y-35673D01*
X46635Y-35673D01*
X46635Y-34846D01*
X46635Y-34803D01*
X46635Y-34253D01*
X46618Y-34212D01*
X46587Y-34181D01*
X46546Y-34165D01*
X46503Y-34165D01*
X45953Y-34165D01*
X45912Y-34181D01*
X45881Y-34212D01*
X45865Y-34253D01*
X45865Y-34296D01*
X45865Y-34846D01*
X45881Y-34887D01*
X45912Y-34918D01*
X45953Y-34935D01*
X45996Y-34935D01*
X46546Y-34935D01*
X46587Y-34918D01*
X46618Y-34887D01*
X46635Y-34846D01*
X46635Y-35673D01*
X46576Y-35532D01*
X46468Y-35423D01*
X46326Y-35365D01*
X46173Y-35364D01*
X46032Y-35423D01*
X45923Y-35531D01*
X45865Y-35673D01*
X45864Y-35826D01*
X45923Y-35967D01*
X46031Y-36076D01*
X46173Y-36134D01*
X46326Y-36135D01*
X46467Y-36076D01*
X46576Y-35968D01*
X46634Y-35826D01*
X46635Y-35673D01*
X46635Y-36673D01*
X46576Y-36532D01*
X46468Y-36423D01*
X46326Y-36365D01*
X46173Y-36364D01*
X46032Y-36423D01*
X45923Y-36531D01*
X45865Y-36673D01*
X45864Y-36826D01*
X45923Y-36967D01*
X46031Y-37076D01*
X46173Y-37134D01*
X46326Y-37135D01*
X46467Y-37076D01*
X46576Y-36968D01*
X46634Y-36826D01*
X46635Y-36673D01*
X46635Y-37673D01*
X46576Y-37532D01*
X46468Y-37423D01*
X46326Y-37365D01*
X46173Y-37364D01*
X46032Y-37423D01*
X45923Y-37531D01*
X45865Y-37673D01*
X45864Y-37826D01*
X45923Y-37967D01*
X46031Y-38076D01*
X46173Y-38134D01*
X46326Y-38135D01*
X46467Y-38076D01*
X46576Y-37968D01*
X46634Y-37826D01*
X46635Y-37673D01*
X46635Y-39873D01*
X46635Y-39873D01*
X46635Y-39046D01*
X46635Y-39003D01*
X46635Y-38453D01*
X46618Y-38412D01*
X46587Y-38381D01*
X46546Y-38365D01*
X46503Y-38365D01*
X45953Y-38365D01*
X45912Y-38381D01*
X45881Y-38412D01*
X45865Y-38453D01*
X45865Y-38496D01*
X45865Y-39046D01*
X45881Y-39087D01*
X45912Y-39118D01*
X45953Y-39135D01*
X45996Y-39135D01*
X46546Y-39135D01*
X46587Y-39118D01*
X46618Y-39087D01*
X46635Y-39046D01*
X46635Y-39873D01*
X46576Y-39732D01*
X46468Y-39623D01*
X46326Y-39565D01*
X46173Y-39564D01*
X46032Y-39623D01*
X45923Y-39731D01*
X45865Y-39873D01*
X45864Y-40026D01*
X45923Y-40167D01*
X46031Y-40276D01*
X46173Y-40334D01*
X46326Y-40335D01*
X46467Y-40276D01*
X46576Y-40168D01*
X46634Y-40026D01*
X46635Y-39873D01*
X46635Y-40873D01*
X46576Y-40732D01*
X46468Y-40623D01*
X46326Y-40565D01*
X46173Y-40564D01*
X46032Y-40623D01*
X45923Y-40731D01*
X45865Y-40873D01*
X45864Y-41026D01*
X45923Y-41167D01*
X46031Y-41276D01*
X46173Y-41334D01*
X46326Y-41335D01*
X46467Y-41276D01*
X46576Y-41168D01*
X46634Y-41026D01*
X46635Y-40873D01*
X46635Y-41873D01*
X46576Y-41732D01*
X46468Y-41623D01*
X46326Y-41565D01*
X46173Y-41564D01*
X46032Y-41623D01*
X45923Y-41731D01*
X45865Y-41873D01*
X45864Y-42026D01*
X45923Y-42167D01*
X46031Y-42276D01*
X46173Y-42334D01*
X46326Y-42335D01*
X46467Y-42276D01*
X46576Y-42168D01*
X46634Y-42026D01*
X46635Y-41873D01*
X46635Y-44073D01*
X46635Y-44073D01*
X46635Y-43246D01*
X46635Y-43203D01*
X46635Y-42653D01*
X46618Y-42612D01*
X46587Y-42581D01*
X46546Y-42565D01*
X46503Y-42565D01*
X45953Y-42565D01*
X45912Y-42581D01*
X45881Y-42612D01*
X45865Y-42653D01*
X45865Y-42696D01*
X45865Y-43246D01*
X45881Y-43287D01*
X45912Y-43318D01*
X45953Y-43335D01*
X45996Y-43335D01*
X46546Y-43335D01*
X46587Y-43318D01*
X46618Y-43287D01*
X46635Y-43246D01*
X46635Y-44073D01*
X46576Y-43932D01*
X46468Y-43823D01*
X46326Y-43765D01*
X46173Y-43764D01*
X46032Y-43823D01*
X45923Y-43931D01*
X45865Y-44073D01*
X45864Y-44226D01*
X45923Y-44367D01*
X46031Y-44476D01*
X46173Y-44534D01*
X46326Y-44535D01*
X46467Y-44476D01*
X46576Y-44368D01*
X46634Y-44226D01*
X46635Y-44073D01*
X46635Y-45073D01*
X46576Y-44932D01*
X46468Y-44823D01*
X46326Y-44765D01*
X46173Y-44764D01*
X46032Y-44823D01*
X45923Y-44931D01*
X45865Y-45073D01*
X45864Y-45226D01*
X45923Y-45367D01*
X46031Y-45476D01*
X46173Y-45534D01*
X46326Y-45535D01*
X46467Y-45476D01*
X46576Y-45368D01*
X46634Y-45226D01*
X46635Y-45073D01*
X46635Y-46073D01*
X46576Y-45932D01*
X46468Y-45823D01*
X46326Y-45765D01*
X46173Y-45764D01*
X46032Y-45823D01*
X45923Y-45931D01*
X45865Y-46073D01*
X45864Y-46226D01*
X45923Y-46367D01*
X46031Y-46476D01*
X46173Y-46534D01*
X46326Y-46535D01*
X46467Y-46476D01*
X46576Y-46368D01*
X46634Y-46226D01*
X46635Y-46073D01*
X46635Y-48610D01*
X46635Y-48610D01*
X46635Y-47446D01*
X46635Y-47403D01*
X46635Y-46853D01*
X46618Y-46812D01*
X46587Y-46781D01*
X46546Y-46765D01*
X46503Y-46765D01*
X45953Y-46765D01*
X45912Y-46781D01*
X45881Y-46812D01*
X45865Y-46853D01*
X45865Y-46896D01*
X45865Y-47446D01*
X45881Y-47487D01*
X45912Y-47518D01*
X45953Y-47535D01*
X45996Y-47535D01*
X46546Y-47535D01*
X46587Y-47518D01*
X46618Y-47487D01*
X46635Y-47446D01*
X46635Y-48610D01*
X43635Y-48610D01*
X43635Y-47073D01*
X43635Y-46073D01*
X43635Y-45073D01*
X43635Y-44073D01*
X43635Y-42873D01*
X43635Y-41873D01*
X43635Y-40873D01*
X43635Y-39873D01*
X43635Y-38673D01*
X43635Y-37673D01*
X43635Y-36673D01*
X43635Y-35673D01*
X43635Y-34473D01*
X43635Y-33473D01*
X43635Y-32473D01*
X43635Y-31473D01*
X43576Y-31332D01*
X43468Y-31223D01*
X43326Y-31165D01*
X43173Y-31164D01*
X43032Y-31223D01*
X42923Y-31331D01*
X42865Y-31473D01*
X42864Y-31626D01*
X42923Y-31767D01*
X43031Y-31876D01*
X43173Y-31934D01*
X43326Y-31935D01*
X43467Y-31876D01*
X43576Y-31768D01*
X43634Y-31626D01*
X43635Y-31473D01*
X43635Y-32473D01*
X43576Y-32332D01*
X43468Y-32223D01*
X43326Y-32165D01*
X43173Y-32164D01*
X43032Y-32223D01*
X42923Y-32331D01*
X42865Y-32473D01*
X42864Y-32626D01*
X42923Y-32767D01*
X43031Y-32876D01*
X43173Y-32934D01*
X43326Y-32935D01*
X43467Y-32876D01*
X43576Y-32768D01*
X43634Y-32626D01*
X43635Y-32473D01*
X43635Y-33473D01*
X43576Y-33332D01*
X43468Y-33223D01*
X43326Y-33165D01*
X43173Y-33164D01*
X43032Y-33223D01*
X42923Y-33331D01*
X42865Y-33473D01*
X42864Y-33626D01*
X42923Y-33767D01*
X43031Y-33876D01*
X43173Y-33934D01*
X43326Y-33935D01*
X43467Y-33876D01*
X43576Y-33768D01*
X43634Y-33626D01*
X43635Y-33473D01*
X43635Y-34473D01*
X43576Y-34332D01*
X43468Y-34223D01*
X43326Y-34165D01*
X43173Y-34164D01*
X43032Y-34223D01*
X42923Y-34331D01*
X42865Y-34473D01*
X42864Y-34626D01*
X42923Y-34767D01*
X43031Y-34876D01*
X43173Y-34934D01*
X43326Y-34935D01*
X43467Y-34876D01*
X43576Y-34768D01*
X43634Y-34626D01*
X43635Y-34473D01*
X43635Y-35673D01*
X43576Y-35532D01*
X43468Y-35423D01*
X43326Y-35365D01*
X43173Y-35364D01*
X43032Y-35423D01*
X42923Y-35531D01*
X42865Y-35673D01*
X42864Y-35826D01*
X42923Y-35967D01*
X43031Y-36076D01*
X43173Y-36134D01*
X43326Y-36135D01*
X43467Y-36076D01*
X43576Y-35968D01*
X43634Y-35826D01*
X43635Y-35673D01*
X43635Y-36673D01*
X43576Y-36532D01*
X43468Y-36423D01*
X43326Y-36365D01*
X43173Y-36364D01*
X43032Y-36423D01*
X42923Y-36531D01*
X42865Y-36673D01*
X42864Y-36826D01*
X42923Y-36967D01*
X43031Y-37076D01*
X43173Y-37134D01*
X43326Y-37135D01*
X43467Y-37076D01*
X43576Y-36968D01*
X43634Y-36826D01*
X43635Y-36673D01*
X43635Y-37673D01*
X43576Y-37532D01*
X43468Y-37423D01*
X43326Y-37365D01*
X43173Y-37364D01*
X43032Y-37423D01*
X42923Y-37531D01*
X42865Y-37673D01*
X42864Y-37826D01*
X42923Y-37967D01*
X43031Y-38076D01*
X43173Y-38134D01*
X43326Y-38135D01*
X43467Y-38076D01*
X43576Y-37968D01*
X43634Y-37826D01*
X43635Y-37673D01*
X43635Y-38673D01*
X43576Y-38532D01*
X43468Y-38423D01*
X43326Y-38365D01*
X43173Y-38364D01*
X43032Y-38423D01*
X42923Y-38531D01*
X42865Y-38673D01*
X42864Y-38826D01*
X42923Y-38967D01*
X43031Y-39076D01*
X43173Y-39134D01*
X43326Y-39135D01*
X43467Y-39076D01*
X43576Y-38968D01*
X43634Y-38826D01*
X43635Y-38673D01*
X43635Y-39873D01*
X43576Y-39732D01*
X43468Y-39623D01*
X43326Y-39565D01*
X43173Y-39564D01*
X43032Y-39623D01*
X42923Y-39731D01*
X42865Y-39873D01*
X42864Y-40026D01*
X42923Y-40167D01*
X43031Y-40276D01*
X43173Y-40334D01*
X43326Y-40335D01*
X43467Y-40276D01*
X43576Y-40168D01*
X43634Y-40026D01*
X43635Y-39873D01*
X43635Y-40873D01*
X43576Y-40732D01*
X43468Y-40623D01*
X43326Y-40565D01*
X43173Y-40564D01*
X43032Y-40623D01*
X42923Y-40731D01*
X42865Y-40873D01*
X42864Y-41026D01*
X42923Y-41167D01*
X43031Y-41276D01*
X43173Y-41334D01*
X43326Y-41335D01*
X43467Y-41276D01*
X43576Y-41168D01*
X43634Y-41026D01*
X43635Y-40873D01*
X43635Y-41873D01*
X43576Y-41732D01*
X43468Y-41623D01*
X43326Y-41565D01*
X43173Y-41564D01*
X43032Y-41623D01*
X42923Y-41731D01*
X42865Y-41873D01*
X42864Y-42026D01*
X42923Y-42167D01*
X43031Y-42276D01*
X43173Y-42334D01*
X43326Y-42335D01*
X43467Y-42276D01*
X43576Y-42168D01*
X43634Y-42026D01*
X43635Y-41873D01*
X43635Y-42873D01*
X43576Y-42732D01*
X43468Y-42623D01*
X43326Y-42565D01*
X43173Y-42564D01*
X43032Y-42623D01*
X42923Y-42731D01*
X42865Y-42873D01*
X42864Y-43026D01*
X42923Y-43167D01*
X43031Y-43276D01*
X43173Y-43334D01*
X43326Y-43335D01*
X43467Y-43276D01*
X43576Y-43168D01*
X43634Y-43026D01*
X43635Y-42873D01*
X43635Y-44073D01*
X43576Y-43932D01*
X43468Y-43823D01*
X43326Y-43765D01*
X43173Y-43764D01*
X43032Y-43823D01*
X42923Y-43931D01*
X42865Y-44073D01*
X42864Y-44226D01*
X42923Y-44367D01*
X43031Y-44476D01*
X43173Y-44534D01*
X43326Y-44535D01*
X43467Y-44476D01*
X43576Y-44368D01*
X43634Y-44226D01*
X43635Y-44073D01*
X43635Y-45073D01*
X43576Y-44932D01*
X43468Y-44823D01*
X43326Y-44765D01*
X43173Y-44764D01*
X43032Y-44823D01*
X42923Y-44931D01*
X42865Y-45073D01*
X42864Y-45226D01*
X42923Y-45367D01*
X43031Y-45476D01*
X43173Y-45534D01*
X43326Y-45535D01*
X43467Y-45476D01*
X43576Y-45368D01*
X43634Y-45226D01*
X43635Y-45073D01*
X43635Y-46073D01*
X43576Y-45932D01*
X43468Y-45823D01*
X43326Y-45765D01*
X43173Y-45764D01*
X43032Y-45823D01*
X42923Y-45931D01*
X42865Y-46073D01*
X42864Y-46226D01*
X42923Y-46367D01*
X43031Y-46476D01*
X43173Y-46534D01*
X43326Y-46535D01*
X43467Y-46476D01*
X43576Y-46368D01*
X43634Y-46226D01*
X43635Y-46073D01*
X43635Y-47073D01*
X43576Y-46932D01*
X43468Y-46823D01*
X43326Y-46765D01*
X43173Y-46764D01*
X43032Y-46823D01*
X42923Y-46931D01*
X42865Y-47073D01*
X42864Y-47226D01*
X42923Y-47367D01*
X43031Y-47476D01*
X43173Y-47534D01*
X43326Y-47535D01*
X43467Y-47476D01*
X43576Y-47368D01*
X43634Y-47226D01*
X43635Y-47073D01*
X43635Y-48610D01*
X41586Y-48610D01*
X41586Y-44526D01*
X41586Y-43020D01*
X41586Y-41520D01*
X41586Y-40020D01*
X41586Y-38520D01*
X41586Y-37020D01*
X41586Y-35520D01*
X41586Y-34014D01*
X41509Y-33829D01*
X41368Y-33687D01*
X41183Y-33610D01*
X40982Y-33610D01*
X40797Y-33686D01*
X40655Y-33828D01*
X40579Y-34013D01*
X40578Y-34213D01*
X40655Y-34399D01*
X40796Y-34540D01*
X40982Y-34617D01*
X41182Y-34617D01*
X41367Y-34541D01*
X41509Y-34399D01*
X41586Y-34214D01*
X41586Y-34014D01*
X41586Y-35520D01*
X41509Y-35335D01*
X41368Y-35193D01*
X41183Y-35116D01*
X40982Y-35116D01*
X40797Y-35192D01*
X40655Y-35334D01*
X40579Y-35519D01*
X40578Y-35719D01*
X40655Y-35905D01*
X40796Y-36046D01*
X40982Y-36123D01*
X41182Y-36123D01*
X41367Y-36047D01*
X41509Y-35905D01*
X41586Y-35720D01*
X41586Y-35520D01*
X41586Y-37020D01*
X41509Y-36835D01*
X41368Y-36693D01*
X41183Y-36616D01*
X40982Y-36616D01*
X40797Y-36692D01*
X40655Y-36834D01*
X40579Y-37019D01*
X40578Y-37219D01*
X40655Y-37405D01*
X40796Y-37546D01*
X40982Y-37623D01*
X41182Y-37623D01*
X41367Y-37547D01*
X41509Y-37405D01*
X41586Y-37220D01*
X41586Y-37020D01*
X41586Y-38520D01*
X41509Y-38335D01*
X41368Y-38193D01*
X41183Y-38116D01*
X40982Y-38116D01*
X40797Y-38192D01*
X40655Y-38334D01*
X40579Y-38519D01*
X40578Y-38719D01*
X40655Y-38905D01*
X40796Y-39046D01*
X40982Y-39123D01*
X41182Y-39123D01*
X41367Y-39047D01*
X41509Y-38905D01*
X41586Y-38720D01*
X41586Y-38520D01*
X41586Y-40020D01*
X41509Y-39835D01*
X41368Y-39693D01*
X41183Y-39616D01*
X40982Y-39616D01*
X40797Y-39692D01*
X40655Y-39834D01*
X40579Y-40019D01*
X40578Y-40219D01*
X40655Y-40405D01*
X40796Y-40546D01*
X40982Y-40623D01*
X41182Y-40623D01*
X41367Y-40547D01*
X41509Y-40405D01*
X41586Y-40220D01*
X41586Y-40020D01*
X41586Y-41520D01*
X41509Y-41335D01*
X41368Y-41193D01*
X41183Y-41116D01*
X40982Y-41116D01*
X40797Y-41192D01*
X40655Y-41334D01*
X40579Y-41519D01*
X40578Y-41719D01*
X40655Y-41905D01*
X40796Y-42046D01*
X40982Y-42123D01*
X41182Y-42123D01*
X41367Y-42047D01*
X41509Y-41905D01*
X41586Y-41720D01*
X41586Y-41520D01*
X41586Y-43020D01*
X41509Y-42835D01*
X41368Y-42693D01*
X41183Y-42616D01*
X40982Y-42616D01*
X40797Y-42692D01*
X40655Y-42834D01*
X40579Y-43019D01*
X40578Y-43219D01*
X40655Y-43405D01*
X40796Y-43546D01*
X40982Y-43623D01*
X41182Y-43623D01*
X41367Y-43547D01*
X41509Y-43405D01*
X41586Y-43220D01*
X41586Y-43020D01*
X41586Y-44526D01*
X41509Y-44341D01*
X41368Y-44199D01*
X41183Y-44122D01*
X40982Y-44122D01*
X40797Y-44198D01*
X40655Y-44340D01*
X40579Y-44525D01*
X40578Y-44725D01*
X40655Y-44910D01*
X40796Y-45052D01*
X40982Y-45129D01*
X41182Y-45129D01*
X41367Y-45053D01*
X41509Y-44911D01*
X41586Y-44726D01*
X41586Y-44526D01*
X41586Y-48610D01*
X39499Y-48610D01*
X39499Y-30140D01*
X70740Y-30140D01*
X70740Y-48610D01*
X70740Y-48610D01*
G37*
G54D12*
X70740Y-48610D02*
X69657Y-48610D01*
X69657Y-44526D01*
X69657Y-43020D01*
X69657Y-41520D01*
X69657Y-40020D01*
X69657Y-38520D01*
X69657Y-37020D01*
X69657Y-34014D01*
X69580Y-33829D01*
X69439Y-33687D01*
X69254Y-33610D01*
X69053Y-33610D01*
X68868Y-33686D01*
X68726Y-33828D01*
X68649Y-34013D01*
X68649Y-34213D01*
X68726Y-34399D01*
X68867Y-34540D01*
X69052Y-34617D01*
X69253Y-34617D01*
X69438Y-34541D01*
X69580Y-34399D01*
X69657Y-34214D01*
X69657Y-34014D01*
X69657Y-37020D01*
X69644Y-36989D01*
X69644Y-35665D01*
X69624Y-35474D01*
X69589Y-35389D01*
X69532Y-35340D01*
X69433Y-35439D01*
X69433Y-35241D01*
X69383Y-35183D01*
X69199Y-35129D01*
X69008Y-35148D01*
X68923Y-35183D01*
X68873Y-35241D01*
X69153Y-35521D01*
X69433Y-35241D01*
X69433Y-35439D01*
X69252Y-35620D01*
X69532Y-35899D01*
X69589Y-35850D01*
X69644Y-35665D01*
X69644Y-36989D01*
X69580Y-36835D01*
X69439Y-36693D01*
X69433Y-36690D01*
X69433Y-35998D01*
X69153Y-35719D01*
X69054Y-35818D01*
X69054Y-35620D01*
X68774Y-35340D01*
X68717Y-35389D01*
X68662Y-35574D01*
X68682Y-35765D01*
X68717Y-35850D01*
X68774Y-35899D01*
X69054Y-35620D01*
X69054Y-35818D01*
X68873Y-35998D01*
X68923Y-36056D01*
X69107Y-36111D01*
X69299Y-36091D01*
X69383Y-36056D01*
X69433Y-35998D01*
X69433Y-36690D01*
X69254Y-36616D01*
X69053Y-36616D01*
X68868Y-36692D01*
X68726Y-36834D01*
X68649Y-37019D01*
X68649Y-37219D01*
X68726Y-37405D01*
X68867Y-37546D01*
X69052Y-37623D01*
X69253Y-37623D01*
X69438Y-37547D01*
X69580Y-37405D01*
X69657Y-37220D01*
X69657Y-37020D01*
X69657Y-38520D01*
X69580Y-38335D01*
X69439Y-38193D01*
X69254Y-38116D01*
X69053Y-38116D01*
X68868Y-38192D01*
X68726Y-38334D01*
X68649Y-38519D01*
X68649Y-38719D01*
X68726Y-38905D01*
X68867Y-39046D01*
X69052Y-39123D01*
X69253Y-39123D01*
X69438Y-39047D01*
X69580Y-38905D01*
X69657Y-38720D01*
X69657Y-38520D01*
X69657Y-40020D01*
X69580Y-39835D01*
X69439Y-39693D01*
X69254Y-39616D01*
X69053Y-39616D01*
X68868Y-39692D01*
X68726Y-39834D01*
X68649Y-40019D01*
X68649Y-40219D01*
X68726Y-40405D01*
X68867Y-40546D01*
X69052Y-40623D01*
X69253Y-40623D01*
X69438Y-40547D01*
X69580Y-40405D01*
X69657Y-40220D01*
X69657Y-40020D01*
X69657Y-41520D01*
X69580Y-41335D01*
X69439Y-41193D01*
X69254Y-41116D01*
X69053Y-41116D01*
X68868Y-41192D01*
X68726Y-41334D01*
X68649Y-41519D01*
X68649Y-41719D01*
X68726Y-41905D01*
X68867Y-42046D01*
X69052Y-42123D01*
X69253Y-42123D01*
X69438Y-42047D01*
X69580Y-41905D01*
X69657Y-41720D01*
X69657Y-41520D01*
X69657Y-43020D01*
X69580Y-42835D01*
X69439Y-42693D01*
X69254Y-42616D01*
X69053Y-42616D01*
X68868Y-42692D01*
X68726Y-42834D01*
X68649Y-43019D01*
X68649Y-43219D01*
X68726Y-43405D01*
X68867Y-43546D01*
X69052Y-43623D01*
X69253Y-43623D01*
X69438Y-43547D01*
X69580Y-43405D01*
X69657Y-43220D01*
X69657Y-43020D01*
X69657Y-44526D01*
X69580Y-44341D01*
X69439Y-44199D01*
X69254Y-44122D01*
X69053Y-44122D01*
X68868Y-44198D01*
X68726Y-44340D01*
X68649Y-44525D01*
X68649Y-44725D01*
X68726Y-44910D01*
X68867Y-45052D01*
X69052Y-45129D01*
X69253Y-45129D01*
X69438Y-45053D01*
X69580Y-44911D01*
X69657Y-44726D01*
X69657Y-44526D01*
X69657Y-48610D01*
X69625Y-48610D01*
X69625Y-46020D01*
X69587Y-45928D01*
X69516Y-45858D01*
X69424Y-45820D01*
X69365Y-45819D01*
X68784Y-45239D01*
X68785Y-45180D01*
X68747Y-45088D01*
X68676Y-45018D01*
X68584Y-44980D01*
X68485Y-44979D01*
X68393Y-45017D01*
X68323Y-45088D01*
X68285Y-45180D01*
X68284Y-45279D01*
X68322Y-45371D01*
X68393Y-45441D01*
X68485Y-45479D01*
X68544Y-45480D01*
X69125Y-46060D01*
X69124Y-46119D01*
X69162Y-46211D01*
X69233Y-46281D01*
X69325Y-46319D01*
X69424Y-46320D01*
X69516Y-46282D01*
X69586Y-46211D01*
X69624Y-46119D01*
X69625Y-46020D01*
X69625Y-48610D01*
X67360Y-48610D01*
X67360Y-37038D01*
X67297Y-36888D01*
X67182Y-36772D01*
X67031Y-36710D01*
X66868Y-36709D01*
X66718Y-36772D01*
X66602Y-36887D01*
X66540Y-37038D01*
X66539Y-37201D01*
X66602Y-37351D01*
X66717Y-37467D01*
X66868Y-37529D01*
X67031Y-37530D01*
X67181Y-37467D01*
X67297Y-37352D01*
X67359Y-37201D01*
X67360Y-37038D01*
X67360Y-48610D01*
X67360Y-48610D01*
X67360Y-38441D01*
X67360Y-38398D01*
X67360Y-37798D01*
X67343Y-37757D01*
X67312Y-37726D01*
X67271Y-37710D01*
X67228Y-37710D01*
X66628Y-37710D01*
X66587Y-37726D01*
X66556Y-37757D01*
X66540Y-37798D01*
X66540Y-37841D01*
X66540Y-38441D01*
X66556Y-38482D01*
X66587Y-38513D01*
X66628Y-38530D01*
X66671Y-38530D01*
X67271Y-38530D01*
X67312Y-38513D01*
X67343Y-38482D01*
X67360Y-38441D01*
X67360Y-48610D01*
X61176Y-48610D01*
X61176Y-45289D01*
X61155Y-45135D01*
X61137Y-45092D01*
X61089Y-45055D01*
X60990Y-45154D01*
X60990Y-44956D01*
X60952Y-44908D01*
X60802Y-44869D01*
X60649Y-44890D01*
X60606Y-44908D01*
X60568Y-44956D01*
X60779Y-45167D01*
X60990Y-44956D01*
X60990Y-45154D01*
X60878Y-45266D01*
X61089Y-45477D01*
X61137Y-45439D01*
X61176Y-45289D01*
X61176Y-48610D01*
X60990Y-48610D01*
X60990Y-45576D01*
X60779Y-45365D01*
X60680Y-45464D01*
X60680Y-45266D01*
X60469Y-45055D01*
X60421Y-45092D01*
X60382Y-45242D01*
X60403Y-45396D01*
X60421Y-45439D01*
X60469Y-45477D01*
X60680Y-45266D01*
X60680Y-45464D01*
X60568Y-45576D01*
X60606Y-45624D01*
X60756Y-45663D01*
X60909Y-45641D01*
X60952Y-45624D01*
X60990Y-45576D01*
X60990Y-48610D01*
X60122Y-48610D01*
X60122Y-36367D01*
X60100Y-36223D01*
X60087Y-36191D01*
X60042Y-36156D01*
X59943Y-36255D01*
X59943Y-36057D01*
X59908Y-36012D01*
X59767Y-35977D01*
X59623Y-35999D01*
X59591Y-36012D01*
X59556Y-36057D01*
X59750Y-36251D01*
X59943Y-36057D01*
X59943Y-36255D01*
X59848Y-36350D01*
X60042Y-36543D01*
X60087Y-36508D01*
X60122Y-36367D01*
X60122Y-48610D01*
X59943Y-48610D01*
X59943Y-36642D01*
X59750Y-36448D01*
X59651Y-36547D01*
X59651Y-36350D01*
X59457Y-36156D01*
X59412Y-36191D01*
X59377Y-36332D01*
X59399Y-36476D01*
X59412Y-36508D01*
X59457Y-36543D01*
X59651Y-36350D01*
X59651Y-36547D01*
X59556Y-36642D01*
X59591Y-36687D01*
X59732Y-36722D01*
X59876Y-36700D01*
X59908Y-36687D01*
X59943Y-36642D01*
X59943Y-48610D01*
X59371Y-48610D01*
X59371Y-45387D01*
X59301Y-45216D01*
X59170Y-45085D01*
X59010Y-45018D01*
X59010Y-39125D01*
X59010Y-38600D01*
X58997Y-38534D01*
X58997Y-38534D01*
X58960Y-38479D01*
X58910Y-38429D01*
X58910Y-36082D01*
X58910Y-36047D01*
X58910Y-35857D01*
X58910Y-35672D01*
X58910Y-35482D01*
X58910Y-35447D01*
X58896Y-35414D01*
X58870Y-35388D01*
X58860Y-35384D01*
X58860Y-31273D01*
X58802Y-31131D01*
X58693Y-31023D01*
X58552Y-30964D01*
X58398Y-30964D01*
X58256Y-31022D01*
X58148Y-31131D01*
X58137Y-31157D01*
X58127Y-31131D01*
X58018Y-31023D01*
X57877Y-30964D01*
X57723Y-30964D01*
X57581Y-31022D01*
X57473Y-31131D01*
X57414Y-31272D01*
X57414Y-31426D01*
X57472Y-31568D01*
X57581Y-31676D01*
X57722Y-31735D01*
X57876Y-31735D01*
X58018Y-31677D01*
X58126Y-31568D01*
X58137Y-31542D01*
X58147Y-31568D01*
X58256Y-31676D01*
X58397Y-31735D01*
X58551Y-31735D01*
X58693Y-31677D01*
X58801Y-31568D01*
X58860Y-31427D01*
X58860Y-31273D01*
X58860Y-35384D01*
X58837Y-35375D01*
X58612Y-35375D01*
X58590Y-35397D01*
X58590Y-35695D01*
X58887Y-35695D01*
X58910Y-35672D01*
X58910Y-35857D01*
X58887Y-35835D01*
X58590Y-35835D01*
X58590Y-36132D01*
X58612Y-36155D01*
X58837Y-36155D01*
X58870Y-36141D01*
X58896Y-36115D01*
X58910Y-36082D01*
X58910Y-38429D01*
X58640Y-38159D01*
X58640Y-37933D01*
X58681Y-37891D01*
X58719Y-37799D01*
X58720Y-37700D01*
X58682Y-37608D01*
X58611Y-37538D01*
X58519Y-37500D01*
X58450Y-37499D01*
X58450Y-36132D01*
X58450Y-35835D01*
X58450Y-35695D01*
X58450Y-35397D01*
X58427Y-35375D01*
X58202Y-35375D01*
X58169Y-35388D01*
X58143Y-35414D01*
X58130Y-35447D01*
X58130Y-35482D01*
X58130Y-35672D01*
X58152Y-35695D01*
X58450Y-35695D01*
X58450Y-35835D01*
X58152Y-35835D01*
X58130Y-35857D01*
X58130Y-36047D01*
X58130Y-36082D01*
X58143Y-36115D01*
X58169Y-36141D01*
X58202Y-36155D01*
X58427Y-36155D01*
X58450Y-36132D01*
X58450Y-37499D01*
X58420Y-37499D01*
X58328Y-37537D01*
X58258Y-37608D01*
X58220Y-37700D01*
X58219Y-37799D01*
X58257Y-37891D01*
X58300Y-37933D01*
X58300Y-38230D01*
X58312Y-38295D01*
X58349Y-38350D01*
X58626Y-38626D01*
X58609Y-38620D01*
X58510Y-38619D01*
X58418Y-38657D01*
X58348Y-38728D01*
X58310Y-38820D01*
X58309Y-38879D01*
X58069Y-39119D01*
X58032Y-39174D01*
X58020Y-39240D01*
X58020Y-40564D01*
X57930Y-40654D01*
X57930Y-35683D01*
X57867Y-35533D01*
X57752Y-35417D01*
X57601Y-35355D01*
X57438Y-35354D01*
X57288Y-35417D01*
X57172Y-35532D01*
X57110Y-35683D01*
X57109Y-35846D01*
X57172Y-35996D01*
X57287Y-36112D01*
X57370Y-36146D01*
X57370Y-36537D01*
X56670Y-37237D01*
X56670Y-36146D01*
X56751Y-36112D01*
X56867Y-35997D01*
X56929Y-35846D01*
X56930Y-35683D01*
X56867Y-35533D01*
X56752Y-35417D01*
X56601Y-35355D01*
X56438Y-35354D01*
X56288Y-35417D01*
X56172Y-35532D01*
X56110Y-35683D01*
X56109Y-35846D01*
X56172Y-35996D01*
X56287Y-36112D01*
X56370Y-36146D01*
X56370Y-37177D01*
X55930Y-37617D01*
X55930Y-35683D01*
X55867Y-35533D01*
X55752Y-35417D01*
X55601Y-35355D01*
X55438Y-35354D01*
X55288Y-35417D01*
X55172Y-35532D01*
X55110Y-35683D01*
X55109Y-35846D01*
X55172Y-35996D01*
X55287Y-36112D01*
X55438Y-36174D01*
X55601Y-36175D01*
X55751Y-36112D01*
X55867Y-35997D01*
X55929Y-35846D01*
X55930Y-35683D01*
X55930Y-37617D01*
X55802Y-37745D01*
X55160Y-37745D01*
X55160Y-37744D01*
X55102Y-37756D01*
X55053Y-37788D01*
X55053Y-37788D01*
X54907Y-37935D01*
X54820Y-37934D01*
X54728Y-37972D01*
X54658Y-38043D01*
X54620Y-38135D01*
X54619Y-38234D01*
X54657Y-38326D01*
X54728Y-38396D01*
X54820Y-38434D01*
X54919Y-38435D01*
X55011Y-38397D01*
X55081Y-38326D01*
X55119Y-38234D01*
X55120Y-38147D01*
X55119Y-38234D01*
X55157Y-38326D01*
X55228Y-38396D01*
X55320Y-38434D01*
X55419Y-38435D01*
X55511Y-38397D01*
X55573Y-38335D01*
X55935Y-38335D01*
X55992Y-38323D01*
X55992Y-38323D01*
X56041Y-38291D01*
X57626Y-36706D01*
X57626Y-36706D01*
X57626Y-36706D01*
X57658Y-36657D01*
X57658Y-36657D01*
X57670Y-36600D01*
X57670Y-36146D01*
X57751Y-36112D01*
X57867Y-35997D01*
X57929Y-35846D01*
X57930Y-35683D01*
X57930Y-40654D01*
X56889Y-41695D01*
X56830Y-41694D01*
X56738Y-41732D01*
X56668Y-41803D01*
X56630Y-41895D01*
X56629Y-41994D01*
X56667Y-42086D01*
X56738Y-42156D01*
X56830Y-42194D01*
X56929Y-42195D01*
X57021Y-42157D01*
X57091Y-42086D01*
X57129Y-41994D01*
X57130Y-41935D01*
X58300Y-40765D01*
X58300Y-41009D01*
X58249Y-41060D01*
X58190Y-41059D01*
X58098Y-41097D01*
X58028Y-41168D01*
X57990Y-41260D01*
X57989Y-41359D01*
X58027Y-41451D01*
X58098Y-41521D01*
X58190Y-41559D01*
X58289Y-41560D01*
X58381Y-41522D01*
X58451Y-41451D01*
X58489Y-41359D01*
X58490Y-41300D01*
X58590Y-41200D01*
X58590Y-41200D01*
X58590Y-41200D01*
X58614Y-41163D01*
X58627Y-41145D01*
X58627Y-41145D01*
X58640Y-41080D01*
X58640Y-41080D01*
X58640Y-41079D01*
X58640Y-39678D01*
X58681Y-39636D01*
X58719Y-39544D01*
X58720Y-39485D01*
X58960Y-39245D01*
X58997Y-39190D01*
X58997Y-39190D01*
X59010Y-39125D01*
X59010Y-45018D01*
X58999Y-45014D01*
X58815Y-45014D01*
X58644Y-45084D01*
X58513Y-45215D01*
X58474Y-45309D01*
X56779Y-45309D01*
X56741Y-45216D01*
X56610Y-45085D01*
X56455Y-45020D01*
X56455Y-40400D01*
X56417Y-40308D01*
X56346Y-40238D01*
X56254Y-40200D01*
X56155Y-40199D01*
X56063Y-40237D01*
X55993Y-40308D01*
X55955Y-40400D01*
X55954Y-40487D01*
X55750Y-40692D01*
X55399Y-40692D01*
X55196Y-40488D01*
X55147Y-40456D01*
X55090Y-40445D01*
X53900Y-40445D01*
X53900Y-33460D01*
X53862Y-33368D01*
X53791Y-33298D01*
X53699Y-33260D01*
X53600Y-33259D01*
X53508Y-33297D01*
X53446Y-33360D01*
X53412Y-33360D01*
X53449Y-33269D01*
X53450Y-33170D01*
X53412Y-33078D01*
X53341Y-33008D01*
X53249Y-32970D01*
X53150Y-32969D01*
X53058Y-33007D01*
X52996Y-33070D01*
X51688Y-33070D01*
X51626Y-33008D01*
X51534Y-32970D01*
X51435Y-32969D01*
X51343Y-33007D01*
X51273Y-33078D01*
X51235Y-33170D01*
X51234Y-33269D01*
X51272Y-33361D01*
X51343Y-33431D01*
X51435Y-33469D01*
X51534Y-33470D01*
X51626Y-33432D01*
X51688Y-33370D01*
X52122Y-33370D01*
X52085Y-33460D01*
X52084Y-33559D01*
X52122Y-33651D01*
X52193Y-33721D01*
X52285Y-33759D01*
X52384Y-33760D01*
X52476Y-33722D01*
X52538Y-33660D01*
X53446Y-33660D01*
X53508Y-33721D01*
X53600Y-33759D01*
X53699Y-33760D01*
X53791Y-33722D01*
X53861Y-33651D01*
X53899Y-33559D01*
X53900Y-33460D01*
X53900Y-40445D01*
X53895Y-40445D01*
X53837Y-40456D01*
X53818Y-40469D01*
X53788Y-40488D01*
X53788Y-40488D01*
X53617Y-40660D01*
X53530Y-40659D01*
X53438Y-40697D01*
X53368Y-40768D01*
X53330Y-40860D01*
X53329Y-40959D01*
X53367Y-41051D01*
X53438Y-41121D01*
X53530Y-41159D01*
X53629Y-41160D01*
X53721Y-41122D01*
X53791Y-41051D01*
X53829Y-40959D01*
X53830Y-40872D01*
X53957Y-40745D01*
X55027Y-40745D01*
X55231Y-40948D01*
X55231Y-40948D01*
X55260Y-40968D01*
X55280Y-40981D01*
X55280Y-40981D01*
X55337Y-40992D01*
X55812Y-40992D01*
X55869Y-40981D01*
X55869Y-40981D01*
X55918Y-40948D01*
X56167Y-40699D01*
X56254Y-40700D01*
X56346Y-40662D01*
X56416Y-40591D01*
X56454Y-40499D01*
X56455Y-40400D01*
X56455Y-45020D01*
X56439Y-45014D01*
X56255Y-45014D01*
X56084Y-45084D01*
X55953Y-45215D01*
X55882Y-45386D01*
X55882Y-45570D01*
X55953Y-45741D01*
X56083Y-45872D01*
X56254Y-45943D01*
X56439Y-45943D01*
X56609Y-45873D01*
X56740Y-45742D01*
X56779Y-45649D01*
X58474Y-45649D01*
X58513Y-45741D01*
X58643Y-45872D01*
X58814Y-45943D01*
X58999Y-45943D01*
X59169Y-45873D01*
X59300Y-45742D01*
X59371Y-45571D01*
X59371Y-45387D01*
X59371Y-48610D01*
X59358Y-48610D01*
X59358Y-47287D01*
X59338Y-47111D01*
X59310Y-47044D01*
X59257Y-46999D01*
X59158Y-47098D01*
X59158Y-46900D01*
X59113Y-46847D01*
X58943Y-46799D01*
X58767Y-46819D01*
X58700Y-46847D01*
X58656Y-46900D01*
X58907Y-47152D01*
X59158Y-46900D01*
X59158Y-47098D01*
X59006Y-47251D01*
X59257Y-47502D01*
X59310Y-47457D01*
X59358Y-47287D01*
X59358Y-48610D01*
X59158Y-48610D01*
X59158Y-47601D01*
X58907Y-47349D01*
X58808Y-47448D01*
X58808Y-47251D01*
X58557Y-46999D01*
X58503Y-47044D01*
X58455Y-47214D01*
X58475Y-47390D01*
X58503Y-47457D01*
X58557Y-47502D01*
X58808Y-47251D01*
X58808Y-47448D01*
X58656Y-47601D01*
X58700Y-47654D01*
X58870Y-47702D01*
X59046Y-47682D01*
X59113Y-47654D01*
X59158Y-47601D01*
X59158Y-48610D01*
X56798Y-48610D01*
X56798Y-47287D01*
X56778Y-47111D01*
X56750Y-47044D01*
X56697Y-46999D01*
X56598Y-47098D01*
X56598Y-46900D01*
X56553Y-46847D01*
X56383Y-46799D01*
X56207Y-46819D01*
X56140Y-46847D01*
X56096Y-46900D01*
X56347Y-47152D01*
X56598Y-46900D01*
X56598Y-47098D01*
X56446Y-47251D01*
X56697Y-47502D01*
X56750Y-47457D01*
X56798Y-47287D01*
X56798Y-48610D01*
X56598Y-48610D01*
X56598Y-47601D01*
X56347Y-47349D01*
X56248Y-47448D01*
X56248Y-47251D01*
X55997Y-46999D01*
X55943Y-47044D01*
X55895Y-47214D01*
X55915Y-47390D01*
X55943Y-47457D01*
X55997Y-47502D01*
X56248Y-47251D01*
X56248Y-47448D01*
X56096Y-47601D01*
X56140Y-47654D01*
X56310Y-47702D01*
X56486Y-47682D01*
X56553Y-47654D01*
X56598Y-47601D01*
X56598Y-48610D01*
X54353Y-48610D01*
X54353Y-45387D01*
X54283Y-45216D01*
X54219Y-45152D01*
X54219Y-44050D01*
X54219Y-43150D01*
X50530Y-43150D01*
X50530Y-44010D01*
X50520Y-44010D01*
X50520Y-41025D01*
X50482Y-40933D01*
X50411Y-40863D01*
X50319Y-40825D01*
X50260Y-40824D01*
X49844Y-40409D01*
X49870Y-40348D01*
X49870Y-40185D01*
X49808Y-40034D01*
X49693Y-39918D01*
X49542Y-39856D01*
X49379Y-39856D01*
X49228Y-39918D01*
X49122Y-40024D01*
X49122Y-30972D01*
X49100Y-30828D01*
X49087Y-30796D01*
X49042Y-30761D01*
X48943Y-30860D01*
X48943Y-30662D01*
X48908Y-30617D01*
X48767Y-30582D01*
X48623Y-30604D01*
X48591Y-30617D01*
X48556Y-30662D01*
X48750Y-30856D01*
X48943Y-30662D01*
X48943Y-30860D01*
X48848Y-30955D01*
X49042Y-31148D01*
X49087Y-31113D01*
X49122Y-30972D01*
X49122Y-40024D01*
X49113Y-40033D01*
X49050Y-40184D01*
X49050Y-40347D01*
X49112Y-40498D01*
X49228Y-40613D01*
X49378Y-40676D01*
X49541Y-40676D01*
X49604Y-40650D01*
X50020Y-41065D01*
X50019Y-41124D01*
X50057Y-41216D01*
X50128Y-41286D01*
X50220Y-41324D01*
X50319Y-41325D01*
X50411Y-41287D01*
X50481Y-41216D01*
X50519Y-41124D01*
X50520Y-41025D01*
X50520Y-44010D01*
X48943Y-44010D01*
X48943Y-31247D01*
X48750Y-31053D01*
X48651Y-31152D01*
X48651Y-30955D01*
X48457Y-30761D01*
X48412Y-30796D01*
X48377Y-30937D01*
X48399Y-31081D01*
X48412Y-31113D01*
X48457Y-31148D01*
X48651Y-30955D01*
X48651Y-31152D01*
X48556Y-31247D01*
X48591Y-31292D01*
X48732Y-31327D01*
X48876Y-31305D01*
X48908Y-31292D01*
X48943Y-31247D01*
X48943Y-44010D01*
X48372Y-44010D01*
X48372Y-44730D01*
X54217Y-44730D01*
X54217Y-44050D01*
X54219Y-44050D01*
X54219Y-45152D01*
X54152Y-45085D01*
X53981Y-45014D01*
X53797Y-45014D01*
X53626Y-45084D01*
X53495Y-45215D01*
X53456Y-45309D01*
X51761Y-45309D01*
X51723Y-45216D01*
X51592Y-45085D01*
X51421Y-45014D01*
X51237Y-45014D01*
X51066Y-45084D01*
X50935Y-45215D01*
X50864Y-45386D01*
X50864Y-45570D01*
X50935Y-45741D01*
X51065Y-45872D01*
X51236Y-45943D01*
X51421Y-45943D01*
X51591Y-45873D01*
X51722Y-45742D01*
X51761Y-45649D01*
X53456Y-45649D01*
X53495Y-45741D01*
X53625Y-45872D01*
X53796Y-45943D01*
X53981Y-45943D01*
X54151Y-45873D01*
X54282Y-45742D01*
X54353Y-45571D01*
X54353Y-45387D01*
X54353Y-48610D01*
X54340Y-48610D01*
X54340Y-47287D01*
X54320Y-47111D01*
X54292Y-47044D01*
X54239Y-46999D01*
X54140Y-47098D01*
X54140Y-46900D01*
X54095Y-46847D01*
X53925Y-46799D01*
X53749Y-46819D01*
X53682Y-46847D01*
X53638Y-46900D01*
X53889Y-47152D01*
X54140Y-46900D01*
X54140Y-47098D01*
X53988Y-47251D01*
X54239Y-47502D01*
X54292Y-47457D01*
X54340Y-47287D01*
X54340Y-48610D01*
X54140Y-48610D01*
X54140Y-47601D01*
X53889Y-47349D01*
X53790Y-47448D01*
X53790Y-47251D01*
X53539Y-46999D01*
X53485Y-47044D01*
X53437Y-47214D01*
X53457Y-47390D01*
X53485Y-47457D01*
X53539Y-47502D01*
X53790Y-47251D01*
X53790Y-47448D01*
X53638Y-47601D01*
X53682Y-47654D01*
X53852Y-47702D01*
X54028Y-47682D01*
X54095Y-47654D01*
X54140Y-47601D01*
X54140Y-48610D01*
X51780Y-48610D01*
X51780Y-47287D01*
X51760Y-47111D01*
X51732Y-47044D01*
X51679Y-46999D01*
X51580Y-47098D01*
X51580Y-46900D01*
X51535Y-46847D01*
X51365Y-46799D01*
X51189Y-46819D01*
X51122Y-46847D01*
X51078Y-46900D01*
X51329Y-47152D01*
X51580Y-46900D01*
X51580Y-47098D01*
X51428Y-47251D01*
X51679Y-47502D01*
X51732Y-47457D01*
X51780Y-47287D01*
X51780Y-48610D01*
X51580Y-48610D01*
X51580Y-47601D01*
X51329Y-47349D01*
X51230Y-47448D01*
X51230Y-47251D01*
X50979Y-46999D01*
X50925Y-47044D01*
X50877Y-47214D01*
X50897Y-47390D01*
X50925Y-47457D01*
X50979Y-47502D01*
X51230Y-47251D01*
X51230Y-47448D01*
X51078Y-47601D01*
X51122Y-47654D01*
X51292Y-47702D01*
X51468Y-47682D01*
X51535Y-47654D01*
X51580Y-47601D01*
X51580Y-48610D01*
X49870Y-48610D01*
X49870Y-45185D01*
X49808Y-45034D01*
X49693Y-44918D01*
X49542Y-44856D01*
X49379Y-44856D01*
X49228Y-44918D01*
X49113Y-45033D01*
X49050Y-45184D01*
X49050Y-45347D01*
X49112Y-45498D01*
X49228Y-45613D01*
X49378Y-45676D01*
X49541Y-45676D01*
X49692Y-45614D01*
X49807Y-45498D01*
X49870Y-45348D01*
X49870Y-45185D01*
X49870Y-48610D01*
X46635Y-48610D01*
X46635Y-46073D01*
X46635Y-45073D01*
X46635Y-44073D01*
X46635Y-41873D01*
X46635Y-40873D01*
X46635Y-39873D01*
X46635Y-37673D01*
X46635Y-36673D01*
X46635Y-35673D01*
X46635Y-33473D01*
X46635Y-32473D01*
X46635Y-31473D01*
X46576Y-31332D01*
X46468Y-31223D01*
X46326Y-31165D01*
X46173Y-31164D01*
X46032Y-31223D01*
X45923Y-31331D01*
X45865Y-31473D01*
X45864Y-31626D01*
X45923Y-31767D01*
X46031Y-31876D01*
X46173Y-31934D01*
X46326Y-31935D01*
X46467Y-31876D01*
X46576Y-31768D01*
X46634Y-31626D01*
X46635Y-31473D01*
X46635Y-32473D01*
X46576Y-32332D01*
X46468Y-32223D01*
X46326Y-32165D01*
X46173Y-32164D01*
X46032Y-32223D01*
X45923Y-32331D01*
X45865Y-32473D01*
X45864Y-32626D01*
X45923Y-32767D01*
X46031Y-32876D01*
X46173Y-32934D01*
X46326Y-32935D01*
X46467Y-32876D01*
X46576Y-32768D01*
X46634Y-32626D01*
X46635Y-32473D01*
X46635Y-33473D01*
X46576Y-33332D01*
X46468Y-33223D01*
X46326Y-33165D01*
X46173Y-33164D01*
X46032Y-33223D01*
X45923Y-33331D01*
X45865Y-33473D01*
X45864Y-33626D01*
X45923Y-33767D01*
X46031Y-33876D01*
X46173Y-33934D01*
X46326Y-33935D01*
X46467Y-33876D01*
X46576Y-33768D01*
X46634Y-33626D01*
X46635Y-33473D01*
X46635Y-35673D01*
X46635Y-35673D01*
X46635Y-34846D01*
X46635Y-34803D01*
X46635Y-34253D01*
X46618Y-34212D01*
X46587Y-34181D01*
X46546Y-34165D01*
X46503Y-34165D01*
X45953Y-34165D01*
X45912Y-34181D01*
X45881Y-34212D01*
X45865Y-34253D01*
X45865Y-34296D01*
X45865Y-34846D01*
X45881Y-34887D01*
X45912Y-34918D01*
X45953Y-34935D01*
X45996Y-34935D01*
X46546Y-34935D01*
X46587Y-34918D01*
X46618Y-34887D01*
X46635Y-34846D01*
X46635Y-35673D01*
X46576Y-35532D01*
X46468Y-35423D01*
X46326Y-35365D01*
X46173Y-35364D01*
X46032Y-35423D01*
X45923Y-35531D01*
X45865Y-35673D01*
X45864Y-35826D01*
X45923Y-35967D01*
X46031Y-36076D01*
X46173Y-36134D01*
X46326Y-36135D01*
X46467Y-36076D01*
X46576Y-35968D01*
X46634Y-35826D01*
X46635Y-35673D01*
X46635Y-36673D01*
X46576Y-36532D01*
X46468Y-36423D01*
X46326Y-36365D01*
X46173Y-36364D01*
X46032Y-36423D01*
X45923Y-36531D01*
X45865Y-36673D01*
X45864Y-36826D01*
X45923Y-36967D01*
X46031Y-37076D01*
X46173Y-37134D01*
X46326Y-37135D01*
X46467Y-37076D01*
X46576Y-36968D01*
X46634Y-36826D01*
X46635Y-36673D01*
X46635Y-37673D01*
X46576Y-37532D01*
X46468Y-37423D01*
X46326Y-37365D01*
X46173Y-37364D01*
X46032Y-37423D01*
X45923Y-37531D01*
X45865Y-37673D01*
X45864Y-37826D01*
X45923Y-37967D01*
X46031Y-38076D01*
X46173Y-38134D01*
X46326Y-38135D01*
X46467Y-38076D01*
X46576Y-37968D01*
X46634Y-37826D01*
X46635Y-37673D01*
X46635Y-39873D01*
X46635Y-39873D01*
X46635Y-39046D01*
X46635Y-39003D01*
X46635Y-38453D01*
X46618Y-38412D01*
X46587Y-38381D01*
X46546Y-38365D01*
X46503Y-38365D01*
X45953Y-38365D01*
X45912Y-38381D01*
X45881Y-38412D01*
X45865Y-38453D01*
X45865Y-38496D01*
X45865Y-39046D01*
X45881Y-39087D01*
X45912Y-39118D01*
X45953Y-39135D01*
X45996Y-39135D01*
X46546Y-39135D01*
X46587Y-39118D01*
X46618Y-39087D01*
X46635Y-39046D01*
X46635Y-39873D01*
X46576Y-39732D01*
X46468Y-39623D01*
X46326Y-39565D01*
X46173Y-39564D01*
X46032Y-39623D01*
X45923Y-39731D01*
X45865Y-39873D01*
X45864Y-40026D01*
X45923Y-40167D01*
X46031Y-40276D01*
X46173Y-40334D01*
X46326Y-40335D01*
X46467Y-40276D01*
X46576Y-40168D01*
X46634Y-40026D01*
X46635Y-39873D01*
X46635Y-40873D01*
X46576Y-40732D01*
X46468Y-40623D01*
X46326Y-40565D01*
X46173Y-40564D01*
X46032Y-40623D01*
X45923Y-40731D01*
X45865Y-40873D01*
X45864Y-41026D01*
X45923Y-41167D01*
X46031Y-41276D01*
X46173Y-41334D01*
X46326Y-41335D01*
X46467Y-41276D01*
X46576Y-41168D01*
X46634Y-41026D01*
X46635Y-40873D01*
X46635Y-41873D01*
X46576Y-41732D01*
X46468Y-41623D01*
X46326Y-41565D01*
X46173Y-41564D01*
X46032Y-41623D01*
X45923Y-41731D01*
X45865Y-41873D01*
X45864Y-42026D01*
X45923Y-42167D01*
X46031Y-42276D01*
X46173Y-42334D01*
X46326Y-42335D01*
X46467Y-42276D01*
X46576Y-42168D01*
X46634Y-42026D01*
X46635Y-41873D01*
X46635Y-44073D01*
X46635Y-44073D01*
X46635Y-43246D01*
X46635Y-43203D01*
X46635Y-42653D01*
X46618Y-42612D01*
X46587Y-42581D01*
X46546Y-42565D01*
X46503Y-42565D01*
X45953Y-42565D01*
X45912Y-42581D01*
X45881Y-42612D01*
X45865Y-42653D01*
X45865Y-42696D01*
X45865Y-43246D01*
X45881Y-43287D01*
X45912Y-43318D01*
X45953Y-43335D01*
X45996Y-43335D01*
X46546Y-43335D01*
X46587Y-43318D01*
X46618Y-43287D01*
X46635Y-43246D01*
X46635Y-44073D01*
X46576Y-43932D01*
X46468Y-43823D01*
X46326Y-43765D01*
X46173Y-43764D01*
X46032Y-43823D01*
X45923Y-43931D01*
X45865Y-44073D01*
X45864Y-44226D01*
X45923Y-44367D01*
X46031Y-44476D01*
X46173Y-44534D01*
X46326Y-44535D01*
X46467Y-44476D01*
X46576Y-44368D01*
X46634Y-44226D01*
X46635Y-44073D01*
X46635Y-45073D01*
X46576Y-44932D01*
X46468Y-44823D01*
X46326Y-44765D01*
X46173Y-44764D01*
X46032Y-44823D01*
X45923Y-44931D01*
X45865Y-45073D01*
X45864Y-45226D01*
X45923Y-45367D01*
X46031Y-45476D01*
X46173Y-45534D01*
X46326Y-45535D01*
X46467Y-45476D01*
X46576Y-45368D01*
X46634Y-45226D01*
X46635Y-45073D01*
X46635Y-46073D01*
X46576Y-45932D01*
X46468Y-45823D01*
X46326Y-45765D01*
X46173Y-45764D01*
X46032Y-45823D01*
X45923Y-45931D01*
X45865Y-46073D01*
X45864Y-46226D01*
X45923Y-46367D01*
X46031Y-46476D01*
X46173Y-46534D01*
X46326Y-46535D01*
X46467Y-46476D01*
X46576Y-46368D01*
X46634Y-46226D01*
X46635Y-46073D01*
X46635Y-48610D01*
X46635Y-48610D01*
X46635Y-47446D01*
X46635Y-47403D01*
X46635Y-46853D01*
X46618Y-46812D01*
X46587Y-46781D01*
X46546Y-46765D01*
X46503Y-46765D01*
X45953Y-46765D01*
X45912Y-46781D01*
X45881Y-46812D01*
X45865Y-46853D01*
X45865Y-46896D01*
X45865Y-47446D01*
X45881Y-47487D01*
X45912Y-47518D01*
X45953Y-47535D01*
X45996Y-47535D01*
X46546Y-47535D01*
X46587Y-47518D01*
X46618Y-47487D01*
X46635Y-47446D01*
X46635Y-48610D01*
X43635Y-48610D01*
X43635Y-47073D01*
X43635Y-46073D01*
X43635Y-45073D01*
X43635Y-44073D01*
X43635Y-42873D01*
X43635Y-41873D01*
X43635Y-40873D01*
X43635Y-39873D01*
X43635Y-38673D01*
X43635Y-37673D01*
X43635Y-36673D01*
X43635Y-35673D01*
X43635Y-34473D01*
X43635Y-33473D01*
X43635Y-32473D01*
X43635Y-31473D01*
X43576Y-31332D01*
X43468Y-31223D01*
X43326Y-31165D01*
X43173Y-31164D01*
X43032Y-31223D01*
X42923Y-31331D01*
X42865Y-31473D01*
X42864Y-31626D01*
X42923Y-31767D01*
X43031Y-31876D01*
X43173Y-31934D01*
X43326Y-31935D01*
X43467Y-31876D01*
X43576Y-31768D01*
X43634Y-31626D01*
X43635Y-31473D01*
X43635Y-32473D01*
X43576Y-32332D01*
X43468Y-32223D01*
X43326Y-32165D01*
X43173Y-32164D01*
X43032Y-32223D01*
X42923Y-32331D01*
X42865Y-32473D01*
X42864Y-32626D01*
X42923Y-32767D01*
X43031Y-32876D01*
X43173Y-32934D01*
X43326Y-32935D01*
X43467Y-32876D01*
X43576Y-32768D01*
X43634Y-32626D01*
X43635Y-32473D01*
X43635Y-33473D01*
X43576Y-33332D01*
X43468Y-33223D01*
X43326Y-33165D01*
X43173Y-33164D01*
X43032Y-33223D01*
X42923Y-33331D01*
X42865Y-33473D01*
X42864Y-33626D01*
X42923Y-33767D01*
X43031Y-33876D01*
X43173Y-33934D01*
X43326Y-33935D01*
X43467Y-33876D01*
X43576Y-33768D01*
X43634Y-33626D01*
X43635Y-33473D01*
X43635Y-34473D01*
X43576Y-34332D01*
X43468Y-34223D01*
X43326Y-34165D01*
X43173Y-34164D01*
X43032Y-34223D01*
X42923Y-34331D01*
X42865Y-34473D01*
X42864Y-34626D01*
X42923Y-34767D01*
X43031Y-34876D01*
X43173Y-34934D01*
X43326Y-34935D01*
X43467Y-34876D01*
X43576Y-34768D01*
X43634Y-34626D01*
X43635Y-34473D01*
X43635Y-35673D01*
X43576Y-35532D01*
X43468Y-35423D01*
X43326Y-35365D01*
X43173Y-35364D01*
X43032Y-35423D01*
X42923Y-35531D01*
X42865Y-35673D01*
X42864Y-35826D01*
X42923Y-35967D01*
X43031Y-36076D01*
X43173Y-36134D01*
X43326Y-36135D01*
X43467Y-36076D01*
X43576Y-35968D01*
X43634Y-35826D01*
X43635Y-35673D01*
X43635Y-36673D01*
X43576Y-36532D01*
X43468Y-36423D01*
X43326Y-36365D01*
X43173Y-36364D01*
X43032Y-36423D01*
X42923Y-36531D01*
X42865Y-36673D01*
X42864Y-36826D01*
X42923Y-36967D01*
X43031Y-37076D01*
X43173Y-37134D01*
X43326Y-37135D01*
X43467Y-37076D01*
X43576Y-36968D01*
X43634Y-36826D01*
X43635Y-36673D01*
X43635Y-37673D01*
X43576Y-37532D01*
X43468Y-37423D01*
X43326Y-37365D01*
X43173Y-37364D01*
X43032Y-37423D01*
X42923Y-37531D01*
X42865Y-37673D01*
X42864Y-37826D01*
X42923Y-37967D01*
X43031Y-38076D01*
X43173Y-38134D01*
X43326Y-38135D01*
X43467Y-38076D01*
X43576Y-37968D01*
X43634Y-37826D01*
X43635Y-37673D01*
X43635Y-38673D01*
X43576Y-38532D01*
X43468Y-38423D01*
X43326Y-38365D01*
X43173Y-38364D01*
X43032Y-38423D01*
X42923Y-38531D01*
X42865Y-38673D01*
X42864Y-38826D01*
X42923Y-38967D01*
X43031Y-39076D01*
X43173Y-39134D01*
X43326Y-39135D01*
X43467Y-39076D01*
X43576Y-38968D01*
X43634Y-38826D01*
X43635Y-38673D01*
X43635Y-39873D01*
X43576Y-39732D01*
X43468Y-39623D01*
X43326Y-39565D01*
X43173Y-39564D01*
X43032Y-39623D01*
X42923Y-39731D01*
X42865Y-39873D01*
X42864Y-40026D01*
X42923Y-40167D01*
X43031Y-40276D01*
X43173Y-40334D01*
X43326Y-40335D01*
X43467Y-40276D01*
X43576Y-40168D01*
X43634Y-40026D01*
X43635Y-39873D01*
X43635Y-40873D01*
X43576Y-40732D01*
X43468Y-40623D01*
X43326Y-40565D01*
X43173Y-40564D01*
X43032Y-40623D01*
X42923Y-40731D01*
X42865Y-40873D01*
X42864Y-41026D01*
X42923Y-41167D01*
X43031Y-41276D01*
X43173Y-41334D01*
X43326Y-41335D01*
X43467Y-41276D01*
X43576Y-41168D01*
X43634Y-41026D01*
X43635Y-40873D01*
X43635Y-41873D01*
X43576Y-41732D01*
X43468Y-41623D01*
X43326Y-41565D01*
X43173Y-41564D01*
X43032Y-41623D01*
X42923Y-41731D01*
X42865Y-41873D01*
X42864Y-42026D01*
X42923Y-42167D01*
X43031Y-42276D01*
X43173Y-42334D01*
X43326Y-42335D01*
X43467Y-42276D01*
X43576Y-42168D01*
X43634Y-42026D01*
X43635Y-41873D01*
X43635Y-42873D01*
X43576Y-42732D01*
X43468Y-42623D01*
X43326Y-42565D01*
X43173Y-42564D01*
X43032Y-42623D01*
X42923Y-42731D01*
X42865Y-42873D01*
X42864Y-43026D01*
X42923Y-43167D01*
X43031Y-43276D01*
X43173Y-43334D01*
X43326Y-43335D01*
X43467Y-43276D01*
X43576Y-43168D01*
X43634Y-43026D01*
X43635Y-42873D01*
X43635Y-44073D01*
X43576Y-43932D01*
X43468Y-43823D01*
X43326Y-43765D01*
X43173Y-43764D01*
X43032Y-43823D01*
X42923Y-43931D01*
X42865Y-44073D01*
X42864Y-44226D01*
X42923Y-44367D01*
X43031Y-44476D01*
X43173Y-44534D01*
X43326Y-44535D01*
X43467Y-44476D01*
X43576Y-44368D01*
X43634Y-44226D01*
X43635Y-44073D01*
X43635Y-45073D01*
X43576Y-44932D01*
X43468Y-44823D01*
X43326Y-44765D01*
X43173Y-44764D01*
X43032Y-44823D01*
X42923Y-44931D01*
X42865Y-45073D01*
X42864Y-45226D01*
X42923Y-45367D01*
X43031Y-45476D01*
X43173Y-45534D01*
X43326Y-45535D01*
X43467Y-45476D01*
X43576Y-45368D01*
X43634Y-45226D01*
X43635Y-45073D01*
X43635Y-46073D01*
X43576Y-45932D01*
X43468Y-45823D01*
X43326Y-45765D01*
X43173Y-45764D01*
X43032Y-45823D01*
X42923Y-45931D01*
X42865Y-46073D01*
X42864Y-46226D01*
X42923Y-46367D01*
X43031Y-46476D01*
X43173Y-46534D01*
X43326Y-46535D01*
X43467Y-46476D01*
X43576Y-46368D01*
X43634Y-46226D01*
X43635Y-46073D01*
X43635Y-47073D01*
X43576Y-46932D01*
X43468Y-46823D01*
X43326Y-46765D01*
X43173Y-46764D01*
X43032Y-46823D01*
X42923Y-46931D01*
X42865Y-47073D01*
X42864Y-47226D01*
X42923Y-47367D01*
X43031Y-47476D01*
X43173Y-47534D01*
X43326Y-47535D01*
X43467Y-47476D01*
X43576Y-47368D01*
X43634Y-47226D01*
X43635Y-47073D01*
X43635Y-48610D01*
X41586Y-48610D01*
X41586Y-44526D01*
X41586Y-43020D01*
X41586Y-41520D01*
X41586Y-40020D01*
X41586Y-38520D01*
X41586Y-37020D01*
X41586Y-35520D01*
X41586Y-34014D01*
X41509Y-33829D01*
X41368Y-33687D01*
X41183Y-33610D01*
X40982Y-33610D01*
X40797Y-33686D01*
X40655Y-33828D01*
X40579Y-34013D01*
X40578Y-34213D01*
X40655Y-34399D01*
X40796Y-34540D01*
X40982Y-34617D01*
X41182Y-34617D01*
X41367Y-34541D01*
X41509Y-34399D01*
X41586Y-34214D01*
X41586Y-34014D01*
X41586Y-35520D01*
X41509Y-35335D01*
X41368Y-35193D01*
X41183Y-35116D01*
X40982Y-35116D01*
X40797Y-35192D01*
X40655Y-35334D01*
X40579Y-35519D01*
X40578Y-35719D01*
X40655Y-35905D01*
X40796Y-36046D01*
X40982Y-36123D01*
X41182Y-36123D01*
X41367Y-36047D01*
X41509Y-35905D01*
X41586Y-35720D01*
X41586Y-35520D01*
X41586Y-37020D01*
X41509Y-36835D01*
X41368Y-36693D01*
X41183Y-36616D01*
X40982Y-36616D01*
X40797Y-36692D01*
X40655Y-36834D01*
X40579Y-37019D01*
X40578Y-37219D01*
X40655Y-37405D01*
X40796Y-37546D01*
X40982Y-37623D01*
X41182Y-37623D01*
X41367Y-37547D01*
X41509Y-37405D01*
X41586Y-37220D01*
X41586Y-37020D01*
X41586Y-38520D01*
X41509Y-38335D01*
X41368Y-38193D01*
X41183Y-38116D01*
X40982Y-38116D01*
X40797Y-38192D01*
X40655Y-38334D01*
X40579Y-38519D01*
X40578Y-38719D01*
X40655Y-38905D01*
X40796Y-39046D01*
X40982Y-39123D01*
X41182Y-39123D01*
X41367Y-39047D01*
X41509Y-38905D01*
X41586Y-38720D01*
X41586Y-38520D01*
X41586Y-40020D01*
X41509Y-39835D01*
X41368Y-39693D01*
X41183Y-39616D01*
X40982Y-39616D01*
X40797Y-39692D01*
X40655Y-39834D01*
X40579Y-40019D01*
X40578Y-40219D01*
X40655Y-40405D01*
X40796Y-40546D01*
X40982Y-40623D01*
X41182Y-40623D01*
X41367Y-40547D01*
X41509Y-40405D01*
X41586Y-40220D01*
X41586Y-40020D01*
X41586Y-41520D01*
X41509Y-41335D01*
X41368Y-41193D01*
X41183Y-41116D01*
X40982Y-41116D01*
X40797Y-41192D01*
X40655Y-41334D01*
X40579Y-41519D01*
X40578Y-41719D01*
X40655Y-41905D01*
X40796Y-42046D01*
X40982Y-42123D01*
X41182Y-42123D01*
X41367Y-42047D01*
X41509Y-41905D01*
X41586Y-41720D01*
X41586Y-41520D01*
X41586Y-43020D01*
X41509Y-42835D01*
X41368Y-42693D01*
X41183Y-42616D01*
X40982Y-42616D01*
X40797Y-42692D01*
X40655Y-42834D01*
X40579Y-43019D01*
X40578Y-43219D01*
X40655Y-43405D01*
X40796Y-43546D01*
X40982Y-43623D01*
X41182Y-43623D01*
X41367Y-43547D01*
X41509Y-43405D01*
X41586Y-43220D01*
X41586Y-43020D01*
X41586Y-44526D01*
X41509Y-44341D01*
X41368Y-44199D01*
X41183Y-44122D01*
X40982Y-44122D01*
X40797Y-44198D01*
X40655Y-44340D01*
X40579Y-44525D01*
X40578Y-44725D01*
X40655Y-44910D01*
X40796Y-45052D01*
X40982Y-45129D01*
X41182Y-45129D01*
X41367Y-45053D01*
X41509Y-44911D01*
X41586Y-44726D01*
X41586Y-44526D01*
X41586Y-48610D01*
X39499Y-48610D01*
X39499Y-30140D01*
X70740Y-30140D01*
X70740Y-48610D01*
M02*
